<svg width="230" height="181" viewBox="0 0 230 181" fill="none" xmlns="http://www.w3.org/2000/svg">
<path d="M208.369 86.6223C210.368 81.9079 209.424 77.1259 207.419 73.1277C205.622 69.5451 202.933 66.499 200.541 64.518L203.918 60.2397C207.124 62.831 210.706 66.4062 212.84 70.9879C215.127 75.8957 215.788 82.0292 212.387 89.5122C209.042 96.872 202.629 100.049 196.494 101.383C191.693 102.426 187.192 102.318 184.569 102.219C184.868 101.737 185.217 101.182 185.576 100.629C186.072 99.8646 186.576 99.1181 186.988 98.5691C187.175 98.321 187.328 98.1323 187.445 98.0054C191.711 97.9806 195.912 97.4449 199.549 95.7966C203.308 94.0927 206.42 91.2185 208.369 86.6223Z" fill="#292922" stroke="#292922" stroke-width="2"/>
<path d="M211.501 79.7044C213.924 77.4022 215.231 74.879 215.714 72.3004C216.195 69.735 215.848 67.18 215.069 64.8125C213.608 60.3755 210.587 56.4619 208.288 54.0689L209.93 48.485C212.2 50.9228 215.842 55.7519 218.032 61.4362C220.639 68.2046 221.117 75.9523 215.098 82.4018C209.015 88.9191 201.153 89.8737 194.305 88.9543C188.731 88.2061 183.927 86.2245 181.518 85.0953C181.886 84.7476 182.319 84.3445 182.761 83.9476C183.347 83.4217 183.93 82.9236 184.39 82.5798C184.525 82.4791 184.639 82.3996 184.731 82.3397C188.526 84.2524 192.778 85.8253 197.262 85.8465C201.937 85.8687 206.764 84.2042 211.501 79.7044Z" fill="#292922" stroke="#292922" stroke-width="2"/>
<path d="M6.47533 44.0085C11.5837 38.5352 65.4653 32.3017 91.7675 29.8691C98.1529 29.8691 102.714 31.6936 104.539 38.0791C106.363 44.4646 132.817 112.881 136.466 130.213C140.115 147.545 128.256 147.089 89.487 155.755C50.7178 164.421 40.2043 163.821 33.8418 154.82C26.088 143.852 4.19479 74.5677 2.37036 68.1822C0.545933 61.7967 0.0898259 50.8501 6.47533 44.0085Z" stroke="#292922" stroke-width="2" stroke-linecap="round"/>
<path d="M52.9949 146.016C52.9949 148.489 50.695 151.576 47.87 149.71C46.1948 148.604 46.1279 144.705 48.0391 143.58C50.9838 141.847 52.9949 144.276 52.9949 146.016Z" stroke="#292922" stroke-width="2" stroke-linecap="round"/>
<path d="M65.3096 136.143C66.6781 134.775 94.9565 128.845 96.3249 130.213C97.6934 131.582 101.433 140.704 99.9737 142.528C98.1493 144.809 71.6951 150.282 68.5024 149.37C65.3096 148.458 63.941 137.51 65.3096 136.143Z" stroke="#292922" stroke-width="2" stroke-linecap="round"/>
<path d="M37.4927 53.2277C37.0523 49.2627 69.3294 44.1055 69.8764 49.5788C70.0977 51.7933 62.6394 51.8385 54.8246 53.2277C46.5382 54.7007 37.8508 56.4508 37.4927 53.2277Z" stroke="#292922" stroke-width="2" stroke-linecap="round"/>
<path d="M89.0288 55.4111C87.2043 54.0431 48.435 59.0605 47.0667 62.7094C47.9791 67.2705 63.943 113.337 66.2235 119.267C68.054 124.026 101.344 116.53 107.273 113.337C110.704 111.49 90.8534 56.7791 89.0288 55.4111Z" fill="#292922"/>
<path d="M42.0508 114.705L55.734 111.969" stroke="#292922" stroke-width="2" stroke-linecap="round"/>
<path d="M33.8398 96.4613L50.7158 93.7246" stroke="#292922" stroke-width="2" stroke-linecap="round"/>
<path d="M32.0156 78.217L44.7866 76.3926" stroke="#292922" stroke-width="2" stroke-linecap="round"/>
<path d="M1.91406 67.2705C2.0661 81.866 2.09651 106.769 2.82628 111.513C3.73849 117.442 18.3339 165.334 29.2805 175.824C40.2271 186.315 131.905 173.544 136.922 157.58C137.804 154.773 138.746 136.599 136.922 133.406" stroke="#292922" stroke-width="2" stroke-linecap="round"/>
<path d="M38.4023 35.7998C47.6765 24.7012 67.8669 2.32153 74.4348 1.59176C82.6448 0.679541 205.794 26.6766 210.355 38.5365C213.431 46.5349 188.918 87.3389 169.305 89.1643C155.843 90.4173 129.472 78.3698 116.853 71.3761" stroke="#292922" stroke-width="2" stroke-linecap="round"/>
<path d="M210.352 42.6406C209.288 57.9962 192.108 101.846 177.513 104.671C167.654 106.579 132.662 88.7075 120.043 80.9537" stroke="#292922" stroke-width="2" stroke-linecap="round"/>
</svg>
