<svg width="189" height="198" viewBox="0 0 189 198" fill="none" xmlns="http://www.w3.org/2000/svg">
<mask id="path-1-inside-1_1412_6395" fill="white">
<path d="M5.02749 168.741C2.40832 83.7796 5.68872 115.83 3.06955 30.8681C2.4429 10.5405 16.3365 5.1497 20.3039 5.0274C78.2393 3.24139 102.057 5.23897 159.054 5.02252C181.908 4.93574 183.417 10.8748 184.28 38.8847C185.763 86.9855 180.713 122.297 182.183 169.97C182.771 189.056 180.17 192.254 160.014 192.875C126.14 193.919 54.2157 193.932 20.3044 192.875C6.10218 192.432 5.38694 180.401 5.02749 168.741Z"/>
</mask>
<path d="M20.3044 192.875L20.3667 190.876L20.3044 192.875ZM159.054 5.02252L159.062 7.02251L159.054 5.02252ZM1.0705 30.9298C2.37926 73.3838 2.2136 86.5828 2.04868 99.7798C1.88298 113.039 1.71803 126.295 3.02844 168.803L7.02654 168.68C5.71778 126.226 5.88344 113.027 6.04837 99.8298C6.21406 86.5711 6.37902 73.3143 5.0686 30.8065L1.0705 30.9298ZM3.02844 168.803C3.20538 174.543 3.45994 180.88 5.64577 185.823C6.76627 188.357 8.42047 190.599 10.8712 192.224C13.3167 193.845 16.4073 194.754 20.242 194.874L20.3667 190.876C17.1003 190.774 14.7757 190.013 13.0815 188.89C11.3925 187.77 10.1825 186.192 9.30404 184.206C7.49184 180.108 7.20906 174.6 7.02654 168.68L3.02844 168.803ZM184.182 169.908C183.45 146.155 184.341 125.478 185.235 104.673C186.128 83.8778 187.023 62.9565 186.279 38.823L182.281 38.9463C183.02 62.9137 182.132 83.6983 181.239 104.502C180.345 125.296 179.447 146.111 180.184 170.031L184.182 169.908ZM20.2422 3.02835C17.7002 3.10671 12.7629 4.72936 8.54741 8.9589C4.23945 13.2812 0.741479 20.2568 1.0705 30.9298L5.0686 30.8065C4.77097 21.1518 7.9065 15.2682 11.3805 11.7826C14.947 8.20429 18.9402 7.07039 20.3655 7.02645L20.2422 3.02835ZM20.242 194.874C54.1953 195.932 126.161 195.92 160.076 194.874L159.952 190.876C126.119 191.919 54.2361 191.932 20.3667 190.876L20.242 194.874ZM159.046 3.02254C102.197 3.23842 78.1883 1.24201 20.2422 3.02835L20.3655 7.02645C78.2904 5.24076 101.918 7.23951 159.062 7.02251L159.046 3.02254ZM186.279 38.823C186.064 31.8311 185.806 26.1062 185.17 21.4915C184.535 16.8904 183.498 13.1661 181.574 10.3021C177.582 4.36022 170.412 2.97938 159.046 3.02254L159.062 7.02251C170.55 6.97888 175.561 8.52418 178.253 12.5326C179.671 14.6437 180.602 17.6506 181.207 22.0381C181.81 26.412 182.065 31.9333 182.281 38.9463L186.279 38.823ZM160.076 194.874C165.135 194.718 169.236 194.399 172.5 193.67C175.781 192.937 178.404 191.751 180.329 189.723C182.256 187.692 183.266 185.044 183.777 181.827C184.285 178.634 184.33 174.694 184.182 169.908L180.184 170.031C180.331 174.789 180.271 178.406 179.827 181.199C179.386 183.969 178.596 185.739 177.427 186.97C176.255 188.205 174.486 189.128 171.628 189.766C168.754 190.408 164.971 190.721 159.952 190.876L160.076 194.874Z" fill="#292922" mask="url(#path-1-inside-1_1412_6395)"/>
<rect x="85.043" y="11.1768" width="5.44332" height="10.6536" rx="2.72166" stroke="#292922" stroke-width="2"/>
<rect x="105.883" y="11.1768" width="5.44332" height="10.6536" rx="2.72166" stroke="#292922" stroke-width="2"/>
<rect x="76.1094" y="11.1768" width="5.44332" height="10.6536" rx="2.72166" stroke="#292922" stroke-width="2"/>
<rect x="96.9492" y="11.1768" width="5.44332" height="10.6536" rx="2.72166" stroke="#292922" stroke-width="2"/>
<path d="M80.3984 174.863C93.7778 174.863 92.8513 175.709 105.539 174.863" stroke="#292922" stroke-width="2" stroke-linecap="round"/>
<path d="M27.7102 150.715C26.1676 147.134 24.023 132.731 30.1317 126.309C38.8567 117.138 57.2396 115.837 65.6496 129.156C71.2999 138.105 66.8605 149.901 63.2279 153.969C53.7712 164.558 33.7178 164.661 27.7102 150.715Z" fill="#292922" stroke="#292922" stroke-width="2" stroke-linecap="round"/>
<path d="M27.925 43.2952C26.3825 46.8763 24.2379 61.2792 30.3466 67.7003C39.0715 76.8715 57.4544 78.1725 65.8645 64.8534C71.5148 55.905 67.0753 44.1087 63.4428 40.0412C53.986 29.452 33.9326 29.3483 27.925 43.2952Z" fill="#292922" stroke="#292922" stroke-width="2" stroke-linecap="round"/>
<path d="M120.964 150.715C119.422 147.134 117.277 132.731 123.386 126.309C132.111 117.138 150.493 115.837 158.904 129.156C164.554 138.105 160.114 149.901 156.482 153.969C147.025 164.558 126.972 164.661 120.964 150.715Z" fill="#292922" stroke="#292922" stroke-width="2" stroke-linecap="round"/>
<path d="M121.175 43.2952C119.632 46.8763 117.488 61.2792 123.597 67.7003C132.322 76.8715 150.704 78.1725 159.115 64.8534C164.765 55.905 160.325 44.1087 156.693 40.0412C147.236 29.452 127.183 29.3483 121.175 43.2952Z" fill="#292922" stroke="#292922" stroke-width="2" stroke-linecap="round"/>
<path d="M22.6705 150.626C20.3203 140.858 22.2499 130.824 24.9317 126.644C34.8377 111.205 58.6605 107.982 69.7164 129.507C71.9499 133.856 73.8266 146.424 69.7164 153.545C59.4645 171.308 27.3412 170.039 22.6705 150.626Z" stroke="#292922" stroke-width="2" stroke-linecap="round"/>
<path d="M22.8814 43.3842C20.5312 53.1522 22.4609 63.1856 25.1427 67.3654C35.0486 82.8048 58.8714 86.0274 69.9274 64.5026C72.1608 60.1542 74.0375 47.5859 69.9274 40.4647C59.6754 22.7022 27.5522 23.9709 22.8814 43.3842Z" stroke="#292922" stroke-width="2" stroke-linecap="round"/>
<path d="M115.92 150.626C113.57 140.858 115.5 130.824 118.182 126.644C128.088 111.205 151.91 107.982 162.966 129.507C165.2 133.856 167.077 146.424 162.966 153.545C152.714 171.308 120.591 170.039 115.92 150.626Z" stroke="#292922" stroke-width="2" stroke-linecap="round"/>
<path d="M116.131 43.3842C113.781 53.1522 115.711 63.1856 118.393 67.3654C128.299 82.8048 152.121 86.0274 163.177 64.5026C165.411 60.1542 167.287 47.5859 163.177 40.4647C152.925 22.7022 120.802 23.9709 116.131 43.3842Z" stroke="#292922" stroke-width="2" stroke-linecap="round"/>
<path d="M65.8475 5.94727C65.8475 5.94727 65.3458 22.3686 67.7772 25.3116C70.2086 28.2547 118.115 29.0338 120.681 26.0471C123.247 23.0604 122.308 11.1876 122.308 6.8079" stroke="#292922" stroke-width="2" stroke-linecap="round"/>
</svg>
