<svg width="161" height="237" viewBox="0 0 161 237" fill="none" xmlns="http://www.w3.org/2000/svg">
<path d="M65.3091 55.403C63.8183 57.7608 53.6994 73.7912 51.9953 77.1994C51.2341 78.7218 51.8878 88.5182 51.9953 99.2857C52.1476 114.553 51.9953 132.392 51.9953 136.71C51.9953 144.072 69.0572 142.231 76.5356 142.231C82.69 142.231 88.8445 140.569 96.1723 139.981C98.8742 139.764 101.076 137.585 101.076 134.875V90.6966C101.076 82.1619 89.9451 73.318 82.2001 68.6006C80.2569 67.417 78.9896 65.3459 78.9896 63.0706V51.4321C78.9896 50.7544 78.4403 50.2051 77.7626 50.2051H66.7195C66.0418 50.2051 65.4925 50.7544 65.4925 51.4321V54.7573C65.4925 54.9897 65.4333 55.2066 65.3091 55.403Z" stroke="#292922" stroke-width="2" stroke-linejoin="round"/>
<path d="M62.4257 38.5487L61.477 38.8649L62.4257 38.5487ZM102.318 19.8109L101.849 20.6942L102.318 19.8109ZM82.1435 49.0366L83.1384 49.1369L82.1435 49.0366ZM52.6064 31.2506L52.5047 32.2454L52.6064 31.2506ZM62.6016 48.9945L61.6207 48.7998L62.6016 48.9945ZM63.6527 51.2054H80.8831V49.2054H63.6527V51.2054ZM83.1384 49.1369C83.3788 46.7526 84.0877 43.6707 85.5126 41.218C86.9253 38.7862 88.9547 37.0947 91.874 37.0947V35.0947C88.0005 35.0947 85.4132 37.4076 83.7832 40.2134C82.1654 42.9983 81.4055 46.3874 81.1485 48.9363L83.1384 49.1369ZM91.874 37.0947C91.8842 37.0947 91.8943 37.0947 91.9045 37.0947C91.9146 37.0947 91.9247 37.0947 91.9348 37.0947C91.945 37.0947 91.9551 37.0947 91.9652 37.0947C91.9753 37.0947 91.9854 37.0947 91.9955 37.0947C92.0055 37.0947 92.0156 37.0947 92.0257 37.0947C92.0358 37.0947 92.0458 37.0947 92.0559 37.0947C92.0659 37.0947 92.076 37.0947 92.086 37.0947C92.096 37.0947 92.1061 37.0947 92.1161 37.0947C92.1261 37.0947 92.1361 37.0947 92.1461 37.0947C92.1561 37.0947 92.1661 37.0947 92.1761 37.0947C92.1861 37.0947 92.1961 37.0947 92.206 37.0947C92.216 37.0947 92.226 37.0947 92.2359 37.0947C92.2459 37.0947 92.2558 37.0947 92.2658 37.0947C92.2757 37.0947 92.2856 37.0947 92.2956 37.0947C92.3055 37.0947 92.3154 37.0947 92.3253 37.0947C92.3352 37.0947 92.3451 37.0947 92.355 37.0947C92.3649 37.0947 92.3748 37.0947 92.3847 37.0947C92.3945 37.0947 92.4044 37.0947 92.4142 37.0947C92.4241 37.0947 92.434 37.0947 92.4438 37.0947C92.4536 37.0947 92.4635 37.0947 92.4733 37.0947C92.4831 37.0947 92.4929 37.0947 92.5028 37.0947C92.5126 37.0947 92.5224 37.0947 92.5322 37.0947C92.542 37.0947 92.5517 37.0947 92.5615 37.0947C92.5713 37.0947 92.5811 37.0947 92.5908 37.0947C92.6006 37.0947 92.6103 37.0947 92.6201 37.0947C92.6298 37.0947 92.6396 37.0947 92.6493 37.0947C92.659 37.0947 92.6687 37.0947 92.6785 37.0947C92.6882 37.0947 92.6979 37.0947 92.7076 37.0947C92.7173 37.0947 92.727 37.0947 92.7366 37.0947C92.7463 37.0947 92.756 37.0947 92.7657 37.0947C92.7753 37.0947 92.785 37.0947 92.7946 37.0947C92.8043 37.0947 92.8139 37.0947 92.8235 37.0947C92.8332 37.0947 92.8428 37.0947 92.8524 37.0947C92.862 37.0947 92.8716 37.0947 92.8812 37.0947C92.8908 37.0947 92.9004 37.0947 92.91 37.0947C92.9196 37.0947 92.9292 37.0947 92.9388 37.0947C92.9483 37.0947 92.9579 37.0947 92.9674 37.0947C92.977 37.0947 92.9865 37.0947 92.9961 37.0947C93.0056 37.0947 93.0151 37.0947 93.0247 37.0947C93.0342 37.0947 93.0437 37.0947 93.0532 37.0947C93.0627 37.0947 93.0722 37.0947 93.0817 37.0947C93.0912 37.0947 93.1007 37.0947 93.1101 37.0947C93.1196 37.0947 93.1291 37.0947 93.1385 37.0947C93.148 37.0947 93.1574 37.0947 93.1669 37.0947C93.1763 37.0947 93.1857 37.0947 93.1952 37.0947C93.2046 37.0947 93.214 37.0947 93.2234 37.0947C93.2328 37.0947 93.2422 37.0947 93.2516 37.0947C93.261 37.0947 93.2704 37.0947 93.2798 37.0947C93.2892 37.0947 93.2985 37.0947 93.3079 37.0947C93.3173 37.0947 93.3266 37.0947 93.336 37.0947C93.3453 37.0947 93.3546 37.0947 93.364 37.0947C93.3733 37.0947 93.3826 37.0947 93.3919 37.0947C93.4012 37.0947 93.4106 37.0947 93.4199 37.0947C93.4292 37.0947 93.4384 37.0947 93.4477 37.0947C93.457 37.0947 93.4663 37.0947 93.4756 37.0947C93.4848 37.0947 93.4941 37.0947 93.5033 37.0947C93.5126 37.0947 93.5218 37.0947 93.5311 37.0947C93.5403 37.0947 93.5495 37.0947 93.5587 37.0947C93.568 37.0947 93.5772 37.0947 93.5864 37.0947C93.5956 37.0947 93.6048 37.0947 93.614 37.0947C93.6231 37.0947 93.6323 37.0947 93.6415 37.0947C93.6507 37.0947 93.6598 37.0947 93.669 37.0947C93.6782 37.0947 93.6873 37.0947 93.6964 37.0947C93.7056 37.0947 93.7147 37.0947 93.7238 37.0947C93.733 37.0947 93.7421 37.0947 93.7512 37.0947C93.7603 37.0947 93.7694 37.0947 93.7785 37.0947C93.7876 37.0947 93.7967 37.0947 93.8058 37.0947C93.8148 37.0947 93.8239 37.0947 93.833 37.0947C93.842 37.0947 93.8511 37.0947 93.8601 37.0947C93.8692 37.0947 93.8782 37.0947 93.8872 37.0947C93.8963 37.0947 93.9053 37.0947 93.9143 37.0947C93.9233 37.0947 93.9323 37.0947 93.9413 37.0947C93.9503 37.0947 93.9593 37.0947 93.9683 37.0947C93.9773 37.0947 93.9863 37.0947 93.9952 37.0947C94.0042 37.0947 94.0132 37.0947 94.0221 37.0947C94.0311 37.0947 94.04 37.0947 94.049 37.0947C94.0579 37.0947 94.0668 37.0947 94.0757 37.0947C94.0847 37.0947 94.0936 37.0947 94.1025 37.0947C94.1114 37.0947 94.1203 37.0947 94.1292 37.0947C94.1381 37.0947 94.147 37.0947 94.1558 37.0947C94.1647 37.0947 94.1736 37.0947 94.1824 37.0947C94.1913 37.0947 94.2001 37.0947 94.209 37.0947C94.2178 37.0947 94.2267 37.0947 94.2355 37.0947C94.2443 37.0947 94.2531 37.0947 94.262 37.0947C94.2708 37.0947 94.2796 37.0947 94.2884 37.0947C94.2972 37.0947 94.306 37.0947 94.3147 37.0947C94.3235 37.0947 94.3323 37.0947 94.3411 37.0947C94.3498 37.0947 94.3586 37.0947 94.3673 37.0947C94.3761 37.0947 94.3848 37.0947 94.3936 37.0947C94.4023 37.0947 94.411 37.0947 94.4198 37.0947C94.4285 37.0947 94.4372 37.0947 94.4459 37.0947C94.4546 37.0947 94.4633 37.0947 94.472 37.0947C94.4807 37.0947 94.4893 37.0947 94.498 37.0947C94.5067 37.0947 94.5154 37.0947 94.524 37.0947C94.5327 37.0947 94.5413 37.0947 94.55 37.0947C94.5586 37.0947 94.5672 37.0947 94.5759 37.0947C94.5845 37.0947 94.5931 37.0947 94.6017 37.0947C94.6103 37.0947 94.6189 37.0947 94.6275 37.0947C94.6361 37.0947 94.6447 37.0947 94.6533 37.0947C94.6619 37.0947 94.6705 37.0947 94.679 37.0947C94.6876 37.0947 94.6962 37.0947 94.7047 37.0947C94.7133 37.0947 94.7218 37.0947 94.7303 37.0947C94.7389 37.0947 94.7474 37.0947 94.7559 37.0947C94.7644 37.0947 94.7729 37.0947 94.7815 37.0947C94.79 37.0947 94.7985 37.0947 94.8069 37.0947C94.8154 37.0947 94.8239 37.0947 94.8324 37.0947C94.8409 37.0947 94.8493 37.0947 94.8578 37.0947C94.8662 37.0947 94.8747 37.0947 94.8831 37.0947C94.8916 37.0947 94.9 37.0947 94.9084 37.0947C94.9169 37.0947 94.9253 37.0947 94.9337 37.0947C94.9421 37.0947 94.9505 37.0947 94.9589 37.0947C94.9673 37.0947 94.9757 37.0947 94.9841 37.0947C94.9925 37.0947 95.0008 37.0947 95.0092 37.0947C95.0176 37.0947 95.0259 37.0947 95.0343 37.0947C95.0426 37.0947 95.051 37.0947 95.0593 37.0947C95.0677 37.0947 95.076 37.0947 95.0843 37.0947C95.0926 37.0947 95.1009 37.0947 95.1093 37.0947C95.1176 37.0947 95.1259 37.0947 95.1341 37.0947C95.1424 37.0947 95.1507 37.0947 95.159 37.0947C95.1673 37.0947 95.1755 37.0947 95.1838 37.0947C95.1921 37.0947 95.2003 37.0947 95.2086 37.0947C95.2168 37.0947 95.225 37.0947 95.2333 37.0947C95.2415 37.0947 95.2497 37.0947 95.2579 37.0947C95.2662 37.0947 95.2744 37.0947 95.2826 37.0947C95.2908 37.0947 95.299 37.0947 95.3071 37.0947C95.3153 37.0947 95.3235 37.0947 95.3317 37.0947C95.3398 37.0947 95.348 37.0947 95.3562 37.0947C95.3643 37.0947 95.3725 37.0947 95.3806 37.0947C95.3887 37.0947 95.3969 37.0947 95.405 37.0947C95.4131 37.0947 95.4212 37.0947 95.4293 37.0947C95.4375 37.0947 95.4456 37.0947 95.4537 37.0947C95.4617 37.0947 95.4698 37.0947 95.4779 37.0947C95.486 37.0947 95.4941 37.0947 95.5021 37.0947C95.5102 37.0947 95.5182 37.0947 95.5263 37.0947C95.5343 37.0947 95.5424 37.0947 95.5504 37.0947C95.5585 37.0947 95.5665 37.0947 95.5745 37.0947C95.5825 37.0947 95.5905 37.0947 95.5985 37.0947C95.6065 37.0947 95.6145 37.0947 95.6225 37.0947C95.6305 37.0947 95.6385 37.0947 95.6465 37.0947C95.6544 37.0947 95.6624 37.0947 95.6704 37.0947C95.6783 37.0947 95.6863 37.0947 95.6942 37.0947C95.7022 37.0947 95.7101 37.0947 95.718 37.0947C95.726 37.0947 95.7339 37.0947 95.7418 37.0947C95.7497 37.0947 95.7576 37.0947 95.7655 37.0947C95.7734 37.0947 95.7813 37.0947 95.7892 37.0947C95.7971 37.0947 95.805 37.0947 95.8128 37.0947C95.8207 37.0947 95.8286 37.0947 95.8364 37.0947C95.8443 37.0947 95.8521 37.0947 95.8599 37.0947C95.8678 37.0947 95.8756 37.0947 95.8834 37.0947C95.8913 37.0947 95.8991 37.0947 95.9069 37.0947C95.9147 37.0947 95.9225 37.0947 95.9303 37.0947C95.9381 37.0947 95.9459 37.0947 95.9537 37.0947C95.9614 37.0947 95.9692 37.0947 95.977 37.0947C95.9847 37.0947 95.9925 37.0947 96.0003 37.0947C96.008 37.0947 96.0158 37.0947 96.0235 37.0947C96.0312 37.0947 96.0389 37.0947 96.0467 37.0947C96.0544 37.0947 96.0621 37.0947 96.0698 37.0947C96.0775 37.0947 96.0852 37.0947 96.0929 37.0947C96.1006 37.0947 96.1083 37.0947 96.116 37.0947C96.1236 37.0947 96.1313 37.0947 96.139 37.0947C96.1466 37.0947 96.1543 37.0947 96.1619 37.0947C96.1696 37.0947 96.1772 37.0947 96.1848 37.0947C96.1925 37.0947 96.2001 37.0947 96.2077 37.0947C96.2153 37.0947 96.2229 37.0947 96.2305 37.0947C96.2381 37.0947 96.2457 37.0947 96.2533 37.0947C96.2609 37.0947 96.2685 37.0947 96.2761 37.0947C96.2836 37.0947 96.2912 37.0947 96.2988 37.0947C96.3063 37.0947 96.3139 37.0947 96.3214 37.0947C96.329 37.0947 96.3365 37.0947 96.344 37.0947C96.3516 37.0947 96.3591 37.0947 96.3666 37.0947C96.3741 37.0947 96.3816 37.0947 96.3891 37.0947C96.3966 37.0947 96.4041 37.0947 96.4116 37.0947C96.4191 37.0947 96.4266 37.0947 96.434 37.0947C96.4415 37.0947 96.449 37.0947 96.4564 37.0947C96.4639 37.0947 96.4713 37.0947 96.4788 37.0947C96.4862 37.0947 96.4936 37.0947 96.5011 37.0947C96.5085 37.0947 96.5159 37.0947 96.5233 37.0947C96.5307 37.0947 96.5381 37.0947 96.5455 37.0947C96.5529 37.0947 96.5603 37.0947 96.5677 37.0947C96.5751 37.0947 96.5825 37.0947 96.5898 37.0947C96.5972 37.0947 96.6045 37.0947 96.6119 37.0947C96.6193 37.0947 96.6266 37.0947 96.6339 37.0947C96.6413 37.0947 96.6486 37.0947 96.6559 37.0947C96.6633 37.0947 96.6706 37.0947 96.6779 37.0947C96.6852 37.0947 96.6925 37.0947 96.6998 37.0947C96.7071 37.0947 96.7144 37.0947 96.7216 37.0947C96.7289 37.0947 96.7362 37.0947 96.7435 37.0947C96.7507 37.0947 96.758 37.0947 96.7652 37.0947C96.7725 37.0947 96.7797 37.0947 96.787 37.0947C96.7942 37.0947 96.8014 37.0947 96.8087 37.0947C96.8159 37.0947 96.8231 37.0947 96.8303 37.0947C96.8375 37.0947 96.8447 37.0947 96.8519 37.0947C96.8591 37.0947 96.8663 37.0947 96.8735 37.0947C96.8806 37.0947 96.8878 37.0947 96.895 37.0947C96.9021 37.0947 96.9093 37.0947 96.9165 37.0947C96.9236 37.0947 96.9307 37.0947 96.9379 37.0947C96.945 37.0947 96.9521 37.0947 96.9593 37.0947C96.9664 37.0947 96.9735 37.0947 96.9806 37.0947C96.9877 37.0947 96.9948 37.0947 97.0019 37.0947C97.009 37.0947 97.0161 37.0947 97.0232 37.0947C97.0302 37.0947 97.0373 37.0947 97.0444 37.0947C97.0514 37.0947 97.0585 37.0947 97.0655 37.0947C97.0726 37.0947 97.0796 37.0947 97.0867 37.0947C97.0937 37.0947 97.1007 37.0947 97.1078 37.0947C97.1148 37.0947 97.1218 37.0947 97.1288 37.0947C97.1358 37.0947 97.1428 37.0947 97.1498 37.0947C97.1568 37.0947 97.1638 37.0947 97.1707 37.0947C97.1777 37.0947 97.1847 37.0947 97.1917 37.0947C97.1986 37.0947 97.2056 37.0947 97.2125 37.0947C97.2195 37.0947 97.2264 37.0947 97.2333 37.0947C97.2403 37.0947 97.2472 37.0947 97.2541 37.0947C97.261 37.0947 97.268 37.0947 97.2749 37.0947C97.2818 37.0947 97.2887 37.0947 97.2956 37.0947C97.3025 37.0947 97.3093 37.0947 97.3162 37.0947C97.3231 37.0947 97.33 37.0947 97.3368 37.0947C97.3437 37.0947 97.3505 37.0947 97.3574 37.0947C97.3642 37.0947 97.3711 37.0947 97.3779 37.0947C97.3848 37.0947 97.3916 37.0947 97.3984 37.0947C97.4052 37.0947 97.412 37.0947 97.4188 37.0947C97.4256 37.0947 97.4324 37.0947 97.4392 37.0947C97.446 37.0947 97.4528 37.0947 97.4596 37.0947C97.4664 37.0947 97.4731 37.0947 97.4799 37.0947C97.4867 37.0947 97.4934 37.0947 97.5002 37.0947C97.5069 37.0947 97.5137 37.0947 97.5204 37.0947C97.5271 37.0947 97.5339 37.0947 97.5406 37.0947C97.5473 37.0947 97.554 37.0947 97.5607 37.0947C97.5674 37.0947 97.5741 37.0947 97.5808 37.0947C97.5875 37.0947 97.5942 37.0947 97.6009 37.0947C97.6076 37.0947 97.6142 37.0947 97.6209 37.0947C97.6276 37.0947 97.6342 37.0947 97.6409 37.0947C97.6475 37.0947 97.6542 37.0947 97.6608 37.0947C97.6674 37.0947 97.6741 37.0947 97.6807 37.0947C97.6873 37.0947 97.6939 37.0947 97.7005 37.0947C97.7071 37.0947 97.7137 37.0947 97.7203 37.0947C97.7269 37.0947 97.7335 37.0947 97.7401 37.0947C97.7467 37.0947 97.7532 37.0947 97.7598 37.0947C97.7664 37.0947 97.7729 37.0947 97.7795 37.0947C97.786 37.0947 97.7926 37.0947 97.7991 37.0947C97.8057 37.0947 97.8122 37.0947 97.8187 37.0947C97.8252 37.0947 97.8317 37.0947 97.8383 37.0947C97.8448 37.0947 97.8513 37.0947 97.8578 37.0947C97.8643 37.0947 97.8708 37.0947 97.8772 37.0947C97.8837 37.0947 97.8902 37.0947 97.8967 37.0947C97.9031 37.0947 97.9096 37.0947 97.916 37.0947C97.9225 37.0947 97.9289 37.0947 97.9354 37.0947C97.9418 37.0947 97.9482 37.0947 97.9547 37.0947C97.9611 37.0947 97.9675 37.0947 97.9739 37.0947C97.9803 37.0947 97.9868 37.0947 97.9931 37.0947C97.9995 37.0947 98.0059 37.0947 98.0123 37.0947C98.0187 37.0947 98.0251 37.0947 98.0315 37.0947C98.0378 37.0947 98.0442 37.0947 98.0505 37.0947C98.0569 37.0947 98.0632 37.0947 98.0696 37.0947C98.0759 37.0947 98.0823 37.0947 98.0886 37.0947C98.0949 37.0947 98.1012 37.0947 98.1076 37.0947C98.1139 37.0947 98.1202 37.0947 98.1265 37.0947C98.1328 37.0947 98.1391 37.0947 98.1454 37.0947C98.1516 37.0947 98.1579 37.0947 98.1642 37.0947C98.1705 37.0947 98.1767 37.0947 98.183 37.0947C98.1893 37.0947 98.1955 37.0947 98.2018 37.0947C98.208 37.0947 98.2142 37.0947 98.2205 37.0947C98.2267 37.0947 98.2329 37.0947 98.2391 37.0947C98.2454 37.0947 98.2516 37.0947 98.2578 37.0947C98.264 37.0947 98.2702 37.0947 98.2764 37.0947C98.2826 37.0947 98.2887 37.0947 98.2949 37.0947C98.3011 37.0947 98.3073 37.0947 98.3134 37.0947C98.3196 37.0947 98.3257 37.0947 98.3319 37.0947C98.338 37.0947 98.3442 37.0947 98.3503 37.0947C98.3564 37.0947 98.3626 37.0947 98.3687 37.0947C98.3748 37.0947 98.3809 37.0947 98.387 37.0947C98.3932 37.0947 98.3993 37.0947 98.4053 37.0947C98.4114 37.0947 98.4175 37.0947 98.4236 37.0947C98.4297 37.0947 98.4358 37.0947 98.4418 37.0947C98.4479 37.0947 98.4539 37.0947 98.46 37.0947C98.4661 37.0947 98.4721 37.0947 98.4781 37.0947C98.4842 37.0947 98.4902 37.0947 98.4962 37.0947C98.5023 37.0947 98.5083 37.0947 98.5143 37.0947C98.5203 37.0947 98.5263 37.0947 98.5323 37.0947C98.5383 37.0947 98.5443 37.0947 98.5503 37.0947C98.5563 37.0947 98.5622 37.0947 98.5682 37.0947C98.5742 37.0947 98.5801 37.0947 98.5861 37.0947C98.5921 37.0947 98.598 37.0947 98.604 37.0947C98.6099 37.0947 98.6158 37.0947 98.6218 37.0947C98.6277 37.0947 98.6336 37.0947 98.6395 37.0947C98.6454 37.0947 98.6514 37.0947 98.6573 37.0947C98.6632 37.0947 98.6691 37.0947 98.6749 37.0947C98.6808 37.0947 98.6867 37.0947 98.6926 37.0947C98.6985 37.0947 98.7043 37.0947 98.7102 37.0947C98.7161 37.0947 98.7219 37.0947 98.7278 37.0947C98.7336 37.0947 98.7394 37.0947 98.7453 37.0947C98.7511 37.0947 98.7569 37.0947 98.7628 37.0947C98.7686 37.0947 98.7744 37.0947 98.7802 37.0947C98.786 37.0947 98.7918 37.0947 98.7976 37.0947C98.8034 37.0947 98.8092 37.0947 98.815 37.0947C98.8208 37.0947 98.8265 37.0947 98.8323 37.0947C98.8381 37.0947 98.8438 37.0947 98.8496 37.0947C98.8553 37.0947 98.8611 37.0947 98.8668 37.0947C98.8726 37.0947 98.8783 37.0947 98.884 37.0947C98.8897 37.0947 98.8955 37.0947 98.9012 37.0947C98.9069 37.0947 98.9126 37.0947 98.9183 37.0947C98.924 37.0947 98.9297 37.0947 98.9354 37.0947C98.9411 37.0947 98.9467 37.0947 98.9524 37.0947C98.9581 37.0947 98.9638 37.0947 98.9694 37.0947C98.9751 37.0947 98.9807 37.0947 98.9864 37.0947C98.992 37.0947 98.9977 37.0947 99.0033 37.0947C99.0089 37.0947 99.0145 37.0947 99.0202 37.0947C99.0258 37.0947 99.0314 37.0947 99.037 37.0947C99.0426 37.0947 99.0482 37.0947 99.0538 37.0947C99.0594 37.0947 99.065 37.0947 99.0706 37.0947C99.0761 37.0947 99.0817 37.0947 99.0873 37.0947C99.0928 37.0947 99.0984 37.0947 99.104 37.0947C99.1095 37.0947 99.1151 37.0947 99.1206 37.0947C99.1261 37.0947 99.1317 37.0947 99.1372 37.0947C99.1427 37.0947 99.1482 37.0947 99.1538 37.0947C99.1593 37.0947 99.1648 37.0947 99.1703 37.0947C99.1758 37.0947 99.1813 37.0947 99.1867 37.0947C99.1922 37.0947 99.1977 37.0947 99.2032 37.0947C99.2087 37.0947 99.2141 37.0947 99.2196 37.0947C99.225 37.0947 99.2305 37.0947 99.2359 37.0947C99.2414 37.0947 99.2468 37.0947 99.2523 37.0947C99.2577 37.0947 99.2631 37.0947 99.2685 37.0947C99.274 37.0947 99.2794 37.0947 99.2848 37.0947C99.2902 37.0947 99.2956 37.0947 99.301 37.0947C99.3064 37.0947 99.3118 37.0947 99.3171 37.0947C99.3225 37.0947 99.3279 37.0947 99.3333 37.0947C99.3386 37.0947 99.344 37.0947 99.3493 37.0947C99.3547 37.0947 99.36 37.0947 99.3654 37.0947C99.3707 37.0947 99.3761 37.0947 99.3814 37.0947C99.3867 37.0947 99.392 37.0947 99.3973 37.0947C99.4027 37.0947 99.408 37.0947 99.4133 37.0947C99.4186 37.0947 99.4239 37.0947 99.4291 37.0947C99.4344 37.0947 99.4397 37.0947 99.445 37.0947C99.4503 37.0947 99.4555 37.0947 99.4608 37.0947C99.4661 37.0947 99.4713 37.0947 99.4766 37.0947C99.4818 37.0947 99.487 37.0947 99.4923 37.0947C99.4975 37.0947 99.5027 37.0947 99.508 37.0947C99.5132 37.0947 99.5184 37.0947 99.5236 37.0947C99.5288 37.0947 99.534 37.0947 99.5392 37.0947C99.5444 37.0947 99.5496 37.0947 99.5548 37.0947C99.56 37.0947 99.5652 37.0947 99.5703 37.0947C99.5755 37.0947 99.5807 37.0947 99.5858 37.0947C99.591 37.0947 99.5961 37.0947 99.6013 37.0947C99.6064 37.0947 99.6115 37.0947 99.6167 37.0947C99.6218 37.0947 99.6269 37.0947 99.632 37.0947C99.6372 37.0947 99.6423 37.0947 99.6474 37.0947C99.6525 37.0947 99.6576 37.0947 99.6627 37.0947C99.6678 37.0947 99.6728 37.0947 99.6779 37.0947C99.683 37.0947 99.6881 37.0947 99.6931 37.0947C99.6982 37.0947 99.7033 37.0947 99.7083 37.0947C99.7134 37.0947 99.7184 37.0947 99.7235 37.0947C99.7285 37.0947 99.7335 37.0947 99.7386 37.0947C99.7436 37.0947 99.7486 37.0947 99.7536 37.0947C99.7586 37.0947 99.7636 37.0947 99.7686 37.0947C99.7736 37.0947 99.7786 37.0947 99.7836 37.0947C99.7886 37.0947 99.7936 37.0947 99.7986 37.0947C99.8035 37.0947 99.8085 37.0947 99.8135 37.0947C99.8184 37.0947 99.8234 37.0947 99.8283 37.0947C99.8333 37.0947 99.8382 37.0947 99.8432 37.0947C99.8481 37.0947 99.853 37.0947 99.858 37.0947C99.8629 37.0947 99.8678 37.0947 99.8727 37.0947C99.8776 37.0947 99.8825 37.0947 99.8874 37.0947C99.8923 37.0947 99.8972 37.0947 99.9021 37.0947C99.907 37.0947 99.9119 37.0947 99.9167 37.0947C99.9216 37.0947 99.9265 37.0947 99.9313 37.0947C99.9362 37.0947 99.941 37.0947 99.9459 37.0947C99.9507 37.0947 99.9556 37.0947 99.9604 37.0947C99.9652 37.0947 99.9701 37.0947 99.9749 37.0947C99.9797 37.0947 99.9845 37.0947 99.9893 37.0947C99.9941 37.0947 99.9989 37.0947 100.004 37.0947C100.009 37.0947 100.013 37.0947 100.018 37.0947C100.023 37.0947 100.028 37.0947 100.032 37.0947C100.037 37.0947 100.042 37.0947 100.047 37.0947C100.051 37.0947 100.056 37.0947 100.061 37.0947C100.066 37.0947 100.07 37.0947 100.075 37.0947C100.08 37.0947 100.085 37.0947 100.089 37.0947C100.094 37.0947 100.099 37.0947 100.104 37.0947C100.108 37.0947 100.113 37.0947 100.118 37.0947C100.122 37.0947 100.127 37.0947 100.132 37.0947C100.136 37.0947 100.141 37.0947 100.146 37.0947C100.15 37.0947 100.155 37.0947 100.16 37.0947C100.164 37.0947 100.169 37.0947 100.174 37.0947C100.178 37.0947 100.183 37.0947 100.188 37.0947C100.192 37.0947 100.197 37.0947 100.201 37.0947C100.206 37.0947 100.211 37.0947 100.215 37.0947C100.22 37.0947 100.224 37.0947 100.229 37.0947C100.234 37.0947 100.238 37.0947 100.243 37.0947C100.247 37.0947 100.252 37.0947 100.257 37.0947C100.261 37.0947 100.266 37.0947 100.27 37.0947C100.275 37.0947 100.279 37.0947 100.284 37.0947C100.288 37.0947 100.293 37.0947 100.297 37.0947C100.302 37.0947 100.306 37.0947 100.311 37.0947C100.316 37.0947 100.32 37.0947 100.325 37.0947C100.329 37.0947 100.334 37.0947 100.338 37.0947C100.343 37.0947 100.347 37.0947 100.351 37.0947C100.356 37.0947 100.36 37.0947 100.365 37.0947C100.369 37.0947 100.374 37.0947 100.378 37.0947C100.383 37.0947 100.387 37.0947 100.392 37.0947C100.396 37.0947 100.4 37.0947 100.405 37.0947C100.409 37.0947 100.414 37.0947 100.418 37.0947C100.423 37.0947 100.427 37.0947 100.431 37.0947C100.436 37.0947 100.44 37.0947 100.445 37.0947C100.449 37.0947 100.453 37.0947 100.458 37.0947C100.462 37.0947 100.467 37.0947 100.471 37.0947C100.475 37.0947 100.48 37.0947 100.484 37.0947C100.488 37.0947 100.493 37.0947 100.497 37.0947C100.501 37.0947 100.506 37.0947 100.51 37.0947C100.514 37.0947 100.519 37.0947 100.523 37.0947C100.527 37.0947 100.532 37.0947 100.536 37.0947C100.54 37.0947 100.545 37.0947 100.549 37.0947C100.553 37.0947 100.557 37.0947 100.562 37.0947C100.566 37.0947 100.57 37.0947 100.574 37.0947C100.579 37.0947 100.583 37.0947 100.587 37.0947C100.592 37.0947 100.596 37.0947 100.6 37.0947C100.604 37.0947 100.608 37.0947 100.613 37.0947C100.617 37.0947 100.621 37.0947 100.625 37.0947C100.63 37.0947 100.634 37.0947 100.638 37.0947C100.642 37.0947 100.646 37.0947 100.651 37.0947C100.655 37.0947 100.659 37.0947 100.663 37.0947C100.667 37.0947 100.672 37.0947 100.676 37.0947C100.68 37.0947 100.684 37.0947 100.688 37.0947C100.692 37.0947 100.697 37.0947 100.701 37.0947C100.705 37.0947 100.709 37.0947 100.713 37.0947C100.717 37.0947 100.721 37.0947 100.725 37.0947C100.73 37.0947 100.734 37.0947 100.738 37.0947C100.742 37.0947 100.746 37.0947 100.75 37.0947C100.754 37.0947 100.758 37.0947 100.762 37.0947C100.766 37.0947 100.771 37.0947 100.775 37.0947C100.779 37.0947 100.783 37.0947 100.787 37.0947C100.791 37.0947 100.795 37.0947 100.799 37.0947C100.803 37.0947 100.807 37.0947 100.811 37.0947C100.815 37.0947 100.819 37.0947 100.823 37.0947C100.827 37.0947 100.831 37.0947 100.835 37.0947C100.839 37.0947 100.843 37.0947 100.847 37.0947C100.851 37.0947 100.855 37.0947 100.859 37.0947C100.863 37.0947 100.867 37.0947 100.871 37.0947C100.875 37.0947 100.879 37.0947 100.883 37.0947C100.887 37.0947 100.891 37.0947 100.895 37.0947C100.899 37.0947 100.903 37.0947 100.907 37.0947C100.911 37.0947 100.915 37.0947 100.918 37.0947C100.922 37.0947 100.926 37.0947 100.93 37.0947C100.934 37.0947 100.938 37.0947 100.942 37.0947C100.946 37.0947 100.95 37.0947 100.954 37.0947C100.958 37.0947 100.961 37.0947 100.965 37.0947C100.969 37.0947 100.973 37.0947 100.977 37.0947C100.981 37.0947 100.985 37.0947 100.988 37.0947C100.992 37.0947 100.996 37.0947 101 37.0947C101.004 37.0947 101.008 37.0947 101.012 37.0947C101.015 37.0947 101.019 37.0947 101.023 37.0947C101.027 37.0947 101.031 37.0947 101.034 37.0947C101.038 37.0947 101.042 37.0947 101.046 37.0947C101.05 37.0947 101.053 37.0947 101.057 37.0947C101.061 37.0947 101.065 37.0947 101.068 37.0947C101.072 37.0947 101.076 37.0947 101.08 37.0947C101.084 37.0947 101.087 37.0947 101.091 37.0947C101.095 37.0947 101.099 37.0947 101.102 37.0947C101.106 37.0947 101.11 37.0947 101.113 37.0947C101.117 37.0947 101.121 37.0947 101.125 37.0947C101.128 37.0947 101.132 37.0947 101.136 37.0947C101.139 37.0947 101.143 37.0947 101.147 37.0947C101.15 37.0947 101.154 37.0947 101.158 37.0947C101.161 37.0947 101.165 37.0947 101.169 37.0947C101.172 37.0947 101.176 37.0947 101.18 37.0947C101.183 37.0947 101.187 37.0947 101.191 37.0947C101.194 37.0947 101.198 37.0947 101.202 37.0947C101.205 37.0947 101.209 37.0947 101.212 37.0947C101.216 37.0947 101.22 37.0947 101.223 37.0947C101.227 37.0947 101.23 37.0947 101.234 37.0947C101.238 37.0947 101.241 37.0947 101.245 37.0947C101.248 37.0947 101.252 37.0947 101.255 37.0947C101.259 37.0947 101.263 37.0947 101.266 37.0947C101.27 37.0947 101.273 37.0947 101.277 37.0947C101.28 37.0947 101.284 37.0947 101.287 37.0947C101.291 37.0947 101.294 37.0947 101.298 37.0947C101.302 37.0947 101.305 37.0947 101.309 37.0947C101.312 37.0947 101.316 37.0947 101.319 37.0947C101.323 37.0947 101.326 37.0947 101.33 37.0947C101.333 37.0947 101.336 37.0947 101.34 37.0947C101.343 37.0947 101.347 37.0947 101.35 37.0947C101.354 37.0947 101.357 37.0947 101.361 37.0947C101.364 37.0947 101.368 37.0947 101.371 37.0947C101.374 37.0947 101.378 37.0947 101.381 37.0947C101.385 37.0947 101.388 37.0947 101.392 37.0947C101.395 37.0947 101.398 37.0947 101.402 37.0947C101.405 37.0947 101.409 37.0947 101.412 37.0947C101.415 37.0947 101.419 37.0947 101.422 37.0947C101.426 37.0947 101.429 37.0947 101.432 37.0947C101.436 37.0947 101.439 37.0947 101.442 37.0947C101.446 37.0947 101.449 37.0947 101.452 37.0947C101.456 37.0947 101.459 37.0947 101.462 37.0947C101.466 37.0947 101.469 37.0947 101.472 37.0947C101.476 37.0947 101.479 37.0947 101.482 37.0947C101.486 37.0947 101.489 37.0947 101.492 37.0947C101.496 37.0947 101.499 37.0947 101.502 37.0947C101.505 37.0947 101.509 37.0947 101.512 37.0947C101.515 37.0947 101.518 37.0947 101.522 37.0947C101.525 37.0947 101.528 37.0947 101.531 37.0947C101.535 37.0947 101.538 37.0947 101.541 37.0947C101.544 37.0947 101.548 37.0947 101.551 37.0947C101.554 37.0947 101.557 37.0947 101.561 37.0947C101.564 37.0947 101.567 37.0947 101.57 37.0947C101.573 37.0947 101.577 37.0947 101.58 37.0947C101.583 37.0947 101.586 37.0947 101.589 37.0947C101.593 37.0947 101.596 37.0947 101.599 37.0947C101.602 37.0947 101.605 37.0947 101.608 37.0947C101.612 37.0947 101.615 37.0947 101.618 37.0947C101.621 37.0947 101.624 37.0947 101.627 37.0947C101.63 37.0947 101.634 37.0947 101.637 37.0947C101.64 37.0947 101.643 37.0947 101.646 37.0947C101.649 37.0947 101.652 37.0947 101.655 37.0947C101.658 37.0947 101.662 37.0947 101.665 37.0947C101.668 37.0947 101.671 37.0947 101.674 37.0947C101.677 37.0947 101.68 37.0947 101.683 37.0947C101.686 37.0947 101.689 37.0947 101.692 37.0947V35.0947C101.689 35.0947 101.686 35.0947 101.683 35.0947C101.68 35.0947 101.677 35.0947 101.674 35.0947C101.671 35.0947 101.668 35.0947 101.665 35.0947C101.662 35.0947 101.658 35.0947 101.655 35.0947C101.652 35.0947 101.649 35.0947 101.646 35.0947C101.643 35.0947 101.64 35.0947 101.637 35.0947C101.634 35.0947 101.63 35.0947 101.627 35.0947C101.624 35.0947 101.621 35.0947 101.618 35.0947C101.615 35.0947 101.612 35.0947 101.608 35.0947C101.605 35.0947 101.602 35.0947 101.599 35.0947C101.596 35.0947 101.593 35.0947 101.589 35.0947C101.586 35.0947 101.583 35.0947 101.58 35.0947C101.577 35.0947 101.573 35.0947 101.57 35.0947C101.567 35.0947 101.564 35.0947 101.561 35.0947C101.557 35.0947 101.554 35.0947 101.551 35.0947C101.548 35.0947 101.544 35.0947 101.541 35.0947C101.538 35.0947 101.535 35.0947 101.531 35.0947C101.528 35.0947 101.525 35.0947 101.522 35.0947C101.518 35.0947 101.515 35.0947 101.512 35.0947C101.509 35.0947 101.505 35.0947 101.502 35.0947C101.499 35.0947 101.496 35.0947 101.492 35.0947C101.489 35.0947 101.486 35.0947 101.482 35.0947C101.479 35.0947 101.476 35.0947 101.472 35.0947C101.469 35.0947 101.466 35.0947 101.462 35.0947C101.459 35.0947 101.456 35.0947 101.452 35.0947C101.449 35.0947 101.446 35.0947 101.442 35.0947C101.439 35.0947 101.436 35.0947 101.432 35.0947C101.429 35.0947 101.426 35.0947 101.422 35.0947C101.419 35.0947 101.415 35.0947 101.412 35.0947C101.409 35.0947 101.405 35.0947 101.402 35.0947C101.398 35.0947 101.395 35.0947 101.392 35.0947C101.388 35.0947 101.385 35.0947 101.381 35.0947C101.378 35.0947 101.374 35.0947 101.371 35.0947C101.368 35.0947 101.364 35.0947 101.361 35.0947C101.357 35.0947 101.354 35.0947 101.35 35.0947C101.347 35.0947 101.343 35.0947 101.34 35.0947C101.336 35.0947 101.333 35.0947 101.33 35.0947C101.326 35.0947 101.323 35.0947 101.319 35.0947C101.316 35.0947 101.312 35.0947 101.309 35.0947C101.305 35.0947 101.302 35.0947 101.298 35.0947C101.294 35.0947 101.291 35.0947 101.287 35.0947C101.284 35.0947 101.28 35.0947 101.277 35.0947C101.273 35.0947 101.27 35.0947 101.266 35.0947C101.263 35.0947 101.259 35.0947 101.255 35.0947C101.252 35.0947 101.248 35.0947 101.245 35.0947C101.241 35.0947 101.238 35.0947 101.234 35.0947C101.23 35.0947 101.227 35.0947 101.223 35.0947C101.22 35.0947 101.216 35.0947 101.212 35.0947C101.209 35.0947 101.205 35.0947 101.202 35.0947C101.198 35.0947 101.194 35.0947 101.191 35.0947C101.187 35.0947 101.183 35.0947 101.18 35.0947C101.176 35.0947 101.172 35.0947 101.169 35.0947C101.165 35.0947 101.161 35.0947 101.158 35.0947C101.154 35.0947 101.15 35.0947 101.147 35.0947C101.143 35.0947 101.139 35.0947 101.136 35.0947C101.132 35.0947 101.128 35.0947 101.125 35.0947C101.121 35.0947 101.117 35.0947 101.113 35.0947C101.11 35.0947 101.106 35.0947 101.102 35.0947C101.099 35.0947 101.095 35.0947 101.091 35.0947C101.087 35.0947 101.084 35.0947 101.08 35.0947C101.076 35.0947 101.072 35.0947 101.068 35.0947C101.065 35.0947 101.061 35.0947 101.057 35.0947C101.053 35.0947 101.05 35.0947 101.046 35.0947C101.042 35.0947 101.038 35.0947 101.034 35.0947C101.031 35.0947 101.027 35.0947 101.023 35.0947C101.019 35.0947 101.015 35.0947 101.012 35.0947C101.008 35.0947 101.004 35.0947 101 35.0947C100.996 35.0947 100.992 35.0947 100.988 35.0947C100.985 35.0947 100.981 35.0947 100.977 35.0947C100.973 35.0947 100.969 35.0947 100.965 35.0947C100.961 35.0947 100.958 35.0947 100.954 35.0947C100.95 35.0947 100.946 35.0947 100.942 35.0947C100.938 35.0947 100.934 35.0947 100.93 35.0947C100.926 35.0947 100.922 35.0947 100.918 35.0947C100.915 35.0947 100.911 35.0947 100.907 35.0947C100.903 35.0947 100.899 35.0947 100.895 35.0947C100.891 35.0947 100.887 35.0947 100.883 35.0947C100.879 35.0947 100.875 35.0947 100.871 35.0947C100.867 35.0947 100.863 35.0947 100.859 35.0947C100.855 35.0947 100.851 35.0947 100.847 35.0947C100.843 35.0947 100.839 35.0947 100.835 35.0947C100.831 35.0947 100.827 35.0947 100.823 35.0947C100.819 35.0947 100.815 35.0947 100.811 35.0947C100.807 35.0947 100.803 35.0947 100.799 35.0947C100.795 35.0947 100.791 35.0947 100.787 35.0947C100.783 35.0947 100.779 35.0947 100.775 35.0947C100.771 35.0947 100.766 35.0947 100.762 35.0947C100.758 35.0947 100.754 35.0947 100.75 35.0947C100.746 35.0947 100.742 35.0947 100.738 35.0947C100.734 35.0947 100.73 35.0947 100.725 35.0947C100.721 35.0947 100.717 35.0947 100.713 35.0947C100.709 35.0947 100.705 35.0947 100.701 35.0947C100.697 35.0947 100.692 35.0947 100.688 35.0947C100.684 35.0947 100.68 35.0947 100.676 35.0947C100.672 35.0947 100.667 35.0947 100.663 35.0947C100.659 35.0947 100.655 35.0947 100.651 35.0947C100.646 35.0947 100.642 35.0947 100.638 35.0947C100.634 35.0947 100.63 35.0947 100.625 35.0947C100.621 35.0947 100.617 35.0947 100.613 35.0947C100.608 35.0947 100.604 35.0947 100.6 35.0947C100.596 35.0947 100.592 35.0947 100.587 35.0947C100.583 35.0947 100.579 35.0947 100.574 35.0947C100.57 35.0947 100.566 35.0947 100.562 35.0947C100.557 35.0947 100.553 35.0947 100.549 35.0947C100.545 35.0947 100.54 35.0947 100.536 35.0947C100.532 35.0947 100.527 35.0947 100.523 35.0947C100.519 35.0947 100.514 35.0947 100.51 35.0947C100.506 35.0947 100.501 35.0947 100.497 35.0947C100.493 35.0947 100.488 35.0947 100.484 35.0947C100.48 35.0947 100.475 35.0947 100.471 35.0947C100.467 35.0947 100.462 35.0947 100.458 35.0947C100.453 35.0947 100.449 35.0947 100.445 35.0947C100.44 35.0947 100.436 35.0947 100.431 35.0947C100.427 35.0947 100.423 35.0947 100.418 35.0947C100.414 35.0947 100.409 35.0947 100.405 35.0947C100.4 35.0947 100.396 35.0947 100.392 35.0947C100.387 35.0947 100.383 35.0947 100.378 35.0947C100.374 35.0947 100.369 35.0947 100.365 35.0947C100.36 35.0947 100.356 35.0947 100.351 35.0947C100.347 35.0947 100.343 35.0947 100.338 35.0947C100.334 35.0947 100.329 35.0947 100.325 35.0947C100.32 35.0947 100.316 35.0947 100.311 35.0947C100.306 35.0947 100.302 35.0947 100.297 35.0947C100.293 35.0947 100.288 35.0947 100.284 35.0947C100.279 35.0947 100.275 35.0947 100.27 35.0947C100.266 35.0947 100.261 35.0947 100.257 35.0947C100.252 35.0947 100.247 35.0947 100.243 35.0947C100.238 35.0947 100.234 35.0947 100.229 35.0947C100.224 35.0947 100.22 35.0947 100.215 35.0947C100.211 35.0947 100.206 35.0947 100.201 35.0947C100.197 35.0947 100.192 35.0947 100.188 35.0947C100.183 35.0947 100.178 35.0947 100.174 35.0947C100.169 35.0947 100.164 35.0947 100.16 35.0947C100.155 35.0947 100.15 35.0947 100.146 35.0947C100.141 35.0947 100.136 35.0947 100.132 35.0947C100.127 35.0947 100.122 35.0947 100.118 35.0947C100.113 35.0947 100.108 35.0947 100.104 35.0947C100.099 35.0947 100.094 35.0947 100.089 35.0947C100.085 35.0947 100.08 35.0947 100.075 35.0947C100.07 35.0947 100.066 35.0947 100.061 35.0947C100.056 35.0947 100.051 35.0947 100.047 35.0947C100.042 35.0947 100.037 35.0947 100.032 35.0947C100.028 35.0947 100.023 35.0947 100.018 35.0947C100.013 35.0947 100.009 35.0947 100.004 35.0947C99.9989 35.0947 99.9941 35.0947 99.9893 35.0947C99.9845 35.0947 99.9797 35.0947 99.9749 35.0947C99.9701 35.0947 99.9652 35.0947 99.9604 35.0947C99.9556 35.0947 99.9507 35.0947 99.9459 35.0947C99.941 35.0947 99.9362 35.0947 99.9313 35.0947C99.9265 35.0947 99.9216 35.0947 99.9167 35.0947C99.9119 35.0947 99.907 35.0947 99.9021 35.0947C99.8972 35.0947 99.8923 35.0947 99.8874 35.0947C99.8825 35.0947 99.8776 35.0947 99.8727 35.0947C99.8678 35.0947 99.8629 35.0947 99.858 35.0947C99.853 35.0947 99.8481 35.0947 99.8432 35.0947C99.8382 35.0947 99.8333 35.0947 99.8283 35.0947C99.8234 35.0947 99.8184 35.0947 99.8135 35.0947C99.8085 35.0947 99.8035 35.0947 99.7986 35.0947C99.7936 35.0947 99.7886 35.0947 99.7836 35.0947C99.7786 35.0947 99.7736 35.0947 99.7686 35.0947C99.7636 35.0947 99.7586 35.0947 99.7536 35.0947C99.7486 35.0947 99.7436 35.0947 99.7386 35.0947C99.7335 35.0947 99.7285 35.0947 99.7235 35.0947C99.7184 35.0947 99.7134 35.0947 99.7083 35.0947C99.7033 35.0947 99.6982 35.0947 99.6931 35.0947C99.6881 35.0947 99.683 35.0947 99.6779 35.0947C99.6728 35.0947 99.6678 35.0947 99.6627 35.0947C99.6576 35.0947 99.6525 35.0947 99.6474 35.0947C99.6423 35.0947 99.6372 35.0947 99.632 35.0947C99.6269 35.0947 99.6218 35.0947 99.6167 35.0947C99.6115 35.0947 99.6064 35.0947 99.6013 35.0947C99.5961 35.0947 99.591 35.0947 99.5858 35.0947C99.5807 35.0947 99.5755 35.0947 99.5703 35.0947C99.5652 35.0947 99.56 35.0947 99.5548 35.0947C99.5496 35.0947 99.5444 35.0947 99.5392 35.0947C99.534 35.0947 99.5288 35.0947 99.5236 35.0947C99.5184 35.0947 99.5132 35.0947 99.508 35.0947C99.5027 35.0947 99.4975 35.0947 99.4923 35.0947C99.487 35.0947 99.4818 35.0947 99.4766 35.0947C99.4713 35.0947 99.4661 35.0947 99.4608 35.0947C99.4555 35.0947 99.4503 35.0947 99.445 35.0947C99.4397 35.0947 99.4344 35.0947 99.4291 35.0947C99.4239 35.0947 99.4186 35.0947 99.4133 35.0947C99.408 35.0947 99.4027 35.0947 99.3973 35.0947C99.392 35.0947 99.3867 35.0947 99.3814 35.0947C99.3761 35.0947 99.3707 35.0947 99.3654 35.0947C99.36 35.0947 99.3547 35.0947 99.3493 35.0947C99.344 35.0947 99.3386 35.0947 99.3333 35.0947C99.3279 35.0947 99.3225 35.0947 99.3171 35.0947C99.3118 35.0947 99.3064 35.0947 99.301 35.0947C99.2956 35.0947 99.2902 35.0947 99.2848 35.0947C99.2794 35.0947 99.274 35.0947 99.2685 35.0947C99.2631 35.0947 99.2577 35.0947 99.2523 35.0947C99.2468 35.0947 99.2414 35.0947 99.2359 35.0947C99.2305 35.0947 99.225 35.0947 99.2196 35.0947C99.2141 35.0947 99.2087 35.0947 99.2032 35.0947C99.1977 35.0947 99.1922 35.0947 99.1867 35.0947C99.1813 35.0947 99.1758 35.0947 99.1703 35.0947C99.1648 35.0947 99.1593 35.0947 99.1538 35.0947C99.1482 35.0947 99.1427 35.0947 99.1372 35.0947C99.1317 35.0947 99.1261 35.0947 99.1206 35.0947C99.1151 35.0947 99.1095 35.0947 99.104 35.0947C99.0984 35.0947 99.0928 35.0947 99.0873 35.0947C99.0817 35.0947 99.0761 35.0947 99.0706 35.0947C99.065 35.0947 99.0594 35.0947 99.0538 35.0947C99.0482 35.0947 99.0426 35.0947 99.037 35.0947C99.0314 35.0947 99.0258 35.0947 99.0202 35.0947C99.0145 35.0947 99.0089 35.0947 99.0033 35.0947C98.9977 35.0947 98.992 35.0947 98.9864 35.0947C98.9807 35.0947 98.9751 35.0947 98.9694 35.0947C98.9638 35.0947 98.9581 35.0947 98.9524 35.0947C98.9467 35.0947 98.9411 35.0947 98.9354 35.0947C98.9297 35.0947 98.924 35.0947 98.9183 35.0947C98.9126 35.0947 98.9069 35.0947 98.9012 35.0947C98.8955 35.0947 98.8897 35.0947 98.884 35.0947C98.8783 35.0947 98.8726 35.0947 98.8668 35.0947C98.8611 35.0947 98.8553 35.0947 98.8496 35.0947C98.8438 35.0947 98.8381 35.0947 98.8323 35.0947C98.8265 35.0947 98.8208 35.0947 98.815 35.0947C98.8092 35.0947 98.8034 35.0947 98.7976 35.0947C98.7918 35.0947 98.786 35.0947 98.7802 35.0947C98.7744 35.0947 98.7686 35.0947 98.7628 35.0947C98.7569 35.0947 98.7511 35.0947 98.7453 35.0947C98.7394 35.0947 98.7336 35.0947 98.7278 35.0947C98.7219 35.0947 98.7161 35.0947 98.7102 35.0947C98.7043 35.0947 98.6985 35.0947 98.6926 35.0947C98.6867 35.0947 98.6808 35.0947 98.6749 35.0947C98.6691 35.0947 98.6632 35.0947 98.6573 35.0947C98.6514 35.0947 98.6454 35.0947 98.6395 35.0947C98.6336 35.0947 98.6277 35.0947 98.6218 35.0947C98.6158 35.0947 98.6099 35.0947 98.604 35.0947C98.598 35.0947 98.5921 35.0947 98.5861 35.0947C98.5801 35.0947 98.5742 35.0947 98.5682 35.0947C98.5622 35.0947 98.5563 35.0947 98.5503 35.0947C98.5443 35.0947 98.5383 35.0947 98.5323 35.0947C98.5263 35.0947 98.5203 35.0947 98.5143 35.0947C98.5083 35.0947 98.5023 35.0947 98.4962 35.0947C98.4902 35.0947 98.4842 35.0947 98.4781 35.0947C98.4721 35.0947 98.4661 35.0947 98.46 35.0947C98.4539 35.0947 98.4479 35.0947 98.4418 35.0947C98.4358 35.0947 98.4297 35.0947 98.4236 35.0947C98.4175 35.0947 98.4114 35.0947 98.4053 35.0947C98.3993 35.0947 98.3932 35.0947 98.387 35.0947C98.3809 35.0947 98.3748 35.0947 98.3687 35.0947C98.3626 35.0947 98.3564 35.0947 98.3503 35.0947C98.3442 35.0947 98.338 35.0947 98.3319 35.0947C98.3257 35.0947 98.3196 35.0947 98.3134 35.0947C98.3073 35.0947 98.3011 35.0947 98.2949 35.0947C98.2887 35.0947 98.2826 35.0947 98.2764 35.0947C98.2702 35.0947 98.264 35.0947 98.2578 35.0947C98.2516 35.0947 98.2454 35.0947 98.2391 35.0947C98.2329 35.0947 98.2267 35.0947 98.2205 35.0947C98.2142 35.0947 98.208 35.0947 98.2018 35.0947C98.1955 35.0947 98.1893 35.0947 98.183 35.0947C98.1767 35.0947 98.1705 35.0947 98.1642 35.0947C98.1579 35.0947 98.1516 35.0947 98.1454 35.0947C98.1391 35.0947 98.1328 35.0947 98.1265 35.0947C98.1202 35.0947 98.1139 35.0947 98.1076 35.0947C98.1012 35.0947 98.0949 35.0947 98.0886 35.0947C98.0823 35.0947 98.0759 35.0947 98.0696 35.0947C98.0632 35.0947 98.0569 35.0947 98.0505 35.0947C98.0442 35.0947 98.0378 35.0947 98.0315 35.0947C98.0251 35.0947 98.0187 35.0947 98.0123 35.0947C98.0059 35.0947 97.9995 35.0947 97.9931 35.0947C97.9868 35.0947 97.9803 35.0947 97.9739 35.0947C97.9675 35.0947 97.9611 35.0947 97.9547 35.0947C97.9482 35.0947 97.9418 35.0947 97.9354 35.0947C97.9289 35.0947 97.9225 35.0947 97.916 35.0947C97.9096 35.0947 97.9031 35.0947 97.8967 35.0947C97.8902 35.0947 97.8837 35.0947 97.8772 35.0947C97.8708 35.0947 97.8643 35.0947 97.8578 35.0947C97.8513 35.0947 97.8448 35.0947 97.8383 35.0947C97.8317 35.0947 97.8252 35.0947 97.8187 35.0947C97.8122 35.0947 97.8057 35.0947 97.7991 35.0947C97.7926 35.0947 97.786 35.0947 97.7795 35.0947C97.7729 35.0947 97.7664 35.0947 97.7598 35.0947C97.7532 35.0947 97.7467 35.0947 97.7401 35.0947C97.7335 35.0947 97.7269 35.0947 97.7203 35.0947C97.7137 35.0947 97.7071 35.0947 97.7005 35.0947C97.6939 35.0947 97.6873 35.0947 97.6807 35.0947C97.6741 35.0947 97.6674 35.0947 97.6608 35.0947C97.6542 35.0947 97.6475 35.0947 97.6409 35.0947C97.6342 35.0947 97.6276 35.0947 97.6209 35.0947C97.6142 35.0947 97.6076 35.0947 97.6009 35.0947C97.5942 35.0947 97.5875 35.0947 97.5808 35.0947C97.5741 35.0947 97.5674 35.0947 97.5607 35.0947C97.554 35.0947 97.5473 35.0947 97.5406 35.0947C97.5339 35.0947 97.5271 35.0947 97.5204 35.0947C97.5137 35.0947 97.5069 35.0947 97.5002 35.0947C97.4934 35.0947 97.4867 35.0947 97.4799 35.0947C97.4731 35.0947 97.4664 35.0947 97.4596 35.0947C97.4528 35.0947 97.446 35.0947 97.4392 35.0947C97.4324 35.0947 97.4256 35.0947 97.4188 35.0947C97.412 35.0947 97.4052 35.0947 97.3984 35.0947C97.3916 35.0947 97.3848 35.0947 97.3779 35.0947C97.3711 35.0947 97.3642 35.0947 97.3574 35.0947C97.3505 35.0947 97.3437 35.0947 97.3368 35.0947C97.33 35.0947 97.3231 35.0947 97.3162 35.0947C97.3093 35.0947 97.3025 35.0947 97.2956 35.0947C97.2887 35.0947 97.2818 35.0947 97.2749 35.0947C97.268 35.0947 97.261 35.0947 97.2541 35.0947C97.2472 35.0947 97.2403 35.0947 97.2333 35.0947C97.2264 35.0947 97.2195 35.0947 97.2125 35.0947C97.2056 35.0947 97.1986 35.0947 97.1917 35.0947C97.1847 35.0947 97.1777 35.0947 97.1707 35.0947C97.1638 35.0947 97.1568 35.0947 97.1498 35.0947C97.1428 35.0947 97.1358 35.0947 97.1288 35.0947C97.1218 35.0947 97.1148 35.0947 97.1078 35.0947C97.1007 35.0947 97.0937 35.0947 97.0867 35.0947C97.0796 35.0947 97.0726 35.0947 97.0655 35.0947C97.0585 35.0947 97.0514 35.0947 97.0444 35.0947C97.0373 35.0947 97.0302 35.0947 97.0232 35.0947C97.0161 35.0947 97.009 35.0947 97.0019 35.0947C96.9948 35.0947 96.9877 35.0947 96.9806 35.0947C96.9735 35.0947 96.9664 35.0947 96.9593 35.0947C96.9521 35.0947 96.945 35.0947 96.9379 35.0947C96.9307 35.0947 96.9236 35.0947 96.9165 35.0947C96.9093 35.0947 96.9021 35.0947 96.895 35.0947C96.8878 35.0947 96.8806 35.0947 96.8735 35.0947C96.8663 35.0947 96.8591 35.0947 96.8519 35.0947C96.8447 35.0947 96.8375 35.0947 96.8303 35.0947C96.8231 35.0947 96.8159 35.0947 96.8087 35.0947C96.8014 35.0947 96.7942 35.0947 96.787 35.0947C96.7797 35.0947 96.7725 35.0947 96.7652 35.0947C96.758 35.0947 96.7507 35.0947 96.7435 35.0947C96.7362 35.0947 96.7289 35.0947 96.7216 35.0947C96.7144 35.0947 96.7071 35.0947 96.6998 35.0947C96.6925 35.0947 96.6852 35.0947 96.6779 35.0947C96.6706 35.0947 96.6633 35.0947 96.6559 35.0947C96.6486 35.0947 96.6413 35.0947 96.6339 35.0947C96.6266 35.0947 96.6193 35.0947 96.6119 35.0947C96.6045 35.0947 96.5972 35.0947 96.5898 35.0947C96.5825 35.0947 96.5751 35.0947 96.5677 35.0947C96.5603 35.0947 96.5529 35.0947 96.5455 35.0947C96.5381 35.0947 96.5307 35.0947 96.5233 35.0947C96.5159 35.0947 96.5085 35.0947 96.5011 35.0947C96.4936 35.0947 96.4862 35.0947 96.4788 35.0947C96.4713 35.0947 96.4639 35.0947 96.4564 35.0947C96.449 35.0947 96.4415 35.0947 96.434 35.0947C96.4266 35.0947 96.4191 35.0947 96.4116 35.0947C96.4041 35.0947 96.3966 35.0947 96.3891 35.0947C96.3816 35.0947 96.3741 35.0947 96.3666 35.0947C96.3591 35.0947 96.3516 35.0947 96.344 35.0947C96.3365 35.0947 96.329 35.0947 96.3214 35.0947C96.3139 35.0947 96.3063 35.0947 96.2988 35.0947C96.2912 35.0947 96.2836 35.0947 96.2761 35.0947C96.2685 35.0947 96.2609 35.0947 96.2533 35.0947C96.2457 35.0947 96.2381 35.0947 96.2305 35.0947C96.2229 35.0947 96.2153 35.0947 96.2077 35.0947C96.2001 35.0947 96.1925 35.0947 96.1848 35.0947C96.1772 35.0947 96.1696 35.0947 96.1619 35.0947C96.1543 35.0947 96.1466 35.0947 96.139 35.0947C96.1313 35.0947 96.1236 35.0947 96.116 35.0947C96.1083 35.0947 96.1006 35.0947 96.0929 35.0947C96.0852 35.0947 96.0775 35.0947 96.0698 35.0947C96.0621 35.0947 96.0544 35.0947 96.0467 35.0947C96.0389 35.0947 96.0312 35.0947 96.0235 35.0947C96.0158 35.0947 96.008 35.0947 96.0003 35.0947C95.9925 35.0947 95.9847 35.0947 95.977 35.0947C95.9692 35.0947 95.9614 35.0947 95.9537 35.0947C95.9459 35.0947 95.9381 35.0947 95.9303 35.0947C95.9225 35.0947 95.9147 35.0947 95.9069 35.0947C95.8991 35.0947 95.8913 35.0947 95.8834 35.0947C95.8756 35.0947 95.8678 35.0947 95.8599 35.0947C95.8521 35.0947 95.8443 35.0947 95.8364 35.0947C95.8286 35.0947 95.8207 35.0947 95.8128 35.0947C95.805 35.0947 95.7971 35.0947 95.7892 35.0947C95.7813 35.0947 95.7734 35.0947 95.7655 35.0947C95.7576 35.0947 95.7497 35.0947 95.7418 35.0947C95.7339 35.0947 95.726 35.0947 95.718 35.0947C95.7101 35.0947 95.7022 35.0947 95.6942 35.0947C95.6863 35.0947 95.6783 35.0947 95.6704 35.0947C95.6624 35.0947 95.6544 35.0947 95.6465 35.0947C95.6385 35.0947 95.6305 35.0947 95.6225 35.0947C95.6145 35.0947 95.6065 35.0947 95.5985 35.0947C95.5905 35.0947 95.5825 35.0947 95.5745 35.0947C95.5665 35.0947 95.5585 35.0947 95.5504 35.0947C95.5424 35.0947 95.5343 35.0947 95.5263 35.0947C95.5182 35.0947 95.5102 35.0947 95.5021 35.0947C95.4941 35.0947 95.486 35.0947 95.4779 35.0947C95.4698 35.0947 95.4617 35.0947 95.4537 35.0947C95.4456 35.0947 95.4375 35.0947 95.4293 35.0947C95.4212 35.0947 95.4131 35.0947 95.405 35.0947C95.3969 35.0947 95.3887 35.0947 95.3806 35.0947C95.3725 35.0947 95.3643 35.0947 95.3562 35.0947C95.348 35.0947 95.3398 35.0947 95.3317 35.0947C95.3235 35.0947 95.3153 35.0947 95.3071 35.0947C95.299 35.0947 95.2908 35.0947 95.2826 35.0947C95.2744 35.0947 95.2662 35.0947 95.2579 35.0947C95.2497 35.0947 95.2415 35.0947 95.2333 35.0947C95.225 35.0947 95.2168 35.0947 95.2086 35.0947C95.2003 35.0947 95.1921 35.0947 95.1838 35.0947C95.1755 35.0947 95.1673 35.0947 95.159 35.0947C95.1507 35.0947 95.1424 35.0947 95.1341 35.0947C95.1259 35.0947 95.1176 35.0947 95.1093 35.0947C95.1009 35.0947 95.0926 35.0947 95.0843 35.0947C95.076 35.0947 95.0677 35.0947 95.0593 35.0947C95.051 35.0947 95.0426 35.0947 95.0343 35.0947C95.0259 35.0947 95.0176 35.0947 95.0092 35.0947C95.0008 35.0947 94.9925 35.0947 94.9841 35.0947C94.9757 35.0947 94.9673 35.0947 94.9589 35.0947C94.9505 35.0947 94.9421 35.0947 94.9337 35.0947C94.9253 35.0947 94.9169 35.0947 94.9084 35.0947C94.9 35.0947 94.8916 35.0947 94.8831 35.0947C94.8747 35.0947 94.8662 35.0947 94.8578 35.0947C94.8493 35.0947 94.8409 35.0947 94.8324 35.0947C94.8239 35.0947 94.8154 35.0947 94.8069 35.0947C94.7985 35.0947 94.79 35.0947 94.7815 35.0947C94.7729 35.0947 94.7644 35.0947 94.7559 35.0947C94.7474 35.0947 94.7389 35.0947 94.7303 35.0947C94.7218 35.0947 94.7133 35.0947 94.7047 35.0947C94.6962 35.0947 94.6876 35.0947 94.679 35.0947C94.6705 35.0947 94.6619 35.0947 94.6533 35.0947C94.6447 35.0947 94.6361 35.0947 94.6275 35.0947C94.6189 35.0947 94.6103 35.0947 94.6017 35.0947C94.5931 35.0947 94.5845 35.0947 94.5759 35.0947C94.5672 35.0947 94.5586 35.0947 94.55 35.0947C94.5413 35.0947 94.5327 35.0947 94.524 35.0947C94.5154 35.0947 94.5067 35.0947 94.498 35.0947C94.4893 35.0947 94.4807 35.0947 94.472 35.0947C94.4633 35.0947 94.4546 35.0947 94.4459 35.0947C94.4372 35.0947 94.4285 35.0947 94.4198 35.0947C94.411 35.0947 94.4023 35.0947 94.3936 35.0947C94.3848 35.0947 94.3761 35.0947 94.3673 35.0947C94.3586 35.0947 94.3498 35.0947 94.3411 35.0947C94.3323 35.0947 94.3235 35.0947 94.3147 35.0947C94.306 35.0947 94.2972 35.0947 94.2884 35.0947C94.2796 35.0947 94.2708 35.0947 94.262 35.0947C94.2531 35.0947 94.2443 35.0947 94.2355 35.0947C94.2267 35.0947 94.2178 35.0947 94.209 35.0947C94.2001 35.0947 94.1913 35.0947 94.1824 35.0947C94.1736 35.0947 94.1647 35.0947 94.1558 35.0947C94.147 35.0947 94.1381 35.0947 94.1292 35.0947C94.1203 35.0947 94.1114 35.0947 94.1025 35.0947C94.0936 35.0947 94.0847 35.0947 94.0757 35.0947C94.0668 35.0947 94.0579 35.0947 94.049 35.0947C94.04 35.0947 94.0311 35.0947 94.0221 35.0947C94.0132 35.0947 94.0042 35.0947 93.9952 35.0947C93.9863 35.0947 93.9773 35.0947 93.9683 35.0947C93.9593 35.0947 93.9503 35.0947 93.9413 35.0947C93.9323 35.0947 93.9233 35.0947 93.9143 35.0947C93.9053 35.0947 93.8963 35.0947 93.8872 35.0947C93.8782 35.0947 93.8692 35.0947 93.8601 35.0947C93.8511 35.0947 93.842 35.0947 93.833 35.0947C93.8239 35.0947 93.8148 35.0947 93.8058 35.0947C93.7967 35.0947 93.7876 35.0947 93.7785 35.0947C93.7694 35.0947 93.7603 35.0947 93.7512 35.0947C93.7421 35.0947 93.733 35.0947 93.7238 35.0947C93.7147 35.0947 93.7056 35.0947 93.6964 35.0947C93.6873 35.0947 93.6782 35.0947 93.669 35.0947C93.6598 35.0947 93.6507 35.0947 93.6415 35.0947C93.6323 35.0947 93.6231 35.0947 93.614 35.0947C93.6048 35.0947 93.5956 35.0947 93.5864 35.0947C93.5772 35.0947 93.568 35.0947 93.5587 35.0947C93.5495 35.0947 93.5403 35.0947 93.5311 35.0947C93.5218 35.0947 93.5126 35.0947 93.5033 35.0947C93.4941 35.0947 93.4848 35.0947 93.4756 35.0947C93.4663 35.0947 93.457 35.0947 93.4477 35.0947C93.4384 35.0947 93.4292 35.0947 93.4199 35.0947C93.4106 35.0947 93.4012 35.0947 93.3919 35.0947C93.3826 35.0947 93.3733 35.0947 93.364 35.0947C93.3546 35.0947 93.3453 35.0947 93.336 35.0947C93.3266 35.0947 93.3173 35.0947 93.3079 35.0947C93.2985 35.0947 93.2892 35.0947 93.2798 35.0947C93.2704 35.0947 93.261 35.0947 93.2516 35.0947C93.2422 35.0947 93.2328 35.0947 93.2234 35.0947C93.214 35.0947 93.2046 35.0947 93.1952 35.0947C93.1857 35.0947 93.1763 35.0947 93.1669 35.0947C93.1574 35.0947 93.148 35.0947 93.1385 35.0947C93.1291 35.0947 93.1196 35.0947 93.1101 35.0947C93.1007 35.0947 93.0912 35.0947 93.0817 35.0947C93.0722 35.0947 93.0627 35.0947 93.0532 35.0947C93.0437 35.0947 93.0342 35.0947 93.0247 35.0947C93.0151 35.0947 93.0056 35.0947 92.9961 35.0947C92.9865 35.0947 92.977 35.0947 92.9674 35.0947C92.9579 35.0947 92.9483 35.0947 92.9388 35.0947C92.9292 35.0947 92.9196 35.0947 92.91 35.0947C92.9004 35.0947 92.8908 35.0947 92.8812 35.0947C92.8716 35.0947 92.862 35.0947 92.8524 35.0947C92.8428 35.0947 92.8332 35.0947 92.8235 35.0947C92.8139 35.0947 92.8043 35.0947 92.7946 35.0947C92.785 35.0947 92.7753 35.0947 92.7657 35.0947C92.756 35.0947 92.7463 35.0947 92.7366 35.0947C92.727 35.0947 92.7173 35.0947 92.7076 35.0947C92.6979 35.0947 92.6882 35.0947 92.6785 35.0947C92.6687 35.0947 92.659 35.0947 92.6493 35.0947C92.6396 35.0947 92.6298 35.0947 92.6201 35.0947C92.6103 35.0947 92.6006 35.0947 92.5908 35.0947C92.5811 35.0947 92.5713 35.0947 92.5615 35.0947C92.5517 35.0947 92.542 35.0947 92.5322 35.0947C92.5224 35.0947 92.5126 35.0947 92.5028 35.0947C92.4929 35.0947 92.4831 35.0947 92.4733 35.0947C92.4635 35.0947 92.4536 35.0947 92.4438 35.0947C92.434 35.0947 92.4241 35.0947 92.4142 35.0947C92.4044 35.0947 92.3945 35.0947 92.3847 35.0947C92.3748 35.0947 92.3649 35.0947 92.355 35.0947C92.3451 35.0947 92.3352 35.0947 92.3253 35.0947C92.3154 35.0947 92.3055 35.0947 92.2956 35.0947C92.2856 35.0947 92.2757 35.0947 92.2658 35.0947C92.2558 35.0947 92.2459 35.0947 92.2359 35.0947C92.226 35.0947 92.216 35.0947 92.206 35.0947C92.1961 35.0947 92.1861 35.0947 92.1761 35.0947C92.1661 35.0947 92.1561 35.0947 92.1461 35.0947C92.1361 35.0947 92.1261 35.0947 92.1161 35.0947C92.1061 35.0947 92.096 35.0947 92.086 35.0947C92.076 35.0947 92.0659 35.0947 92.0559 35.0947C92.0458 35.0947 92.0358 35.0947 92.0257 35.0947C92.0156 35.0947 92.0055 35.0947 91.9955 35.0947C91.9854 35.0947 91.9753 35.0947 91.9652 35.0947C91.9551 35.0947 91.945 35.0947 91.9348 35.0947C91.9247 35.0947 91.9146 35.0947 91.9045 35.0947C91.8943 35.0947 91.8842 35.0947 91.874 35.0947V37.0947ZM103.917 34.8677V20.8382H101.917V34.8677H103.917ZM52.5047 32.2454C55.8728 32.59 60.003 34.4424 61.477 38.8649L63.3744 38.2325C61.5569 32.7796 56.5091 30.6446 52.7082 30.2558L52.5047 32.2454ZM61.477 38.8649C62.8767 43.0643 62.0398 46.6882 61.6207 48.7998L63.5824 49.1891C63.9951 47.1095 64.9614 42.994 63.3744 38.2325L61.477 38.8649ZM102.786 18.9276C99.7408 17.3111 85.6903 10.6858 70.6086 17.389L71.421 19.2166C85.6174 12.9068 98.9284 19.1442 101.849 20.6942L102.786 18.9276ZM70.6086 17.389C62.7277 20.8919 58.0832 21.1935 55.0555 21.9758C53.5329 22.3691 52.2604 22.9316 51.4525 24.2959C50.7029 25.5617 50.4527 27.3699 50.3956 29.9305L52.3951 29.9752C52.4523 27.4102 52.7167 26.0862 53.1734 25.315C53.5717 24.6424 54.1972 24.2632 55.5558 23.9122C58.2904 23.2057 63.3412 22.8078 71.421 19.2166L70.6086 17.389ZM103.917 20.8382C103.917 20.0672 103.52 19.3167 102.786 18.9276L101.849 20.6942C101.868 20.7045 101.882 20.7182 101.894 20.7377C101.906 20.7586 101.917 20.792 101.917 20.8382H103.917ZM101.692 37.0947C102.924 37.0947 103.917 36.0954 103.917 34.8677H101.917C101.917 34.9953 101.815 35.0947 101.692 35.0947V37.0947ZM80.8831 51.2054C82.0847 51.2054 83.0242 50.2697 83.1384 49.1369L81.1485 48.9363C81.1309 49.1107 80.9954 49.2054 80.8831 49.2054V51.2054ZM52.7082 30.2558C52.6103 30.2458 52.5236 30.2002 52.4661 30.1398C52.4118 30.0828 52.3939 30.0261 52.3951 29.9752L50.3956 29.9305C50.3673 31.1974 51.3824 32.1306 52.5047 32.2454L52.7082 30.2558ZM63.6527 49.2054C63.5852 49.2054 63.5672 49.1805 63.5721 49.1861C63.574 49.1882 63.5776 49.1937 63.5797 49.2012C63.582 49.2097 63.5788 49.2077 63.5824 49.1891L61.6207 48.7998C61.3509 50.159 62.4246 51.2054 63.6527 51.2054V49.2054Z" fill="#292922"/>
<path d="M109.052 22.5967H104.144C103.467 22.5967 102.917 23.146 102.917 23.8237V31.7993C102.917 32.4769 103.467 33.0263 104.144 33.0263H109.052C109.73 33.0263 110.279 32.4769 110.279 31.7993V23.8237C110.279 23.146 109.73 22.5967 109.052 22.5967Z" fill="#292922"/>
<path d="M100.421 52.5284L92.8224 36.7883C92.6177 36.3642 92.1883 36.0947 91.7174 36.0947H90.3734C90.151 36.0947 89.9328 36.1552 89.7421 36.2696L87.1551 37.8218C87.03 37.8968 86.9193 37.9936 86.8282 38.1074L85.1351 40.2239C84.7721 40.6776 84.7772 41.3238 85.1473 41.7718L95.6758 54.5168C95.9769 54.8814 96.4606 55.0404 96.9193 54.9258L99.6136 54.2522C100.368 54.0635 100.759 53.229 100.421 52.5284Z" fill="#292922"/>
<line x1="62.4255" y1="97.4448" x2="62.4255" y2="130.574" stroke="#292922" stroke-width="2.45403" stroke-linecap="round"/>
<path d="M39.8571 196.023H41.5771V189.843H48.3171V188.403H41.5771V183.183H48.9971V181.743H39.8571V196.023ZM56.9782 185.823C56.7382 185.763 56.4582 185.743 56.1982 185.743C54.7182 185.743 53.4382 186.683 52.9982 188.343V185.963H51.3982V196.023H53.0582V191.063C53.0582 188.523 54.5182 187.263 56.1182 187.263C56.3782 187.263 56.7382 187.283 56.9782 187.343V185.823ZM67.1582 193.063H65.5982C65.1782 194.283 64.3582 194.943 62.9982 194.943C61.0782 194.943 59.8582 193.663 59.7782 191.343H67.2182V190.683C67.2182 188.103 65.8782 185.723 62.8982 185.723C60.2182 185.723 58.1582 187.763 58.1582 191.043C58.1582 194.283 60.1582 196.263 62.9982 196.263C64.9582 196.263 66.6982 195.203 67.1582 193.063ZM62.8982 187.063C64.6982 187.063 65.5582 188.403 65.5982 190.143H59.8382C60.1182 188.083 61.3182 187.063 62.8982 187.063ZM77.1305 199.583H78.7905V185.963H77.1905V187.803C76.7305 186.783 75.5305 185.723 73.7905 185.723C71.2305 185.723 69.3105 187.803 69.3105 191.003C69.3105 194.183 71.2305 196.263 73.7905 196.263C75.4505 196.263 76.6305 195.283 77.1305 194.263V199.583ZM77.2105 191.123C77.2105 193.403 76.0905 194.963 74.1305 194.963C72.1505 194.963 70.9905 193.343 70.9905 191.003C70.9905 188.643 72.1505 187.023 74.1305 187.023C76.0905 187.023 77.2105 188.563 77.2105 190.843V191.123ZM90.6352 196.023V185.963H88.9552V191.503C88.9552 193.923 87.8152 194.963 86.2952 194.963C84.7152 194.963 83.9352 193.983 83.9352 192.123V185.963H82.2552V192.443C82.2552 194.883 83.5352 196.263 85.8152 196.263C87.3352 196.263 88.5352 195.463 89.0152 194.203V196.023H90.6352ZM102.451 193.063H100.891C100.471 194.283 99.6511 194.943 98.2911 194.943C96.3711 194.943 95.1511 193.663 95.0711 191.343H102.511V190.683C102.511 188.103 101.171 185.723 98.1911 185.723C95.5111 185.723 93.4511 187.763 93.4511 191.043C93.4511 194.283 95.4511 196.263 98.2911 196.263C100.251 196.263 101.991 195.203 102.451 193.063ZM98.1911 187.063C99.9911 187.063 100.851 188.403 100.891 190.143H95.1311C95.4111 188.083 96.6111 187.063 98.1911 187.063ZM106.924 185.963H105.324V196.023H106.984V190.483C106.984 188.063 108.204 187.083 109.744 187.083C111.324 187.083 112.144 188.043 112.144 189.903V196.023H113.804V189.543C113.804 187.143 112.464 185.723 110.204 185.723C108.664 185.723 107.404 186.563 106.924 187.803V185.963ZM121.938 194.543C121.298 194.743 120.858 194.783 120.478 194.783C119.558 194.783 119.018 194.423 119.018 193.363V187.223H121.678V185.963H119.038V183.403H117.398V185.963H115.918V187.223H117.398V193.443C117.398 195.303 118.338 196.183 120.178 196.183C120.618 196.183 121.198 196.123 121.938 195.903V194.543ZM41.8508 220.863C41.8508 217.303 43.5508 214.963 46.4908 214.963C48.8908 214.963 49.9308 216.303 50.2508 217.903H51.9308C51.4708 215.303 49.6108 213.503 46.4908 213.503C42.8108 213.503 40.0908 216.383 40.0908 220.863C40.0908 225.363 42.8108 228.263 46.4908 228.263C49.6108 228.263 51.4708 226.463 51.9308 223.863H50.2508C49.9308 225.463 48.8908 226.803 46.4908 226.803C43.5508 226.803 41.8508 224.423 41.8508 220.863ZM56.2418 228.023V213.303H54.5818V228.023H56.2418ZM68.0566 225.063H66.4966C66.0766 226.283 65.2566 226.943 63.8966 226.943C61.9766 226.943 60.7566 225.663 60.6766 223.343H68.1166V222.683C68.1166 220.103 66.7766 217.723 63.7966 217.723C61.1166 217.723 59.0566 219.763 59.0566 223.043C59.0566 226.283 61.0566 228.263 63.8966 228.263C65.8566 228.263 67.5966 227.203 68.0566 225.063ZM63.7966 219.063C65.5966 219.063 66.4566 220.403 66.4966 222.143H60.7366C61.0166 220.083 62.2166 219.063 63.7966 219.063ZM77.3043 228.023H78.9643C78.7643 227.363 78.7243 226.663 78.7243 225.923V221.303C78.7243 218.883 77.2043 217.723 74.7643 217.723C72.6243 217.723 71.0243 218.883 70.8243 220.923H72.4243C72.5443 219.763 73.3843 219.063 74.7243 219.063C76.1043 219.063 77.0843 219.743 77.0843 221.343V221.923L73.8443 222.343C71.8043 222.583 70.3643 223.423 70.3643 225.363C70.3643 227.223 71.8643 228.243 73.6243 228.243C75.3043 228.243 76.6843 227.503 77.1243 226.323C77.1243 226.803 77.1843 227.463 77.3043 228.023ZM73.9643 226.983C72.7043 226.983 72.0443 226.263 72.0443 225.323C72.0443 223.963 73.0843 223.643 74.3443 223.463L77.0843 223.163V224.063C77.0843 226.003 75.5243 226.983 73.9643 226.983ZM83.7794 217.963H82.1794V228.023H83.8394V222.483C83.8394 220.063 85.0594 219.083 86.5994 219.083C88.1794 219.083 88.9994 220.043 88.9994 221.903V228.023H90.6594V221.543C90.6594 219.143 89.3194 217.723 87.0594 217.723C85.5194 217.723 84.2594 218.563 83.7794 219.803V217.963ZM93.993 215.863H95.873V213.843H93.993V215.863ZM94.113 228.023H95.773V217.963H94.113V228.023ZM100.928 217.963H99.3279V228.023H100.988V222.483C100.988 220.063 102.208 219.083 103.748 219.083C105.328 219.083 106.148 220.043 106.148 221.903V228.023H107.808V221.543C107.808 219.143 106.468 217.723 104.208 217.723C102.668 217.723 101.408 218.563 100.928 219.803V217.963ZM118.301 227.383C118.301 229.483 117.181 230.543 115.201 230.543C113.841 230.543 112.781 230.143 112.441 228.883H110.761C111.161 230.843 112.801 231.823 115.221 231.823C117.901 231.823 119.981 230.463 119.981 227.263V217.963H118.361V219.723C117.881 218.763 116.721 217.723 114.961 217.723C112.381 217.723 110.501 219.743 110.501 222.763C110.501 225.903 112.381 227.843 114.961 227.843C116.721 227.843 117.841 226.883 118.301 225.903V227.383ZM118.421 223.003C118.421 225.083 117.121 226.523 115.261 226.523C113.301 226.523 112.141 224.983 112.141 222.763C112.141 220.523 113.301 219.023 115.261 219.023C117.121 219.023 118.421 220.443 118.421 222.523V223.003Z" fill="#44372E"/>
</svg>
