<svg width="256" height="256" viewBox="0 0 256 256" fill="none" xmlns="http://www.w3.org/2000/svg">
<mask id="path-1-inside-1_1318_5541" fill="white">
<path d="M218.51 152.252C221.695 140.366 222.507 127.969 220.901 115.769C219.295 103.569 215.301 91.8054 209.149 81.1488C202.996 70.4921 194.805 61.1517 185.043 53.6608C175.28 46.1699 164.138 40.6751 152.252 37.4903L144.794 65.3226C153.025 67.528 160.741 71.3331 167.502 76.5205C174.262 81.7079 179.934 88.1761 184.195 95.5558C188.456 102.935 191.221 111.082 192.333 119.53C193.446 127.979 192.883 136.563 190.677 144.794L218.51 152.252Z"/>
</mask>
<path d="M218.51 152.252C221.695 140.366 222.507 127.969 220.901 115.769C219.295 103.569 215.301 91.8054 209.149 81.1488C202.996 70.4921 194.805 61.1517 185.043 53.6608C175.28 46.1699 164.138 40.6751 152.252 37.4903L144.794 65.3226C153.025 67.528 160.741 71.3331 167.502 76.5205C174.262 81.7079 179.934 88.1761 184.195 95.5558C188.456 102.935 191.221 111.082 192.333 119.53C193.446 127.979 192.883 136.563 190.677 144.794L218.51 152.252Z" fill="#292922" stroke="#292922" stroke-width="8.06648" mask="url(#path-1-inside-1_1318_5541)"/>
<mask id="path-2-inside-2_1318_5541" fill="white">
<path d="M37.4904 103.748C33.6632 118.031 33.2707 133.018 36.3452 147.482C39.4196 161.946 45.8736 175.477 55.1795 186.969C64.4854 198.461 76.379 207.587 89.8878 213.601C103.397 219.616 118.137 222.348 132.904 221.574L131.38 192.503C121.201 193.036 111.04 191.153 101.728 187.007C92.4164 182.861 84.2179 176.57 77.8031 168.649C71.3883 160.727 66.9394 151.4 64.8201 141.429C62.7008 131.459 62.9713 121.128 65.6095 111.282L37.4904 103.748Z"/>
</mask>
<path d="M37.4904 103.748C33.6632 118.031 33.2707 133.018 36.3452 147.482C39.4196 161.946 45.8736 175.477 55.1795 186.969C64.4854 198.461 76.379 207.587 89.8878 213.601C103.397 219.616 118.137 222.348 132.904 221.574L131.38 192.503C121.201 193.036 111.04 191.153 101.728 187.007C92.4164 182.861 84.2179 176.57 77.8031 168.649C71.3883 160.727 66.9394 151.4 64.8201 141.429C62.7008 131.459 62.9713 121.128 65.6095 111.282L37.4904 103.748Z" fill="#292922" stroke="#292922" stroke-width="8.06648" mask="url(#path-2-inside-2_1318_5541)"/>
<circle cx="89.8676" cy="61.8519" r="17.3538" transform="rotate(-30 89.8676 61.8519)" fill="#292922"/>
</svg>
