<svg width="162" height="173" viewBox="0 0 162 173" fill="none" xmlns="http://www.w3.org/2000/svg">
<path d="M28.5394 55.8447L152.857 17.4409C160.776 14.9947 161.435 22.4924 160.775 26.547C152.857 59.4082 141.612 108.264 140.979 110.481C140.345 112.698 138.339 113.78 137.416 114.044C95.4486 135.028 9.69377 170.185 7.15991 171.452C3.99259 173.036 7.15991 165.117 8.74358 160.366C10.3272 155.615 13.4946 96.624 15.0782 77.2242C16.3452 61.7043 24.5802 56.5046 28.5394 55.8447Z" stroke="black" stroke-width="2"/>
<path d="M154.041 17.0445L154.113 16.2598C154.28 14.4154 152.715 12.8808 150.874 13.0853V13.0853M21.0138 60.5952V56.5005C21.0138 55.1719 21.8877 54.0016 23.1616 53.6242L74.4625 38.4239L150.874 13.0853M17.0547 66.9298V53.7212C17.0547 52.3964 17.9237 51.2284 19.1926 50.8477L84.3603 31.2974L147.441 10.9C149.018 10.3903 150.669 11.4412 150.874 13.0853V13.0853" stroke="black" stroke-width="2"/>
<path d="M13.8877 97.0204V51.7129C13.8877 50.4023 14.7385 49.2433 15.9889 48.8507L143.748 8.73121M148.499 11.1067V11.1067C148.499 9.29675 146.798 7.9687 145.042 8.40767L143.748 8.73121M143.748 8.73121V8.73121C143.748 6.95731 142.036 5.68675 140.338 6.20106L11.2669 45.3019C10.0019 45.6852 9.13672 46.8513 9.13672 48.1731V157.991" stroke="black" stroke-width="2"/>
<path d="M134.643 0.811689C144.398 -2.05741 145.359 3.30351 144.473 7.1832C144.387 7.56154 143.889 7.56632 143.766 7.19816C143.754 7.16393 143.738 7.13137 143.718 7.10135L143.551 6.84944C143.18 6.29304 142.555 5.95884 141.886 5.95884H141.666C141.472 5.95884 141.279 5.9872 141.092 6.04302L12.0743 44.7089C11.9641 44.742 11.857 44.7844 11.7541 44.8359L10.2133 45.6063C9.77523 45.8253 9.43274 46.1975 9.25082 46.6523L8.88609 47.5641C8.79053 47.8031 8.74196 48.0582 8.74307 48.3155L9.13731 140.174L8.7473 159.285C8.74338 159.477 8.71182 159.667 8.65357 159.85L6.06413 167.988C6.00174 168.184 5.96998 168.389 5.96998 168.595V170.461C5.96998 171.295 5.38941 172.201 4.61651 171.889C3.19859 171.315 2.80266 168.662 2.80266 167.096C1.87886 133.708 0.03125 64.1584 0.03125 53.0728C0.03125 41.9872 6.62984 37.3681 9.92914 36.4443L14.0214 35.2751C14.88 35.0298 15.472 34.245 15.472 33.3521V23.7366C15.472 22.8264 16.0865 22.0311 16.9671 21.8013L58.4974 10.9673C59.7646 10.6368 61.0023 11.593 61.0023 12.9026V19.5303C61.0023 20.862 62.2669 21.8253 63.546 21.455C84.4748 15.3955 124.309 3.85083 134.643 0.811689Z" fill="black"/>
</svg>
