<svg width="145" height="40" viewBox="0 0 145 40" fill="none" xmlns="http://www.w3.org/2000/svg">
<g clip-path="url(#clip0_1412_5746)">
<path fill-rule="evenodd" clip-rule="evenodd" d="M46.742 15.5107V21.1873C45.8131 21.4969 44.8842 21.6001 43.9553 21.6001C40.1365 21.6001 37.7626 19.4327 37.7626 15.9235C37.7626 12.4143 40.1365 10.2469 44.0585 10.2469C45.2971 10.2469 46.6388 10.3501 47.7741 10.8662L48.187 11.0726L49.0127 8.90516L48.5998 8.69874C47.2581 8.18268 45.7099 7.87305 44.2649 7.87305C37.7626 7.87305 34.7695 12.0015 34.7695 15.9235C34.6663 18.091 35.5952 20.1552 37.1434 21.6001C38.6915 23.1483 40.859 23.974 43.6457 23.974C45.5035 23.974 47.4645 23.6644 49.2191 22.9419H49.4255V15.5107H46.742Z" fill="#292922"/>
<path d="M57.1656 8.18262H54.3789V23.8707H57.1656V8.18262Z" fill="#292922"/>
<path fill-rule="evenodd" clip-rule="evenodd" d="M65.2164 21.3937V8.18262H62.4297V23.8707H72.4412V21.3937H65.2164Z" fill="#292922"/>
<path fill-rule="evenodd" clip-rule="evenodd" d="M78.6327 21.3937V16.6459H85.5479V14.3753H78.6327V10.4533H86.0639V8.18262H75.9492V23.8707H86.3735V21.3937H78.6327Z" fill="#292922"/>
<path fill-rule="evenodd" clip-rule="evenodd" d="M96.6952 11.279C96.9016 11.6918 98.2434 15.6138 98.6562 16.7491H94.4245C94.4245 16.7491 96.4888 11.6918 96.6952 11.279ZM98.1401 8.18262H95.3534L89.3672 23.8707H92.1539L93.9085 19.2262H99.4819L101.236 23.8707H104.23L98.1401 8.18262Z" fill="#292922"/>
<path fill-rule="evenodd" clip-rule="evenodd" d="M120.123 10.0405C118.472 8.69874 115.891 7.87305 112.692 7.87305H107.531V10.2469H112.692C115.066 10.2469 116.923 10.8662 118.059 11.7951C118.988 12.8272 119.504 14.1689 119.504 15.5107C119.607 17.0588 118.988 18.7102 117.852 19.8455C116.614 20.9809 114.653 21.6001 112.279 21.6001H110.318V14.3754H107.531V23.7676H107.738C109.183 23.974 110.524 23.974 111.969 23.974C115.375 23.974 118.162 22.9419 120.02 21.3937C121.671 19.8455 122.497 17.6781 122.394 15.5107C122.394 13.4465 121.568 11.4854 120.123 10.0405Z" fill="#292922"/>
<path fill-rule="evenodd" clip-rule="evenodd" d="M25.8945 0.0283203H25.6881C4.83941 1.98933 2.25913 15.8196 9.07106 20.3609C7.83253 25.4183 9.07106 25.4183 9.07106 25.4183C9.17428 23.8701 9.48391 22.4252 9.89675 20.877C12.477 10.8655 19.0826 2.29897 25.6881 0.131532C25.8945 0.234743 25.8945 0.234743 25.8945 0.0283203Z" fill="#292922"/>
<path fill-rule="evenodd" clip-rule="evenodd" d="M24.5511 3.53748V3.33105L24.3447 3.53748C22.7965 6.84024 22.074 11.588 20.9387 15.0971C19.3905 19.2256 16.707 22.1155 12.5786 21.7026V31.8173C12.5786 31.8173 1.53498 26.9664 1.53498 19.1224V4.46638L10.5144 3.64069C10.7208 3.64069 10.7208 3.64069 10.7208 3.43427H0.8125V19.0192C0.8125 27.8953 12.5786 32.7462 12.5786 32.7462C12.5786 32.7462 24.5511 27.6889 24.5511 19.1224V3.53748Z" fill="#292922"/>
<path d="M68.5198 36.8749C67.9005 37.4942 66.9716 37.907 66.0427 37.907C65.1138 37.907 64.2881 37.5974 63.6688 36.8749C63.0496 36.1524 62.7399 35.3268 62.7399 34.3979C62.6367 32.5401 63.9785 30.9919 65.8363 30.8887C65.9395 30.8887 66.0427 30.8887 66.0427 30.8887C66.9716 30.8887 67.9005 31.1983 68.5198 31.9208L67.5909 32.8497C67.178 32.4368 66.662 32.1272 66.0427 32.1272C64.9074 32.1272 64.0817 33.0561 64.0817 34.0882C64.0817 34.1914 64.0817 34.1914 64.0817 34.2946C63.9785 35.43 64.8042 36.4621 65.9395 36.5653H66.0427C66.662 36.5653 67.178 36.3589 67.4877 35.8428L68.5198 36.8749Z" fill="#292922"/>
<path d="M70.9963 33.0563V33.7788C71.0996 33.5724 71.2028 33.2628 71.4092 33.1595C71.6156 33.0563 71.9252 32.9531 72.1317 32.9531H72.3381V34.2949H72.0285C71.7188 34.2949 71.4092 34.3981 71.2028 34.7077C70.9963 34.9141 70.9963 35.2238 70.9963 35.5334V37.8041H69.7578V33.0563H70.9963Z" fill="#292922"/>
<path d="M74.5071 35.7401C74.6103 36.4626 75.2296 36.8754 75.9521 36.7722C76.3649 36.669 76.6745 36.4626 76.8809 36.153L78.0163 36.4626C77.6034 37.2883 76.7777 37.9075 75.7456 37.9075C74.4039 38.0108 73.2686 36.9786 73.2686 35.6369C73.2686 35.5337 73.2686 35.5337 73.2686 35.4305C73.0621 34.0887 74.0943 32.9534 75.436 32.9534C75.5392 32.9534 75.5392 32.9534 75.6424 32.9534C76.9842 32.8502 78.1195 33.8823 78.1195 35.2241C78.1195 35.3273 78.1195 35.3273 78.1195 35.4305V35.6369H74.5071V35.7401ZM76.7777 35.0176C76.6745 34.3984 76.1585 33.9855 75.5392 34.0887C74.9199 34.0887 74.5071 34.5016 74.4039 35.0176H76.7777Z" fill="#292922"/>
<path d="M82.9705 33.0566H84.209V37.7011H82.9705V37.0819C82.5576 37.5979 82.0416 37.9076 81.4223 37.9076C80.1838 37.9076 79.1517 36.8755 79.1517 35.7401C79.1517 35.6369 79.1517 35.6369 79.1517 35.5337C79.0484 34.192 80.0806 33.0566 81.3191 33.0566H81.4223C82.0416 33.0566 82.5576 33.3663 82.8673 33.7791V33.0566H82.9705ZM80.4934 35.4305C80.3902 36.153 81.0095 36.7722 81.7319 36.8755C82.4544 36.8755 83.0737 36.153 82.9705 35.4305C83.0737 34.708 82.5576 34.0888 81.8351 33.9855H81.7319C81.0095 33.9855 80.4934 34.6048 80.4934 35.3273V35.4305Z" fill="#292922"/>
<path d="M87.3031 36.3587C87.3031 36.5651 87.4063 36.6683 87.6127 36.6683H87.8192V37.7004H86.7871C86.1678 37.7004 85.9614 37.3908 85.9614 36.8747V34.088H85.4453V33.0559H85.9614V31.8174H87.1999V33.0559H87.8192V34.088H87.1999L87.3031 36.3587Z" fill="#292922"/>
<path d="M90.5025 31.714C90.3993 32.1268 89.9865 32.3333 89.5736 32.23C89.3672 32.1268 89.1608 32.0236 89.0576 31.714C88.9543 31.3011 89.1608 30.8883 89.5736 30.7851C89.9865 30.6819 90.3993 30.8883 90.5025 31.3011C90.6057 31.4044 90.6057 31.6108 90.5025 31.714ZM90.5025 37.7002H89.264V33.0557H90.5025V37.7002Z" fill="#292922"/>
<path d="M93.2893 33.0563V33.6756C93.4957 33.1595 94.0118 32.9531 94.5279 32.9531C94.9407 32.9531 95.3535 33.0563 95.6632 33.366C95.9728 33.7788 96.1792 34.2949 96.076 34.8109V37.7008H94.8375V34.8109C94.8375 34.6045 94.8375 34.3981 94.7343 34.2949C94.6311 34.0884 94.3214 33.9852 94.115 33.9852C93.7022 33.9852 93.2893 34.3981 93.2893 34.8109V34.9141V37.7008H92.0508V33.0563H93.2893Z" fill="#292922"/>
<path d="M101.238 33.0566H102.477V37.3915C102.58 38.114 102.374 38.8365 101.858 39.3525C101.342 39.8686 100.619 40.075 99.8967 40.075C99.071 40.075 98.2453 39.7654 97.6261 39.1461L98.4517 38.3204C98.7614 38.7333 99.3807 38.9397 99.8967 38.9397C100.619 39.0429 101.135 38.5268 101.238 37.8044C101.238 37.7011 101.238 37.5979 101.238 37.5979V37.0819C100.826 37.5979 100.206 37.9076 99.5871 37.9076C98.3485 37.9076 97.3164 36.8755 97.3164 35.7401C97.3164 35.6369 97.3164 35.6369 97.3164 35.5337C97.2132 34.2952 98.1421 33.1599 99.3807 33.0566C99.4839 33.0566 99.5871 33.0566 99.6903 33.0566C100.31 33.0566 100.826 33.3663 101.135 33.7791L101.238 33.0566ZM98.7614 35.3273C98.6582 36.0498 99.1742 36.669 99.8967 36.669C100.31 36.669 100.722 36.5658 101.032 36.2562C101.238 36.0498 101.238 35.7401 101.238 35.4305C101.238 35.0177 101.135 34.6048 100.929 34.2952C100.722 34.0888 100.413 33.9855 100.103 33.8823C99.3806 33.8823 98.8646 34.3984 98.8646 35.1209C98.7614 35.3273 98.7614 35.3273 98.7614 35.3273Z" fill="#292922"/>
<path d="M108.463 37.7009H107.121V30.9922H109.289C110.837 30.9922 111.766 31.7147 111.766 33.1596C111.766 34.3982 110.94 35.3271 109.701 35.4303C109.598 35.4303 109.495 35.4303 109.392 35.4303H108.566V37.7009H108.463ZM109.082 34.2949C109.908 34.2949 110.321 33.8821 110.321 33.2628C110.321 32.6436 109.805 32.2307 109.289 32.1275C109.185 32.1275 109.185 32.1275 109.082 32.1275H108.463V34.2949H109.082Z" fill="#292922"/>
<path d="M117.339 35.4305C117.339 36.7722 116.203 37.9075 114.862 37.9075C114.862 37.9075 114.862 37.9075 114.758 37.9075C113.417 37.9075 112.281 36.7722 112.281 35.4305C112.281 34.0887 113.417 32.9534 114.758 32.9534C116.1 32.8502 117.235 33.8823 117.339 35.2241C117.339 35.3273 117.339 35.3273 117.339 35.4305ZM113.623 35.4305C113.52 36.153 114.036 36.669 114.758 36.7722C115.481 36.8754 115.997 36.3594 116.1 35.6369C116.1 35.5337 116.1 35.5337 116.1 35.4305C116.203 34.8112 115.687 34.1919 115.068 34.0887C114.965 34.0887 114.965 34.0887 114.862 34.0887C114.139 34.0887 113.623 34.6048 113.623 35.3273C113.623 35.3273 113.623 35.3273 113.623 35.4305Z" fill="#292922"/>
<path d="M120.745 34.3979C120.745 34.0883 120.539 33.8819 120.126 33.8819C119.816 33.8819 119.61 34.0883 119.61 34.2947C119.61 34.3979 119.61 34.5011 119.713 34.6043C119.816 34.7076 119.919 34.7076 120.539 34.914C121.571 35.2236 121.983 35.6365 121.983 36.3589C121.983 37.2878 121.261 37.8039 120.229 37.8039C119.403 37.9071 118.578 37.2878 118.371 36.4621V36.3589H119.61C119.713 36.7718 119.816 36.9782 120.229 36.9782C120.435 36.9782 120.745 36.875 120.745 36.5654C120.745 36.2557 120.539 36.1525 119.919 35.9461C118.887 35.6365 118.474 35.2236 118.474 34.5011C118.474 33.5722 119.197 33.0562 120.229 33.0562C121.055 32.953 121.88 33.5722 121.983 34.3979C121.983 34.5011 121.983 34.5011 121.983 34.6043L120.745 34.3979Z" fill="#292922"/>
<path d="M125.389 34.3978C125.389 33.985 125.08 33.7785 124.77 33.8817C124.461 33.8817 124.254 34.0882 124.254 34.2946C124.254 34.3978 124.254 34.501 124.357 34.6042C124.461 34.7074 124.461 34.7074 125.183 34.9139C126.215 35.2235 126.628 35.6363 126.628 36.3588C126.628 37.2877 125.906 37.8038 124.873 37.8038C124.048 37.907 123.222 37.2877 123.016 36.462V36.3588H124.254C124.357 36.7717 124.461 36.9781 124.873 36.9781C125.08 36.9781 125.389 36.8749 125.389 36.5652C125.389 36.2556 125.183 36.1524 124.564 35.946C123.532 35.6363 123.119 35.2235 123.119 34.501C123.119 33.5721 123.841 33.0561 124.873 33.0561C125.699 32.9528 126.422 33.4689 126.628 34.2946C126.628 34.3978 126.628 34.501 126.628 34.6042L125.389 34.3978Z" fill="#292922"/>
<path d="M129.413 31.714C129.309 32.1268 128.897 32.3333 128.484 32.23C128.277 32.1268 128.071 32.0236 127.968 31.714C127.864 31.3011 128.071 30.8883 128.484 30.7851C128.897 30.6819 129.309 30.8883 129.413 31.3011C129.413 31.5076 129.413 31.6108 129.413 31.714ZM129.309 37.7002H128.071V33.0557H129.309V37.7002Z" fill="#292922"/>
<path d="M132.199 37.7009H130.961V30.9922H132.199V33.5725C132.509 33.0564 133.128 32.85 133.644 32.85C134.883 32.85 136.018 33.8821 136.018 35.1206C136.018 35.2238 136.018 35.2238 136.018 35.3271C136.121 36.5656 135.296 37.5977 134.057 37.8041C133.954 37.8041 133.851 37.8041 133.748 37.8041C133.128 37.8041 132.509 37.5977 132.199 37.0816V37.7009ZM132.199 35.4303C132.096 36.1527 132.612 36.772 133.335 36.772C134.057 36.8752 134.677 36.3592 134.677 35.6367C134.677 35.5335 134.677 35.4303 134.677 35.3271C134.78 34.6046 134.16 33.9853 133.438 33.8821C132.716 33.9853 132.096 34.7078 132.199 35.4303Z" fill="#292922"/>
<path d="M137.359 37.7009V30.9922H138.598V37.7009H137.359Z" fill="#292922"/>
<path d="M141.285 35.7401C141.388 36.4626 142.007 36.8754 142.73 36.7722C143.143 36.669 143.452 36.4626 143.659 36.153L144.794 36.4626C144.381 37.2883 143.555 37.9075 142.523 37.9075C141.182 38.0108 140.046 36.9786 140.046 35.6369C140.046 35.5337 140.046 35.5337 140.046 35.4305C139.943 34.0887 140.975 33.0566 142.317 32.9534C142.42 32.9534 142.42 32.9534 142.523 32.9534C143.865 32.8502 145 33.8823 145 35.2241C145 35.3273 145 35.3273 145 35.4305V35.6369H141.285V35.7401ZM143.659 35.0176C143.555 34.3984 143.039 33.9855 142.523 34.0887C141.904 34.0887 141.491 34.5016 141.388 35.0176H143.659Z" fill="#292922"/>
</g>
<defs>
<clipPath id="clip0_1412_5746">
<rect width="144.186" height="40" fill="white" transform="translate(0.8125)"/>
</clipPath>
</defs>
</svg>
