<svg width="239" height="229" viewBox="0 0 239 229" fill="none" xmlns="http://www.w3.org/2000/svg">
<path d="M196.761 222C204.461 222 204.461 208.053 204.461 204.11C204.461 168.276 205 45.4679 205 19.1279C205 3.95523 203.548 1 193.369 1C189.466 1 183.187 1.00022 179.27 1.00055C174.468 1.00095 173 7.86491 173 10.4332V49.4513V211.856C173 219.062 174.662 222 179.27 222H196.761Z" stroke="#292922" stroke-width="2" stroke-linecap="round"/>
<path d="M137.877 10C130.492 9.99888 130.985 17.057 130.985 26.5985C130.985 118.239 130 117.823 130 209.345C130 215.959 132.69 222 137.761 222H148.215C159.046 222 161.508 219.558 161.508 211.503C161.508 166.896 162 54.2918 162 17.9638C162 10.9717 160.523 10 158.81 10C152.449 10 145.262 10.0011 137.877 10Z" stroke="#292922" stroke-width="2" stroke-linecap="round"/>
<path d="M58.923 221.907C63.5451 221.907 64.0001 218.583 64 216.814C63.9987 188.545 63.8413 138.037 63.8413 109.489C63.8413 108.302 63.8413 106.002 55.232 106.002C40.9278 106.002 52.4627 106.002 42.7702 106C36.5117 105.999 32.6162 105.939 32.6162 109.839C32.6162 140.908 32 188.15 32 219.072C32 220.91 33.7753 221.847 36.9533 221.907C47.8476 222.116 47.0209 221.907 58.923 221.907Z" fill="#292922" stroke="#292922" stroke-width="2" stroke-linecap="round"/>
<path d="M83 215.896C83 219.383 83.0225 222 86.8399 222H112.273C118.778 222 119 220.257 119 212.854C119 171.362 118.483 121.012 118.483 79.4971C118.483 76.7048 118.765 70.9999 113.719 71C107.959 71.0002 93.7434 71.38 87.3199 71.3801C83.9237 71.3802 83.48 73.2818 83.48 81.6485C83.48 118.492 83 178.706 83 215.896Z" stroke="#292922" stroke-width="2" stroke-linecap="round"/>
<path d="M238 227.74H1" stroke="black" stroke-width="2" stroke-linecap="round"/>
</svg>
