<svg width="28" height="28" viewBox="0 0 28 28" fill="none" xmlns="http://www.w3.org/2000/svg">
<mask id="path-1-inside-1_2611_1115" fill="white">
<path d="M23.189 16.6984C23.527 15.437 23.6132 14.1214 23.4428 12.8267C23.2723 11.5321 22.8485 10.2836 22.1956 9.15272C21.5427 8.02181 20.6734 7.03058 19.6374 6.23563C18.6014 5.44067 17.4189 4.85756 16.1576 4.51958L15.3662 7.4732C16.2396 7.70725 17.0585 8.11106 17.7759 8.66156C18.4933 9.21206 19.0953 9.89848 19.5474 10.6816C19.9996 11.4648 20.2931 12.3293 20.4111 13.2259C20.5291 14.1224 20.4694 15.0335 20.2354 15.9069L23.189 16.6984Z"/>
</mask>
<path d="M23.189 16.6984C23.527 15.437 23.6132 14.1214 23.4428 12.8267C23.2723 11.5321 22.8485 10.2836 22.1956 9.15272C21.5427 8.02181 20.6734 7.03058 19.6374 6.23563C18.6014 5.44067 17.4189 4.85756 16.1576 4.51958L15.3662 7.4732C16.2396 7.70725 17.0585 8.11106 17.7759 8.66156C18.4933 9.21206 19.0953 9.89848 19.5474 10.6816C19.9996 11.4648 20.2931 12.3293 20.4111 13.2259C20.5291 14.1224 20.4694 15.0335 20.2354 15.9069L23.189 16.6984Z" fill="#292922" stroke="#292922" stroke-width="1.01435" mask="url(#path-1-inside-1_2611_1115)"/>
<mask id="path-2-inside-2_2611_1115" fill="white">
<path d="M3.97879 11.551C3.57264 13.0668 3.53099 14.6572 3.85726 16.1921C4.18353 17.7271 4.86844 19.1631 5.85601 20.3826C6.84357 21.6021 8.10574 22.5706 9.53933 23.2089C10.9729 23.8472 12.5372 24.1371 14.1043 24.055L13.9426 20.9699C12.8624 21.0265 11.7841 20.8266 10.7959 20.3867C9.80767 19.9467 8.93762 19.2791 8.25687 18.4384C7.57612 17.5978 7.10399 16.6079 6.87909 15.5498C6.65418 14.4917 6.68289 13.3954 6.96286 12.3506L3.97879 11.551Z"/>
</mask>
<path d="M3.97879 11.551C3.57264 13.0668 3.53099 14.6572 3.85726 16.1921C4.18353 17.7271 4.86844 19.1631 5.85601 20.3826C6.84357 21.6021 8.10574 22.5706 9.53933 23.2089C10.9729 23.8472 12.5372 24.1371 14.1043 24.055L13.9426 20.9699C12.8624 21.0265 11.7841 20.8266 10.7959 20.3867C9.80767 19.9467 8.93762 19.2791 8.25687 18.4384C7.57612 17.5978 7.10399 16.6079 6.87909 15.5498C6.65418 14.4917 6.68289 13.3954 6.96286 12.3506L3.97879 11.551Z" fill="#292922" stroke="#292922" stroke-width="1.01435" mask="url(#path-2-inside-2_2611_1115)"/>
<circle cx="9.53719" cy="7.10572" r="1.84162" transform="rotate(-30 9.53719 7.10572)" fill="#292922"/>
</svg>
