<svg width="28" height="28" viewBox="0 0 28 28" fill="none" xmlns="http://www.w3.org/2000/svg">
<mask id="path-1-inside-1_2134_2231" fill="white">
<path d="M23.189 16.1984C23.527 14.937 23.6132 13.6214 23.4428 12.3267C23.2723 11.0321 22.8485 9.78362 22.1956 8.65272C21.5427 7.52181 20.6734 6.53058 19.6374 5.73563C18.6014 4.94067 17.4189 4.35756 16.1576 4.01958L15.3662 6.9732C16.2396 7.20725 17.0585 7.61106 17.7759 8.16156C18.4933 8.71206 19.0953 9.39848 19.5474 10.1816C19.9996 10.9648 20.2931 11.8293 20.4111 12.7259C20.5291 13.6224 20.4694 14.5335 20.2354 15.4069L23.189 16.1984Z"/>
</mask>
<path d="M23.189 16.1984C23.527 14.937 23.6132 13.6214 23.4428 12.3267C23.2723 11.0321 22.8485 9.78362 22.1956 8.65272C21.5427 7.52181 20.6734 6.53058 19.6374 5.73563C18.6014 4.94067 17.4189 4.35756 16.1576 4.01958L15.3662 6.9732C16.2396 7.20725 17.0585 7.61106 17.7759 8.16156C18.4933 8.71206 19.0953 9.39848 19.5474 10.1816C19.9996 10.9648 20.2931 11.8293 20.4111 12.7259C20.5291 13.6224 20.4694 14.5335 20.2354 15.4069L23.189 16.1984Z" fill="#292922" stroke="#292922" stroke-width="1.01435" mask="url(#path-1-inside-1_2134_2231)"/>
<mask id="path-2-inside-2_2134_2231" fill="white">
<path d="M3.97879 11.051C3.57264 12.5668 3.53099 14.1572 3.85726 15.6921C4.18353 17.2271 4.86844 18.6631 5.85601 19.8826C6.84357 21.1021 8.10574 22.0706 9.53933 22.7089C10.9729 23.3472 12.5372 23.6371 14.1043 23.555L13.9426 20.4699C12.8624 20.5265 11.7841 20.3266 10.7959 19.8867C9.80767 19.4467 8.93762 18.7791 8.25687 17.9384C7.57612 17.0978 7.10399 16.1079 6.87909 15.0498C6.65418 13.9917 6.68289 12.8954 6.96286 11.8506L3.97879 11.051Z"/>
</mask>
<path d="M3.97879 11.051C3.57264 12.5668 3.53099 14.1572 3.85726 15.6921C4.18353 17.2271 4.86844 18.6631 5.85601 19.8826C6.84357 21.1021 8.10574 22.0706 9.53933 22.7089C10.9729 23.3472 12.5372 23.6371 14.1043 23.555L13.9426 20.4699C12.8624 20.5265 11.7841 20.3266 10.7959 19.8867C9.80767 19.4467 8.93762 18.7791 8.25687 17.9384C7.57612 17.0978 7.10399 16.1079 6.87909 15.0498C6.65418 13.9917 6.68289 12.8954 6.96286 11.8506L3.97879 11.051Z" fill="#292922" stroke="#292922" stroke-width="1.01435" mask="url(#path-2-inside-2_2134_2231)"/>
<circle cx="9.53719" cy="6.60572" r="1.84162" transform="rotate(-30 9.53719 6.60572)" fill="#292922"/>
</svg>
