<svg width="160" height="236" viewBox="0 0 160 236" fill="none" xmlns="http://www.w3.org/2000/svg">
<path d="M92.8484 138.054C82.6038 135.63 67.1428 129.84 54.7572 119.786C42.3508 109.715 33.1009 95.4365 35.1148 75.9696C36.2205 65.2807 39.7152 57.7833 44.4106 52.4575C49.1128 47.124 55.0813 43.8983 61.2444 41.8631C67.4145 39.8256 73.739 38.994 79.1254 38.4234C79.9372 38.3374 80.7311 38.257 81.5009 38.1791C83.2669 38.0003 84.9059 37.8343 86.344 37.6429C88.3899 37.3706 90.1728 37.0313 91.4288 36.464C93.684 35.4455 95.6613 34.3748 97.4494 33.3684C97.9295 33.0982 98.3932 32.8342 98.8439 32.5777C100.085 31.8711 101.227 31.2211 102.337 30.6531C105.337 29.1183 107.888 28.3013 110.86 28.8181C112.273 29.0639 113.925 29.9519 115.777 31.27C117.435 32.4503 119.154 33.9016 120.905 35.3796C121.092 35.5371 121.279 35.6949 121.466 35.8527C123.389 37.4732 125.349 39.0968 127.218 40.2945C129.057 41.4739 130.98 42.3568 132.808 42.2697C135.335 42.1494 138.95 43.9254 141.353 48.3592C143.739 52.7625 144.901 59.7819 142.37 69.9058C141.971 71.501 141.56 73.2764 141.116 75.1926C138.473 86.6144 134.67 103.042 125.369 116.175C120.665 122.816 116.491 128.272 111.494 132.085C106.566 135.846 100.799 138.033 92.8484 138.054Z" stroke="#292922" stroke-width="2"/>
<path d="M115.977 51.5345C116.959 46.6264 113.932 35.1743 111.069 29.4482C116.181 32.9248 124.795 39.4486 128.861 41.1049C145.425 47.8535 144.198 51.5345 135.609 88.3449C126.603 126.942 108.41 132.108 95.1177 138.039C99.6167 135.381 110.455 123.315 117.817 96.3205C127.02 62.5776 114.75 57.6696 115.977 51.5345Z" fill="#292922"/>
<path d="M111.069 29.4482L111.631 28.6213C111.255 28.3654 110.753 28.3959 110.411 28.6955C110.068 28.9952 109.971 29.4884 110.174 29.8955L111.069 29.4482ZM115.977 51.5345L116.958 51.7306L115.977 51.5345ZM117.817 96.3205L116.853 96.0574L117.817 96.3205ZM95.1177 138.039L94.6089 137.178L95.5251 138.952L95.1177 138.039ZM135.609 88.3449L134.635 88.1177L135.609 88.3449ZM128.861 41.1049L129.238 40.1788L128.861 41.1049ZM110.174 29.8955C111.562 32.6701 113.012 36.8867 113.991 41.0284C114.48 43.0942 114.847 45.1208 115.032 46.9204C115.219 48.7356 115.213 50.2559 114.996 51.3384L116.958 51.7306C117.232 50.3591 117.216 48.6073 117.022 46.7159C116.826 44.809 116.441 42.6944 115.938 40.5679C114.934 36.325 113.439 31.9525 111.963 29.001L110.174 29.8955ZM114.996 51.3384C114.619 53.2233 115.304 54.9557 116.129 56.7864C116.979 58.6708 118.069 60.8308 118.926 63.8477C120.627 69.8396 121.42 79.3106 116.853 96.0574L118.782 96.5836C123.417 79.5876 122.676 69.7331 120.85 63.3014C119.943 60.1066 118.771 57.7803 117.953 55.9645C117.11 54.095 116.721 52.9133 116.958 51.7306L114.996 51.3384ZM116.853 96.0574C113.194 109.472 108.68 119.145 104.545 125.777C100.393 132.436 96.6616 135.965 94.6089 137.178L95.6264 138.9C98.0728 137.454 102.011 133.621 106.242 126.835C110.492 120.02 115.079 110.164 118.782 96.5836L116.853 96.0574ZM95.5251 138.952C102.096 136.021 110.165 133.173 117.654 126.172C125.17 119.146 132.047 108.01 136.583 88.5722L134.635 88.1177C130.165 107.277 123.443 118.022 116.288 124.711C109.106 131.426 101.432 134.127 94.7102 137.126L95.5251 138.952ZM136.583 88.5722C138.728 79.3812 140.421 72.2225 141.49 66.5691C142.557 60.9301 143.024 56.6837 142.662 53.3439C142.293 49.9405 141.06 47.4623 138.78 45.4129C136.557 43.4162 133.381 41.8668 129.238 40.1788L128.483 42.031C132.622 43.7172 135.504 45.1587 137.443 46.9005C139.322 48.5897 140.352 50.5978 140.673 53.5595C141.001 56.5849 140.587 60.5825 139.525 66.1975C138.466 71.7981 136.785 78.9035 134.635 88.1177L136.583 88.5722ZM129.238 40.1788C127.324 39.3991 124.246 37.4221 120.924 35.1355C117.69 32.9087 114.157 30.3386 111.631 28.6213L110.507 30.2752C113.094 32.0344 116.423 34.4645 119.79 36.7828C123.071 39.0413 126.332 41.1543 128.483 42.031L129.238 40.1788Z" fill="#292922"/>
<path d="M39.8821 58.8793C33.0201 48.6816 17.2506 33.0364 16.1069 44.7018C14.6773 59.2835 25.092 73.2632 36.8146 93.8491" stroke="#292922" stroke-width="2"/>
<path d="M138.657 44.7686C136.369 36.0959 130.015 17.5392 124.754 19.8265C119.494 22.1138 119.161 31.0033 119.638 34.339" stroke="#292922" stroke-width="2"/>
<path d="M57.0605 74.2158C66.6721 76.0563 87.1223 80.9644 92.0304 85.8725M54.6064 93.8481C62.582 95.4841 79.8829 100.351 85.2818 106.732" stroke="#292922" stroke-width="2" stroke-linecap="round"/>
<path d="M54.9501 195.512H56.6701V189.332H63.4101V187.892H56.6701V182.672H64.0901V181.232H54.9501V195.512ZM67.2352 195.512H68.9552V189.332H75.6952V187.892H68.9552V182.672H76.3752V181.232H67.2352V195.512ZM84.8204 189.772C87.9804 189.772 89.8204 188.312 89.8204 185.492C89.8204 182.692 87.9804 181.232 84.8004 181.232H79.5204V195.512H81.2204V189.772H84.8204ZM81.2204 188.332V182.672H84.7604C86.9204 182.672 88.1004 183.552 88.1004 185.492C88.1004 187.432 86.9204 188.332 84.7604 188.332H81.2204ZM101.148 185.152C101.148 183.032 99.6277 180.992 96.6277 180.992C93.6277 180.992 91.9077 183.112 91.7677 185.632H93.3877C93.5077 183.912 94.6477 182.432 96.6077 182.432C98.7277 182.432 99.5077 183.792 99.5077 185.152C99.5077 186.812 97.9677 187.872 96.0677 189.092C93.9477 190.412 91.4877 192.192 91.4877 194.732V195.512H101.288V194.072H93.3277C93.3277 192.772 95.0477 191.572 96.7877 190.412C98.9277 189.032 101.148 187.832 101.148 185.152ZM59.1252 227.512L63.7652 214.992H63.8052V227.512H65.4652V213.232H62.9052L58.5052 225.272H58.4652L54.0652 213.232H51.4052V227.512H53.0452V214.992H53.0852L57.7252 227.512H59.1252ZM75.2586 227.512H76.9186C76.7186 226.852 76.6786 226.152 76.6786 225.412V220.792C76.6786 218.372 75.1586 217.212 72.7186 217.212C70.5786 217.212 68.9786 218.372 68.7786 220.412H70.3786C70.4986 219.252 71.3386 218.552 72.6786 218.552C74.0586 218.552 75.0386 219.232 75.0386 220.832V221.412L71.7986 221.832C69.7586 222.072 68.3186 222.912 68.3186 224.852C68.3186 226.712 69.8186 227.732 71.5786 227.732C73.2586 227.732 74.6386 226.992 75.0786 225.812C75.0786 226.292 75.1386 226.952 75.2586 227.512ZM71.9186 226.472C70.6586 226.472 69.9986 225.752 69.9986 224.812C69.9986 223.452 71.0386 223.132 72.2986 222.952L75.0386 222.652V223.552C75.0386 225.492 73.4786 226.472 71.9186 226.472ZM79.2738 224.532C79.4538 226.692 81.2538 227.752 83.6538 227.752C85.9138 227.752 87.5738 226.452 87.5738 224.692C87.5738 223.072 86.6138 222.272 84.9738 221.952L82.9738 221.572C81.8138 221.352 81.2138 220.992 81.2138 220.132C81.2138 219.152 82.0738 218.492 83.4138 218.492C84.7938 218.492 85.6938 219.092 85.8138 220.112H87.3538C87.1538 218.212 85.7338 217.212 83.4138 217.212C81.1938 217.212 79.6738 218.532 79.6738 220.232C79.6738 221.992 80.8538 222.652 82.4738 222.952L84.2538 223.312C85.5338 223.552 86.0138 224.032 86.0138 224.772C86.0138 225.852 85.0138 226.492 83.6338 226.492C82.2738 226.492 80.9938 225.912 80.8738 224.532H79.2738ZM97.2263 227.512H99.2263L94.6063 221.712L99.0463 217.452H97.0663L92.1063 222.272V212.792H90.4463V227.512H92.1063V224.032L93.4063 222.772L97.2263 227.512ZM100.621 224.532C100.801 226.692 102.601 227.752 105.001 227.752C107.261 227.752 108.921 226.452 108.921 224.692C108.921 223.072 107.961 222.272 106.321 221.952L104.321 221.572C103.161 221.352 102.561 220.992 102.561 220.132C102.561 219.152 103.421 218.492 104.761 218.492C106.141 218.492 107.041 219.092 107.161 220.112H108.701C108.501 218.212 107.081 217.212 104.761 217.212C102.541 217.212 101.021 218.532 101.021 220.232C101.021 221.992 102.201 222.652 103.821 222.952L105.601 223.312C106.881 223.552 107.361 224.032 107.361 224.772C107.361 225.852 106.361 226.492 104.981 226.492C103.621 226.492 102.341 225.912 102.221 224.532H100.621Z" fill="#44372E"/>
</svg>
