<svg width="204" height="280" viewBox="0 0 204 280" fill="none" xmlns="http://www.w3.org/2000/svg">
<path d="M91.9867 217.979C86.2536 211.11 70.6838 211.015 65.0681 218.427C66.6992 219.004 74.041 219.773 78.976 219.773C83.5624 219.773 88.8462 218.875 91.9867 217.979Z" fill="#F9FCFF"/>
<path d="M19.0655 177.337C18.4424 176.16 18.6621 174.335 18.6621 172.98C18.6621 169.824 18.5812 167.364 22.2927 166.445C44.4194 160.964 56.8861 157.542 69.3095 154.282C70.5792 154.282 71.871 153.536 73.2125 153.738C95.2639 157.053 115.308 161.698 139.562 164.993L139.652 165.005C140.428 165.11 141.731 165.286 142.386 165.578C143.608 166.12 143.024 174.156 142.729 174.241C141.391 174.623 139.935 175.046 138.564 175.35C123.375 180.276 110.218 184.265 96.2671 188.511C93.7477 189.278 91.3965 190.044 88.7335 190.044C85.7944 190.044 82.911 190.059 79.9796 189.863C59.8194 188.511 43.9305 184.92 22.8373 179.878C21.4952 179.558 19.7274 178.587 19.0655 177.337Z" fill="#292922"/>
<path d="M3.08886 21.9866C3.46389 22.392 4.09657 22.4167 4.50201 22.0416C4.90744 21.6666 4.93209 21.0339 4.55707 20.6285L3.08886 21.9866ZM21.1197 3.19337L21.8982 2.56572L21.8481 2.50352L21.7887 2.45008L21.1197 3.19337ZM14.0899 20.5742L14.5556 21.4591L14.0899 20.5742ZM3.90061 21.4187L4.42052 20.5644L1.28569 18.6565L3.01921 21.891L3.90061 21.4187ZM59.8011 116.886L58.9577 117.423L59.8011 116.886ZM107.811 107.907C108.117 107.447 107.993 106.827 107.534 106.52C107.074 106.214 106.453 106.338 106.147 106.798L107.811 107.907ZM13.6241 19.6893C12.5906 20.2332 11.1086 20.9687 9.4509 21.3038C7.8087 21.6357 6.0602 21.5624 4.42052 20.5644L3.3807 22.2729C5.57466 23.6082 7.87572 23.6627 9.8472 23.2641C11.8032 22.8687 13.499 22.0152 14.5556 21.4591L13.6241 19.6893ZM20.3412 3.82103C22.4463 6.43203 22.0313 9.67731 20.3251 12.7874C18.6179 15.8993 15.7615 18.5643 13.6241 19.6893L14.5556 21.4591C17.0626 20.1396 20.195 17.1826 22.0785 13.7493C23.9631 10.3143 24.7407 6.09135 21.8982 2.56572L20.3412 3.82103ZM4.55707 20.6285C2.53133 18.4385 2.03859 15.9565 2.53609 13.5133C3.04202 11.0288 4.58577 8.55057 6.69352 6.53788C8.79974 4.52666 11.3937 3.05322 13.8957 2.51073C16.3847 1.97109 18.6998 2.36079 20.4508 3.93667L21.7887 2.45008C19.4373 0.33378 16.4085 -0.0805553 13.472 0.556144C10.5485 1.19 7.63522 2.87328 5.31231 5.09142C2.99093 7.30809 1.18362 10.1318 0.576313 13.1142C-0.0394107 16.1379 0.592434 19.2877 3.08886 21.9866L4.55707 20.6285ZM3.01921 21.891C22.7549 58.7155 40.0558 87.7504 58.9577 117.423L60.6446 116.348C41.7668 86.7138 24.4916 57.7221 4.78201 20.9463L3.01921 21.891ZM58.9577 117.423C61.2423 121.009 65.1902 122.683 69.6951 123.122C74.1997 123.562 79.4048 122.789 84.4768 121.339C89.5582 119.886 94.5688 117.736 98.703 115.366C102.804 113.015 106.163 110.38 107.811 107.907L106.147 106.798C104.762 108.875 101.736 111.322 97.7084 113.63C93.7141 115.92 88.8529 118.007 83.927 119.416C78.9918 120.827 74.0544 121.538 69.8893 121.132C65.7247 120.726 62.4757 119.223 60.6446 116.348L58.9577 117.423Z" fill="#292922"/>
<path d="M108.059 106.788C107.612 106.463 106.987 106.562 106.662 107.009C106.337 107.455 106.436 108.081 106.882 108.405L108.059 106.788ZM108.308 111.735L109.183 112.221L108.308 111.735ZM72.3327 127.584L72.3882 128.583L72.3327 127.584ZM59.642 123.168L58.8611 123.793L59.642 123.168ZM58.6038 114.197C58.6038 113.644 58.156 113.197 57.6038 113.197C57.0515 113.197 56.6038 113.644 56.6038 114.197H58.6038ZM106.882 108.405C108.003 109.22 108.079 109.64 108.082 109.791C108.084 109.9 108.054 110.054 107.939 110.309C107.817 110.579 107.656 110.85 107.434 111.249L109.183 112.221C109.363 111.895 109.595 111.502 109.763 111.131C109.937 110.743 110.093 110.277 110.082 109.749C110.058 108.624 109.313 107.7 108.059 106.788L106.882 108.405ZM60.4229 122.543C58.9865 120.748 58.6038 118.588 58.6038 114.197H56.6038C56.6038 118.606 56.9543 121.409 58.8611 123.793L60.4229 122.543ZM72.2773 126.586C69.5242 126.739 67.4041 126.745 65.5477 126.216C63.742 125.701 62.1128 124.656 60.4229 122.543L58.8611 123.793C60.7691 126.177 62.7345 127.493 64.9994 128.139C67.2134 128.77 69.6397 128.736 72.3882 128.583L72.2773 126.586ZM107.434 111.249C104.566 116.412 98.6386 120.11 91.8792 122.597C85.151 125.072 77.7789 126.28 72.2773 126.586L72.3882 128.583C78.0495 128.268 85.6223 127.029 92.5697 124.474C99.4859 121.929 105.965 118.012 109.183 112.221L107.434 111.249Z" fill="#292922"/>
<path d="M65.6555 130.441V127.638C72.121 127.746 78.5813 127.213 84.9418 126.047L86.1687 125.822C86.1687 127.395 86.5317 128.952 86.5317 130.542C86.5317 131.304 86.428 131.353 85.9871 131.904C85.6356 132.343 85.6241 132.461 85.6241 133.174C85.6241 137.285 86.3432 141.42 85.4325 145.519C84.4859 149.778 73.8704 149.733 70.8393 148.867C69.6382 148.524 68.821 147.803 68.3785 146.658C67.331 143.947 67.1078 140.564 67.1078 137.703V134.264C67.1078 133.913 67.3071 132.868 66.8254 132.731C66.5037 132.639 65.926 132.21 65.6959 131.954C65.4937 131.729 65.6555 130.745 65.6555 130.441Z" fill="#292922"/>
<path d="M65.6555 127.638L65.6722 126.638L64.6555 126.621V127.638H65.6555ZM65.6959 131.954L64.9526 132.623L64.9526 132.623L65.6959 131.954ZM66.8254 132.731L66.5507 133.692H66.5507L66.8254 132.731ZM68.3785 146.658L67.4457 147.019H67.4457L68.3785 146.658ZM70.8393 148.867L71.114 147.905L71.114 147.905L70.8393 148.867ZM85.9871 131.904L85.2063 131.279L85.9871 131.904ZM85.4325 145.519L84.4563 145.302L85.4325 145.519ZM86.1687 125.822H87.1687V124.622L85.9884 124.839L86.1687 125.822ZM84.9418 126.047L85.1221 127.031L84.9418 126.047ZM64.6555 127.638V130.441H66.6555V127.638H64.6555ZM64.6555 130.441C64.6555 130.439 64.6556 130.444 64.6549 130.458C64.6543 130.472 64.6532 130.49 64.6515 130.513C64.6481 130.56 64.6433 130.617 64.6372 130.688C64.6255 130.822 64.6098 131 64.6011 131.179C64.5927 131.352 64.5886 131.564 64.6096 131.768C64.6201 131.871 64.6395 131.997 64.6795 132.128C64.7167 132.251 64.7916 132.444 64.9526 132.623L66.4392 131.285C66.5496 131.408 66.5853 131.521 66.5928 131.546C66.6029 131.579 66.6017 131.589 66.599 131.563C66.5935 131.509 66.592 131.415 66.5987 131.276C66.6052 131.142 66.6173 131.003 66.6297 130.86C66.6399 130.743 66.6555 130.571 66.6555 130.441H64.6555ZM64.9526 132.623C65.1362 132.827 65.4034 133.047 65.6495 133.221C65.877 133.381 66.2176 133.597 66.5507 133.692L67.1001 131.769C67.1246 131.776 67.1039 131.773 67.0306 131.732C66.966 131.696 66.8874 131.646 66.8031 131.587C66.6225 131.459 66.4858 131.337 66.4392 131.285L64.9526 132.623ZM66.5507 133.692C66.4319 133.658 66.3294 133.592 66.2539 133.513C66.1845 133.441 66.1544 133.375 66.1441 133.35C66.1294 133.313 66.144 133.331 66.1478 133.449C66.1511 133.554 66.1449 133.678 66.1342 133.821C66.1303 133.873 66.1219 133.976 66.118 134.03C66.1133 134.095 66.1078 134.181 66.1078 134.264H68.1078C68.1078 134.264 68.1078 134.257 68.1087 134.24C68.1095 134.223 68.1108 134.202 68.1128 134.175C68.1179 134.104 68.1214 134.067 68.1286 133.97C68.1403 133.814 68.1537 133.602 68.1467 133.385C68.1402 133.181 68.1143 132.89 68.0014 132.608C67.8802 132.304 67.6136 131.916 67.1001 131.769L66.5507 133.692ZM66.1078 134.264V137.703H68.1078V134.264H66.1078ZM67.4457 147.019C68.007 148.471 69.0779 149.404 70.5646 149.828L71.114 147.905C70.1985 147.644 69.6349 147.135 69.3113 146.298L67.4457 147.019ZM86.6241 133.174C86.6241 132.991 86.625 132.878 86.6298 132.792C86.6343 132.711 86.6407 132.691 86.6392 132.697C86.629 132.735 86.6059 132.731 86.768 132.528L85.2063 131.279C85.0168 131.516 84.8122 131.791 84.7083 132.176C84.6195 132.505 84.6241 132.861 84.6241 133.174H86.6241ZM86.768 132.528C86.9224 132.335 87.1852 132.042 87.3333 131.72C87.5112 131.333 87.5317 130.942 87.5317 130.542H85.5317C85.5317 130.905 85.5004 130.919 85.5162 130.884C85.5201 130.876 85.5157 130.89 85.4634 130.959C85.3994 131.043 85.3381 131.114 85.2063 131.279L86.768 132.528ZM66.1078 137.703C66.1078 140.586 66.3279 144.125 67.4457 147.019L69.3113 146.298C68.334 143.768 68.1078 140.542 68.1078 137.703H66.1078ZM70.5646 149.828C72.2509 150.31 75.8084 150.531 79.0475 150.106C80.6767 149.893 82.3083 149.507 83.6224 148.857C84.9271 148.212 86.0783 147.222 86.4086 145.735L84.4563 145.302C84.3133 145.945 83.7825 146.547 82.736 147.064C81.6987 147.577 80.3095 147.924 78.7876 148.123C75.7246 148.525 72.4588 148.289 71.114 147.905L70.5646 149.828ZM87.5317 130.542C87.5317 129.68 87.4333 128.836 87.3436 128.061C87.2516 127.266 87.1687 126.541 87.1687 125.822H85.1687C85.1687 126.676 85.2672 127.516 85.3568 128.29C85.4486 129.084 85.5317 129.814 85.5317 130.542H87.5317ZM86.4086 145.735C86.8908 143.566 86.9362 141.41 86.8693 139.319C86.8005 137.169 86.6241 135.224 86.6241 133.174H84.6241C84.6241 135.235 84.8072 137.413 84.8703 139.383C84.9353 141.412 84.8848 143.373 84.4563 145.302L86.4086 145.735ZM85.1221 127.031L86.3489 126.806L85.9884 124.839L84.7615 125.064L85.1221 127.031ZM65.6388 128.637C72.1704 128.747 78.6966 128.208 85.1221 127.031L84.7615 125.064C78.466 126.217 72.0717 126.745 65.6722 126.638L65.6388 128.637Z" fill="#292922"/>
<path d="M93.3456 122.871C93.0056 122.435 92.3772 122.358 91.942 122.698C91.5068 123.038 91.4296 123.667 91.7696 124.102L93.3456 122.871ZM97.6112 127.9L96.7429 128.396L96.7939 128.485L96.8619 128.562L97.6112 127.9ZM119.691 127.397L120.571 126.923L119.691 127.397ZM112.769 116.564L113.589 115.991L113.506 115.873L113.394 115.783L112.769 116.564ZM109.68 110.162C109.252 109.813 108.622 109.876 108.273 110.304C107.924 110.732 107.987 111.362 108.415 111.711L109.68 110.162ZM91.7696 124.102C91.8709 124.232 92.0166 124.468 92.23 124.826C92.4276 125.157 92.6667 125.563 92.9204 125.946C93.1707 126.323 93.4678 126.728 93.7985 127.048C94.0999 127.34 94.5994 127.73 95.2513 127.73V125.73C95.4057 125.73 95.3939 125.809 95.1897 125.611C95.0148 125.442 94.8118 125.179 94.5871 124.84C94.366 124.507 94.1552 124.149 93.9476 123.801C93.7558 123.479 93.5409 123.121 93.3456 122.871L91.7696 124.102ZM95.2513 127.73C95.7413 127.73 96.026 127.78 96.221 127.867C96.3831 127.939 96.5554 128.068 96.7429 128.396L98.4794 127.404C98.1156 126.767 97.6445 126.311 97.0328 126.039C96.454 125.782 95.8344 125.73 95.2513 125.73V127.73ZM113.394 115.783C113.23 115.652 113.134 115.429 113.134 115.293H111.134C111.134 116.086 111.546 116.866 112.144 117.345L113.394 115.783ZM113.134 115.293C113.134 114.131 112.622 113.152 111.97 112.339C111.326 111.535 110.478 110.814 109.68 110.162L108.415 111.711C109.216 112.365 109.912 112.969 110.41 113.59C110.902 114.203 111.134 114.751 111.134 115.293H113.134ZM120.571 126.923C117.774 121.728 115.856 119.232 113.589 115.991L111.95 117.137C114.238 120.408 116.08 122.8 118.811 127.872L120.571 126.923ZM104.801 138.057C105.419 138.675 106.231 138.929 107.049 138.97C107.859 139.012 108.74 138.851 109.619 138.576C111.38 138.026 113.33 136.955 115.08 135.696C116.832 134.437 118.454 132.939 119.528 131.486C120.063 130.762 120.495 130.004 120.717 129.258C120.941 128.51 120.978 127.678 120.571 126.923L118.811 127.872C118.882 128.004 118.932 128.246 118.801 128.687C118.669 129.13 118.378 129.677 117.919 130.297C117.005 131.535 115.552 132.894 113.913 134.073C112.273 135.252 110.516 136.201 109.023 136.667C108.275 136.901 107.643 136.998 107.151 136.973C106.665 136.948 106.384 136.811 106.215 136.642L104.801 138.057ZM96.8619 128.562C98.3448 130.24 99.6156 131.892 100.882 133.499C102.139 135.096 103.392 136.648 104.801 138.057L106.215 136.642C104.898 135.325 103.709 133.857 102.453 132.262C101.205 130.678 99.8907 128.969 98.3604 127.237L96.8619 128.562Z" fill="#292922"/>
<path d="M69.2839 153.959V152.959H69.1549L69.0301 152.992L69.2839 153.959ZM22.2671 166.122L22.0267 165.151L22.2671 166.122ZM19.0398 177.014L18.1561 177.482L19.0398 177.014ZM22.8117 179.555L23.0442 178.582L22.8117 179.555ZM79.954 189.539L79.8871 190.537L79.954 189.539ZM96.2414 188.188L95.9503 187.231L96.2414 188.188ZM138.538 175.027L138.321 174.051L138.275 174.061L138.23 174.076L138.538 175.027ZM142.704 173.918L142.429 172.956L142.704 173.918ZM142.361 165.254L141.955 166.168L142.361 165.254ZM139.537 164.669L139.402 165.66L139.537 164.669ZM73.1868 153.414L73.3355 152.426L73.1868 153.414ZM17.6364 172.657C17.6364 172.977 17.6235 173.322 17.6123 173.715C17.6013 174.098 17.5925 174.515 17.6049 174.932C17.629 175.742 17.7335 176.683 18.1561 177.482L19.9236 176.546C19.7231 176.167 19.6259 175.608 19.604 174.872C19.5935 174.517 19.6007 174.15 19.6114 173.772C19.6219 173.406 19.6364 173.014 19.6364 172.657H17.6364ZM18.1561 177.482C18.5994 178.319 19.3645 178.989 20.1352 179.477C20.917 179.973 21.7964 180.341 22.5792 180.528L23.0442 178.582C22.4849 178.449 21.8093 178.171 21.2061 177.788C20.5919 177.399 20.1421 176.958 19.9236 176.546L18.1561 177.482ZM79.8871 190.537C82.8589 190.736 85.7793 190.721 88.7078 190.721V188.721C85.7582 188.721 82.9118 188.735 80.0208 188.542L79.8871 190.537ZM88.7078 190.721C91.5488 190.721 94.0513 189.9 96.5326 189.145L95.9503 187.231C93.3929 188.01 91.193 188.721 88.7078 188.721V190.721ZM138.755 176.003C140.161 175.691 141.65 175.259 142.978 174.879L142.429 172.956C141.08 173.341 139.657 173.754 138.321 174.051L138.755 176.003ZM142.767 164.341C142.307 164.136 141.686 163.999 141.157 163.903C140.605 163.803 140.045 163.729 139.671 163.679L139.402 165.66C139.789 165.713 140.301 165.78 140.8 165.871C141.322 165.966 141.733 166.07 141.955 166.168L142.767 164.341ZM69.0301 152.992C56.5987 156.254 44.1444 159.673 22.0267 165.151L22.5075 167.092C44.6431 161.61 57.1222 158.184 69.5377 154.926L69.0301 152.992ZM22.5792 180.528C43.6754 185.57 59.6357 189.18 79.8871 190.537L80.0208 188.542C59.9519 187.196 44.1343 183.623 23.0442 178.582L22.5792 180.528ZM96.5326 189.145C110.482 184.899 123.648 180.907 138.847 175.978L138.23 174.076C123.051 178.998 109.903 182.985 95.9503 187.231L96.5326 189.145ZM139.671 163.679C127.569 162.035 116.514 160.053 105.717 158.066C94.9247 156.08 84.3814 154.086 73.3355 152.426L73.0381 154.403C84.0437 156.058 94.5483 158.045 105.355 160.033C116.156 162.021 127.25 164.01 139.402 165.66L139.671 163.679ZM22.0267 165.151C19.9282 165.671 18.7169 166.696 18.1298 168.183C17.6001 169.525 17.6364 171.156 17.6364 172.657H19.6364C19.6364 171.002 19.6324 169.824 19.9901 168.917C20.2904 168.156 20.8944 167.492 22.5075 167.092L22.0267 165.151ZM73.3355 152.426C72.4504 152.292 71.6204 152.478 70.9673 152.641C70.2506 152.819 69.7636 152.959 69.2839 152.959V154.959C70.0739 154.959 70.8676 154.726 71.4496 154.582C72.0952 154.421 72.5819 154.335 73.0381 154.403L73.3355 152.426ZM142.978 174.879C143.225 174.809 143.379 174.665 143.453 174.586C143.531 174.501 143.581 174.419 143.608 174.368C143.664 174.268 143.697 174.172 143.715 174.115C143.754 173.991 143.784 173.852 143.807 173.723C143.856 173.456 143.902 173.103 143.941 172.704C144.021 171.901 144.085 170.843 144.101 169.772C144.116 168.708 144.084 167.594 143.962 166.691C143.901 166.244 143.813 165.803 143.676 165.433C143.562 165.124 143.318 164.585 142.767 164.341L141.955 166.168C141.709 166.059 141.713 165.89 141.8 166.125C141.864 166.298 141.928 166.575 141.98 166.959C142.083 167.719 142.116 168.72 142.101 169.744C142.086 170.76 142.025 171.761 141.951 172.506C141.914 172.88 141.875 173.173 141.84 173.364C141.831 173.41 141.824 173.446 141.818 173.473C141.811 173.501 141.808 173.512 141.809 173.51C141.809 173.508 141.812 173.499 141.818 173.484C141.823 173.471 141.835 173.442 141.855 173.405C141.873 173.373 141.913 173.305 141.983 173.23C142.046 173.161 142.192 173.024 142.429 172.956L142.978 174.879Z" fill="#292922"/>
<path d="M55.9507 186.797C55.9507 186.245 55.503 185.797 54.9507 185.797C54.3984 185.797 53.9507 186.245 53.9507 186.797H55.9507ZM95.3416 195.348L95.0089 194.405L95.3416 195.348ZM98.2477 188.45C98.2477 187.898 97.7999 187.45 97.2477 187.45C96.6954 187.45 96.2477 187.898 96.2477 188.45H98.2477ZM53.9507 186.797C53.9507 186.799 53.9507 186.801 53.9507 186.803C53.9507 186.805 53.9507 186.807 53.9507 186.809C53.9507 186.811 53.9507 186.813 53.9507 186.815C53.9507 186.817 53.9507 186.819 53.9507 186.821C53.9507 186.823 53.9507 186.825 53.9507 186.828C53.9507 186.83 53.9507 186.832 53.9507 186.834C53.9507 186.836 53.9507 186.838 53.9507 186.84C53.9507 186.842 53.9507 186.844 53.9507 186.846C53.9507 186.849 53.9507 186.851 53.9507 186.853C53.9507 186.855 53.9507 186.857 53.9507 186.859C53.9507 186.861 53.9507 186.864 53.9507 186.866C53.9507 186.868 53.9507 186.87 53.9507 186.872C53.9507 186.874 53.9507 186.877 53.9507 186.879C53.9507 186.881 53.9507 186.883 53.9507 186.885C53.9507 186.887 53.9507 186.89 53.9507 186.892C53.9507 186.894 53.9507 186.896 53.9507 186.899C53.9507 186.901 53.9507 186.903 53.9507 186.905C53.9507 186.908 53.9507 186.91 53.9507 186.912C53.9507 186.914 53.9507 186.917 53.9507 186.919C53.9507 186.921 53.9507 186.923 53.9507 186.926C53.9507 186.928 53.9507 186.93 53.9507 186.932C53.9507 186.935 53.9507 186.937 53.9507 186.939C53.9507 186.942 53.9507 186.944 53.9507 186.946C53.9507 186.949 53.9507 186.951 53.9507 186.953C53.9507 186.956 53.9507 186.958 53.9507 186.96C53.9507 186.963 53.9507 186.965 53.9507 186.967C53.9507 186.97 53.9507 186.972 53.9507 186.974C53.9507 186.977 53.9507 186.979 53.9507 186.982C53.9507 186.984 53.9507 186.986 53.9507 186.989C53.9507 186.991 53.9507 186.993 53.9507 186.996C53.9507 186.998 53.9507 187.001 53.9507 187.003C53.9507 187.006 53.9507 187.008 53.9507 187.01C53.9507 187.013 53.9507 187.015 53.9507 187.018C53.9507 187.02 53.9507 187.023 53.9507 187.025C53.9507 187.027 53.9507 187.03 53.9507 187.032C53.9507 187.035 53.9507 187.037 53.9507 187.04C53.9507 187.042 53.9507 187.045 53.9507 187.047C53.9507 187.05 53.9507 187.052 53.9507 187.055C53.9507 187.057 53.9507 187.06 53.9507 187.062C53.9507 187.065 53.9507 187.067 53.9507 187.07C53.9507 187.072 53.9507 187.075 53.9507 187.077C53.9507 187.08 53.9507 187.082 53.9507 187.085C53.9507 187.088 53.9507 187.09 53.9507 187.093C53.9507 187.095 53.9507 187.098 53.9507 187.1C53.9507 187.103 53.9507 187.106 53.9507 187.108C53.9507 187.111 53.9507 187.113 53.9507 187.116C53.9507 187.119 53.9507 187.121 53.9507 187.124C53.9507 187.126 53.9507 187.129 53.9507 187.132C53.9507 187.134 53.9507 187.137 53.9507 187.139C53.9507 187.142 53.9507 187.145 53.9507 187.147C53.9507 187.15 53.9507 187.153 53.9507 187.155C53.9507 187.158 53.9507 187.161 53.9507 187.163C53.9507 187.166 53.9507 187.169 53.9507 187.171C53.9507 187.174 53.9507 187.177 53.9507 187.179C53.9507 187.182 53.9507 187.185 53.9507 187.187C53.9507 187.19 53.9507 187.193 53.9507 187.195C53.9507 187.198 53.9507 187.201 53.9507 187.204C53.9507 187.206 53.9507 187.209 53.9507 187.212C53.9507 187.214 53.9507 187.217 53.9507 187.22C53.9507 187.223 53.9507 187.225 53.9507 187.228C53.9507 187.231 53.9507 187.234 53.9507 187.236C53.9507 187.239 53.9507 187.242 53.9507 187.245C53.9507 187.248 53.9507 187.25 53.9507 187.253C53.9507 187.256 53.9507 187.259 53.9507 187.261C53.9507 187.264 53.9507 187.267 53.9507 187.27C53.9507 187.273 53.9507 187.275 53.9507 187.278C53.9507 187.281 53.9507 187.284 53.9507 187.287C53.9507 187.29 53.9507 187.292 53.9507 187.295C53.9507 187.298 53.9507 187.301 53.9507 187.304C53.9507 187.307 53.9507 187.309 53.9507 187.312C53.9507 187.315 53.9507 187.318 53.9507 187.321C53.9507 187.324 53.9507 187.327 53.9507 187.33C53.9507 187.332 53.9507 187.335 53.9507 187.338C53.9507 187.341 53.9507 187.344 53.9507 187.347C53.9507 187.35 53.9507 187.353 53.9507 187.356C53.9507 187.358 53.9507 187.361 53.9507 187.364C53.9507 187.367 53.9507 187.37 53.9507 187.373C53.9507 187.376 53.9507 187.379 53.9507 187.382C53.9507 187.385 53.9507 187.388 53.9507 187.391C53.9507 187.394 53.9507 187.397 53.9507 187.399C53.9507 187.402 53.9507 187.405 53.9507 187.408C53.9507 187.411 53.9507 187.414 53.9507 187.417C53.9507 187.42 53.9507 187.423 53.9507 187.426C53.9507 187.429 53.9507 187.432 53.9507 187.435C53.9507 187.438 53.9507 187.441 53.9507 187.444C53.9507 187.447 53.9507 187.45 53.9507 187.453C53.9507 187.456 53.9507 187.459 53.9507 187.462C53.9507 187.465 53.9507 187.468 53.9507 187.471C53.9507 187.474 53.9507 187.477 53.9507 187.48C53.9507 187.483 53.9507 187.486 53.9507 187.489C53.9507 187.493 53.9507 187.496 53.9507 187.499C53.9507 187.502 53.9507 187.505 53.9507 187.508C53.9507 187.511 53.9507 187.514 53.9507 187.517C53.9507 187.52 53.9507 187.523 53.9507 187.526C53.9507 187.529 53.9507 187.532 53.9507 187.536C53.9507 187.539 53.9507 187.542 53.9507 187.545C53.9507 187.548 53.9507 187.551 53.9507 187.554C53.9507 187.557 53.9507 187.56 53.9507 187.563C53.9507 187.567 53.9507 187.57 53.9507 187.573C53.9507 187.576 53.9507 187.579 53.9507 187.582C53.9507 187.585 53.9507 187.589 53.9507 187.592C53.9507 187.595 53.9507 187.598 53.9507 187.601C53.9507 187.604 53.9507 187.607 53.9507 187.611C53.9507 187.614 53.9507 187.617 53.9507 187.62C53.9507 187.623 53.9507 187.626 53.9507 187.63C53.9507 187.633 53.9507 187.636 53.9507 187.639C53.9507 187.642 53.9507 187.646 53.9507 187.649C53.9507 187.652 53.9507 187.655 53.9507 187.658C53.9507 187.662 53.9507 187.665 53.9507 187.668C53.9507 187.671 53.9507 187.674 53.9507 187.678C53.9507 187.681 53.9507 187.684 53.9507 187.687C53.9507 187.69 53.9507 187.694 53.9507 187.697C53.9507 187.7 53.9507 187.703 53.9507 187.707C53.9507 187.71 53.9507 187.713 53.9507 187.716C53.9507 187.72 53.9507 187.723 53.9507 187.726C53.9507 187.729 53.9507 187.733 53.9507 187.736C53.9507 187.739 53.9507 187.742 53.9507 187.746C53.9507 187.749 53.9507 187.752 53.9507 187.756C53.9507 187.759 53.9507 187.762 53.9507 187.765C53.9507 187.769 53.9507 187.772 53.9507 187.775C53.9507 187.779 53.9507 187.782 53.9507 187.785C53.9507 187.788 53.9507 187.792 53.9507 187.795C53.9507 187.798 53.9507 187.802 53.9507 187.805C53.9507 187.808 53.9507 187.812 53.9507 187.815C53.9507 187.818 53.9507 187.822 53.9507 187.825C53.9507 187.828 53.9507 187.832 53.9507 187.835C53.9507 187.838 53.9507 187.842 53.9507 187.845C53.9507 187.848 53.9507 187.852 53.9507 187.855C53.9507 187.858 53.9507 187.862 53.9507 187.865C53.9507 187.869 53.9507 187.872 53.9507 187.875C53.9507 187.879 53.9507 187.882 53.9507 187.885C53.9507 187.889 53.9507 187.892 53.9507 187.895C53.9507 187.899 53.9507 187.902 53.9507 187.906C53.9507 187.909 53.9507 187.912 53.9507 187.916C53.9507 187.919 53.9507 187.923 53.9507 187.926C53.9507 187.929 53.9507 187.933 53.9507 187.936C53.9507 187.94 53.9507 187.943 53.9507 187.946C53.9507 187.95 53.9507 187.953 53.9507 187.957C53.9507 187.96 53.9507 187.964 53.9507 187.967C53.9507 187.97 53.9507 187.974 53.9507 187.977C53.9507 187.981 53.9507 187.984 53.9507 187.988C53.9507 187.991 53.9507 187.994 53.9507 187.998C53.9507 188.001 53.9507 188.005 53.9507 188.008C53.9507 188.012 53.9507 188.015 53.9507 188.019C53.9507 188.022 53.9507 188.026 53.9507 188.029C53.9507 188.032 53.9507 188.036 53.9507 188.039C53.9507 188.043 53.9507 188.046 53.9507 188.05C53.9507 188.053 53.9507 188.057 53.9507 188.06C53.9507 188.064 53.9507 188.067 53.9507 188.071C53.9507 188.074 53.9507 188.078 53.9507 188.081C53.9507 188.085 53.9507 188.088 53.9507 188.092C53.9507 188.095 53.9507 188.099 53.9507 188.102C53.9507 188.106 53.9507 188.109 53.9507 188.113C53.9507 188.116 53.9507 188.12 53.9507 188.123C53.9507 188.127 53.9507 188.13 53.9507 188.134C53.9507 188.137 53.9507 188.141 53.9507 188.144C53.9507 188.148 53.9507 188.151 53.9507 188.155C53.9507 188.158 53.9507 188.162 53.9507 188.166C53.9507 188.169 53.9507 188.173 53.9507 188.176C53.9507 188.18 53.9507 188.183 53.9507 188.187C53.9507 188.19 53.9507 188.194 53.9507 188.197C53.9507 188.201 53.9507 188.205 53.9507 188.208C53.9507 188.212 53.9507 188.215 53.9507 188.219C53.9507 188.222 53.9507 188.226 53.9507 188.23C53.9507 188.233 53.9507 188.237 53.9507 188.24C53.9507 188.244 53.9507 188.247 53.9507 188.251C53.9507 188.255 53.9507 188.258 53.9507 188.262C53.9507 188.265 53.9507 188.269 53.9507 188.273C53.9507 188.276 53.9507 188.28 53.9507 188.283C53.9507 188.287 53.9507 188.29 53.9507 188.294C53.9507 188.298 53.9507 188.301 53.9507 188.305C53.9507 188.308 53.9507 188.312 53.9507 188.316C53.9507 188.319 53.9507 188.323 53.9507 188.327C53.9507 188.33 53.9507 188.334 53.9507 188.337C53.9507 188.341 53.9507 188.345 53.9507 188.348C53.9507 188.352 53.9507 188.355 53.9507 188.359C53.9507 188.363 53.9507 188.366 53.9507 188.37C53.9507 188.374 53.9507 188.377 53.9507 188.381C53.9507 188.385 53.9507 188.388 53.9507 188.392C53.9507 188.395 53.9507 188.399 53.9507 188.403C53.9507 188.406 53.9507 188.41 53.9507 188.414C53.9507 188.417 53.9507 188.421 53.9507 188.425C53.9507 188.428 53.9507 188.432 53.9507 188.436C53.9507 188.439 53.9507 188.443 53.9507 188.447C53.9507 188.45 53.9507 188.454 53.9507 188.458C53.9507 188.461 53.9507 188.465 53.9507 188.469C53.9507 188.472 53.9507 188.476 53.9507 188.48C53.9507 188.483 53.9507 188.487 53.9507 188.491C53.9507 188.494 53.9507 188.498 53.9507 188.502C53.9507 188.505 53.9507 188.509 53.9507 188.513C53.9507 188.516 53.9507 188.52 53.9507 188.524C53.9507 188.527 53.9507 188.531 53.9507 188.535C53.9507 188.538 53.9507 188.542 53.9507 188.546C53.9507 188.549 53.9507 188.553 53.9507 188.557C53.9507 188.561 53.9507 188.564 53.9507 188.568C53.9507 188.572 53.9507 188.575 53.9507 188.579C53.9507 188.583 53.9507 188.586 53.9507 188.59C53.9507 188.594 53.9507 188.598 53.9507 188.601C53.9507 188.605 53.9507 188.609 53.9507 188.612C53.9507 188.616 53.9507 188.62 53.9507 188.624C53.9507 188.627 53.9507 188.631 53.9507 188.635C53.9507 188.638 53.9507 188.642 53.9507 188.646C53.9507 188.65 53.9507 188.653 53.9507 188.657C53.9507 188.661 53.9507 188.664 53.9507 188.668C53.9507 188.672 53.9507 188.676 53.9507 188.679C53.9507 188.683 53.9507 188.687 53.9507 188.691C53.9507 188.694 53.9507 188.698 53.9507 188.702C53.9507 188.706 53.9507 188.709 53.9507 188.713C53.9507 188.717 53.9507 188.72 53.9507 188.724C53.9507 188.728 53.9507 188.732 53.9507 188.735C53.9507 188.739 53.9507 188.743 53.9507 188.747C53.9507 188.75 53.9507 188.754 53.9507 188.758C53.9507 188.762 53.9507 188.765 53.9507 188.769C53.9507 188.773 53.9507 188.777 53.9507 188.78C53.9507 188.784 53.9507 188.788 53.9507 188.792C53.9507 188.795 53.9507 188.799 53.9507 188.803C53.9507 188.807 53.9507 188.81 53.9507 188.814C53.9507 188.818 53.9507 188.822 53.9507 188.826C53.9507 188.829 53.9507 188.833 53.9507 188.837C53.9507 188.841 53.9507 188.844 53.9507 188.848C53.9507 188.852 53.9507 188.856 53.9507 188.859C53.9507 188.863 53.9507 188.867 53.9507 188.871C53.9507 188.874 53.9507 188.878 53.9507 188.882C53.9507 188.886 53.9507 188.89 53.9507 188.893C53.9507 188.897 53.9507 188.901 53.9507 188.905C53.9507 188.908 53.9507 188.912 53.9507 188.916C53.9507 188.92 53.9507 188.924 53.9507 188.927C53.9507 188.931 53.9507 188.935 53.9507 188.939C53.9507 188.942 53.9507 188.946 53.9507 188.95C53.9507 188.954 53.9507 188.958 53.9507 188.961C53.9507 188.965 53.9507 188.969 53.9507 188.973C53.9507 188.976 53.9507 188.98 53.9507 188.984C53.9507 188.988 53.9507 188.992 53.9507 188.995C53.9507 188.999 53.9507 189.003 53.9507 189.007C53.9507 189.011 53.9507 189.014 53.9507 189.018C53.9507 189.022 53.9507 189.026 53.9507 189.029C53.9507 189.033 53.9507 189.037 53.9507 189.041C53.9507 189.045 53.9507 189.048 53.9507 189.052C53.9507 189.056 53.9507 189.06 53.9507 189.064C53.9507 189.067 53.9507 189.071 53.9507 189.075C53.9507 189.079 53.9507 189.083 53.9507 189.086C53.9507 189.09 53.9507 189.094 53.9507 189.098C53.9507 189.102 53.9507 189.105 53.9507 189.109C53.9507 189.113 53.9507 189.117 53.9507 189.121C53.9507 189.124 53.9507 189.128 53.9507 189.132C53.9507 189.136 53.9507 189.14 53.9507 189.143C53.9507 189.147 53.9507 189.151 53.9507 189.155C53.9507 189.159 53.9507 189.162 53.9507 189.166C53.9507 189.17 53.9507 189.174 53.9507 189.178C53.9507 189.181 53.9507 189.185 53.9507 189.189C53.9507 189.193 53.9507 189.197 53.9507 189.2C53.9507 189.204 53.9507 189.208 53.9507 189.212C53.9507 189.216 53.9507 189.219 53.9507 189.223C53.9507 189.227 53.9507 189.231 53.9507 189.235C53.9507 189.238 53.9507 189.242 53.9507 189.246C53.9507 189.25 53.9507 189.254 53.9507 189.257C53.9507 189.261 53.9507 189.265 53.9507 189.269C53.9507 189.273 53.9507 189.276 53.9507 189.28C53.9507 189.284 53.9507 189.288 53.9507 189.292C53.9507 189.295 53.9507 189.299 53.9507 189.303C53.9507 189.307 53.9507 189.311 53.9507 189.314C53.9507 189.318 53.9507 189.322 53.9507 189.326C53.9507 189.33 53.9507 189.333 53.9507 189.337C53.9507 189.341 53.9507 189.345 53.9507 189.349C53.9507 189.352 53.9507 189.356 53.9507 189.36C53.9507 189.364 53.9507 189.368 53.9507 189.371C53.9507 189.375 53.9507 189.379 53.9507 189.383C53.9507 189.387 53.9507 189.39 53.9507 189.394C53.9507 189.398 53.9507 189.402 53.9507 189.406C53.9507 189.409 53.9507 189.413 53.9507 189.417C53.9507 189.421 53.9507 189.424 53.9507 189.428C53.9507 189.432 53.9507 189.436 53.9507 189.44C53.9507 189.443 53.9507 189.447 53.9507 189.451C53.9507 189.455 53.9507 189.459 53.9507 189.462C53.9507 189.466 53.9507 189.47 53.9507 189.474C53.9507 189.478 53.9507 189.481 53.9507 189.485C53.9507 189.489 53.9507 189.493 53.9507 189.497C53.9507 189.5 53.9507 189.504 53.9507 189.508C53.9507 189.512 53.9507 189.515 53.9507 189.519C53.9507 189.523 53.9507 189.527 53.9507 189.531C53.9507 189.534 53.9507 189.538 53.9507 189.542C53.9507 189.546 53.9507 189.55 53.9507 189.553C53.9507 189.557 53.9507 189.561 53.9507 189.565C53.9507 189.568 53.9507 189.572 53.9507 189.576C53.9507 189.58 53.9507 189.584 53.9507 189.587C53.9507 189.591 53.9507 189.595 53.9507 189.599C53.9507 189.602 53.9507 189.606 53.9507 189.61C53.9507 189.614 53.9507 189.618 53.9507 189.621C53.9507 189.625 53.9507 189.629 53.9507 189.633C53.9507 189.636 53.9507 189.64 53.9507 189.644C53.9507 189.648 53.9507 189.652 53.9507 189.655C53.9507 189.659 53.9507 189.663 53.9507 189.667C53.9507 189.67 53.9507 189.674 53.9507 189.678C53.9507 189.682 53.9507 189.685 53.9507 189.689C53.9507 189.693 53.9507 189.697 53.9507 189.7C53.9507 189.704 53.9507 189.708 53.9507 189.712C53.9507 189.715 53.9507 189.719 53.9507 189.723C53.9507 189.727 53.9507 189.73 53.9507 189.734C53.9507 189.738 53.9507 189.742 53.9507 189.745C53.9507 189.749 53.9507 189.753 53.9507 189.757C53.9507 189.76 53.9507 189.764 53.9507 189.768C53.9507 189.772 53.9507 189.775 53.9507 189.779C53.9507 189.783 53.9507 189.787 53.9507 189.79C53.9507 189.794 53.9507 189.798 53.9507 189.802C53.9507 189.805 53.9507 189.809 53.9507 189.813C53.9507 189.817 53.9507 189.82 53.9507 189.824C53.9507 189.828 53.9507 189.832 53.9507 189.835C53.9507 189.839 53.9507 189.843 53.9507 189.846C53.9507 189.85 53.9507 189.854 53.9507 189.858C53.9507 189.861 53.9507 189.865 53.9507 189.869C53.9507 189.873 53.9507 189.876 53.9507 189.88C53.9507 189.884 53.9507 189.887 53.9507 189.891C53.9507 189.895 53.9507 189.899 53.9507 189.902C53.9507 189.906 53.9507 189.91 53.9507 189.913C53.9507 189.917 53.9507 189.921 53.9507 189.925C53.9507 189.928 53.9507 189.932 53.9507 189.936C53.9507 189.939 53.9507 189.943 53.9507 189.947C53.9507 189.95 53.9507 189.954 53.9507 189.958C53.9507 189.962 53.9507 189.965 53.9507 189.969C53.9507 189.973 53.9507 189.976 53.9507 189.98C53.9507 189.984 53.9507 189.987 53.9507 189.991C53.9507 189.995 53.9507 189.998 53.9507 190.002C53.9507 190.006 53.9507 190.009 53.9507 190.013C53.9507 190.017 53.9507 190.02 53.9507 190.024C53.9507 190.028 53.9507 190.031 53.9507 190.035C53.9507 190.039 53.9507 190.043 53.9507 190.046C53.9507 190.05 53.9507 190.054 53.9507 190.057C53.9507 190.061 53.9507 190.064 53.9507 190.068C53.9507 190.072 53.9507 190.075 53.9507 190.079C53.9507 190.083 53.9507 190.086 53.9507 190.09C53.9507 190.094 53.9507 190.097 53.9507 190.101C53.9507 190.105 53.9507 190.108 53.9507 190.112C53.9507 190.116 53.9507 190.119 53.9507 190.123C53.9507 190.127 53.9507 190.13 53.9507 190.134C53.9507 190.137 53.9507 190.141 53.9507 190.145C53.9507 190.148 53.9507 190.152 53.9507 190.156C53.9507 190.159 53.9507 190.163 53.9507 190.166C53.9507 190.17 53.9507 190.174 53.9507 190.177C53.9507 190.181 53.9507 190.185 53.9507 190.188C53.9507 190.192 53.9507 190.195 53.9507 190.199C53.9507 190.203 53.9507 190.206 53.9507 190.21C53.9507 190.213 53.9507 190.217 53.9507 190.221C53.9507 190.224 53.9507 190.228 53.9507 190.231C53.9507 190.235 53.9507 190.239 53.9507 190.242C53.9507 190.246 53.9507 190.249 53.9507 190.253C53.9507 190.257 53.9507 190.26 53.9507 190.264C53.9507 190.267 53.9507 190.271 53.9507 190.274C53.9507 190.278 53.9507 190.282 53.9507 190.285C53.9507 190.289 53.9507 190.292 53.9507 190.296C53.9507 190.299 53.9507 190.303 53.9507 190.307C53.9507 190.31 53.9507 190.314 53.9507 190.317C53.9507 190.321 53.9507 190.324 53.9507 190.328C53.9507 190.331 53.9507 190.335 53.9507 190.338C53.9507 190.342 53.9507 190.346 53.9507 190.349C53.9507 190.353 53.9507 190.356 53.9507 190.36C53.9507 190.363 53.9507 190.367 53.9507 190.37C53.9507 190.374 53.9507 190.377 53.9507 190.381C53.9507 190.384 53.9507 190.388 53.9507 190.391C53.9507 190.395 53.9507 190.398 53.9507 190.402C53.9507 190.405 53.9507 190.409 53.9507 190.412C53.9507 190.416 53.9507 190.42 53.9507 190.423C53.9507 190.427 53.9507 190.43 53.9507 190.433C53.9507 190.437 53.9507 190.44 53.9507 190.444C53.9507 190.447 53.9507 190.451 53.9507 190.454C53.9507 190.458 53.9507 190.461 53.9507 190.465C53.9507 190.468 53.9507 190.472 53.9507 190.475C53.9507 190.479 53.9507 190.482 53.9507 190.486C53.9507 190.489 53.9507 190.493 53.9507 190.496C53.9507 190.5 53.9507 190.503 53.9507 190.506C53.9507 190.51 53.9507 190.513 53.9507 190.517C53.9507 190.52 53.9507 190.524 53.9507 190.527C53.9507 190.531 53.9507 190.534 53.9507 190.537C53.9507 190.541 53.9507 190.544 53.9507 190.548C53.9507 190.551 53.9507 190.555 53.9507 190.558C53.9507 190.561 53.9507 190.565 53.9507 190.568C53.9507 190.572 53.9507 190.575 53.9507 190.578C53.9507 190.582 53.9507 190.585 53.9507 190.589C53.9507 190.592 53.9507 190.595 53.9507 190.599C53.9507 190.602 53.9507 190.606 53.9507 190.609C53.9507 190.612 53.9507 190.616 53.9507 190.619C53.9507 190.623 53.9507 190.626 53.9507 190.629C53.9507 190.633 53.9507 190.636 53.9507 190.639C53.9507 190.643 53.9507 190.646 53.9507 190.65C53.9507 190.653 53.9507 190.656 53.9507 190.66C53.9507 190.663 53.9507 190.666 53.9507 190.67C53.9507 190.673 53.9507 190.676 53.9507 190.68C53.9507 190.683 53.9507 190.686 53.9507 190.69C53.9507 190.693 53.9507 190.696 53.9507 190.7C53.9507 190.703 53.9507 190.706 53.9507 190.71C53.9507 190.713 53.9507 190.716 53.9507 190.72C53.9507 190.723 53.9507 190.726 53.9507 190.729C53.9507 190.733 53.9507 190.736 53.9507 190.739C53.9507 190.743 53.9507 190.746 53.9507 190.749C53.9507 190.753 53.9507 190.756 53.9507 190.759C53.9507 190.762 53.9507 190.766 53.9507 190.769C53.9507 190.772 53.9507 190.775 53.9507 190.779C53.9507 190.782 53.9507 190.785 53.9507 190.789C53.9507 190.792 53.9507 190.795 53.9507 190.798C53.9507 190.802 53.9507 190.805 53.9507 190.808C53.9507 190.811 53.9507 190.815 53.9507 190.818C53.9507 190.821 53.9507 190.824 53.9507 190.827C53.9507 190.831 53.9507 190.834 53.9507 190.837C53.9507 190.84 53.9507 190.844 53.9507 190.847C53.9507 190.85 53.9507 190.853 53.9507 190.856C53.9507 190.86 53.9507 190.863 53.9507 190.866C53.9507 190.869 53.9507 190.872 53.9507 190.876C53.9507 190.879 53.9507 190.882 53.9507 190.885C53.9507 190.888 53.9507 190.891 53.9507 190.895C53.9507 190.898 53.9507 190.901 53.9507 190.904C53.9507 190.907 53.9507 190.91 53.9507 190.914C53.9507 190.917 53.9507 190.92 53.9507 190.923C53.9507 190.926 53.9507 190.929 53.9507 190.932C53.9507 190.936 53.9507 190.939 53.9507 190.942C53.9507 190.945 53.9507 190.948 53.9507 190.951C53.9507 190.954 53.9507 190.957 53.9507 190.961C53.9507 190.964 53.9507 190.967 53.9507 190.97C53.9507 190.973 53.9507 190.976 53.9507 190.979C53.9507 190.982 53.9507 190.985 53.9507 190.988C53.9507 190.991 53.9507 190.995 53.9507 190.998C53.9507 191.001 53.9507 191.004 53.9507 191.007C53.9507 191.01 53.9507 191.013 53.9507 191.016C53.9507 191.019 53.9507 191.022 53.9507 191.025C53.9507 191.028 53.9507 191.031 53.9507 191.034C53.9507 191.037 53.9507 191.04 53.9507 191.043C53.9507 191.046 53.9507 191.049 53.9507 191.052C53.9507 191.055 53.9507 191.059 53.9507 191.062C53.9507 191.065 53.9507 191.068 53.9507 191.071C53.9507 191.074 53.9507 191.077 53.9507 191.08C53.9507 191.083 53.9507 191.086 53.9507 191.088C53.9507 191.091 53.9507 191.094 53.9507 191.097C53.9507 191.1 53.9507 191.103 53.9507 191.106C53.9507 191.109 53.9507 191.112 53.9507 191.115C53.9507 191.118 53.9507 191.121 53.9507 191.124C53.9507 191.127 53.9507 191.13 53.9507 191.133C53.9507 191.136 53.9507 191.139 53.9507 191.142C53.9507 191.145 53.9507 191.148 53.9507 191.15C53.9507 191.153 53.9507 191.156 53.9507 191.159C53.9507 191.162 53.9507 191.165 53.9507 191.168C53.9507 191.171 53.9507 191.174 53.9507 191.177C53.9507 191.179 53.9507 191.182 53.9507 191.185C53.9507 191.188 53.9507 191.191 53.9507 191.194C53.9507 191.197 53.9507 191.2 53.9507 191.202C53.9507 191.205 53.9507 191.208 53.9507 191.211C53.9507 191.214 53.9507 191.217 53.9507 191.219C53.9507 191.222 53.9507 191.225 53.9507 191.228C53.9507 191.231 53.9507 191.234 53.9507 191.236C53.9507 191.239 53.9507 191.242 53.9507 191.245C53.9507 191.248 53.9507 191.25 53.9507 191.253C53.9507 191.256 53.9507 191.259 53.9507 191.262C53.9507 191.264 53.9507 191.267 53.9507 191.27C53.9507 191.273 53.9507 191.275 53.9507 191.278C53.9507 191.281 53.9507 191.284 53.9507 191.286C53.9507 191.289 53.9507 191.292 53.9507 191.295C53.9507 191.297 53.9507 191.3 53.9507 191.303C53.9507 191.306 53.9507 191.308 53.9507 191.311C53.9507 191.314 53.9507 191.317 53.9507 191.319C53.9507 191.322 53.9507 191.325 53.9507 191.327C53.9507 191.33 53.9507 191.333 53.9507 191.335C53.9507 191.338 53.9507 191.341 53.9507 191.343C53.9507 191.346 53.9507 191.349 53.9507 191.351C53.9507 191.354 53.9507 191.357 53.9507 191.359C53.9507 191.362 53.9507 191.365 53.9507 191.367C53.9507 191.37 53.9507 191.373 53.9507 191.375C53.9507 191.378 53.9507 191.381 53.9507 191.383C53.9507 191.386 53.9507 191.388 53.9507 191.391C53.9507 191.394 53.9507 191.396 53.9507 191.399C53.9507 191.401 53.9507 191.404 53.9507 191.407C53.9507 191.409 53.9507 191.412 53.9507 191.414C53.9507 191.417 53.9507 191.419 53.9507 191.422C53.9507 191.425 53.9507 191.427 53.9507 191.43C53.9507 191.432 53.9507 191.435 53.9507 191.437C53.9507 191.44 53.9507 191.442 53.9507 191.445C53.9507 191.447 53.9507 191.45 53.9507 191.452C53.9507 191.455 53.9507 191.457 53.9507 191.46C53.9507 191.462 53.9507 191.465 53.9507 191.467C53.9507 191.47 53.9507 191.472 53.9507 191.475C53.9507 191.477 53.9507 191.48 53.9507 191.482C53.9507 191.485 53.9507 191.487 53.9507 191.49C53.9507 191.492 53.9507 191.495 53.9507 191.497C53.9507 191.499 53.9507 191.502 53.9507 191.504C53.9507 191.507 53.9507 191.509 53.9507 191.512C53.9507 191.514 53.9507 191.516 53.9507 191.519C53.9507 191.521 53.9507 191.524 53.9507 191.526C53.9507 191.528 53.9507 191.531 53.9507 191.533C53.9507 191.536 53.9507 191.538 53.9507 191.54C53.9507 191.543 53.9507 191.545 53.9507 191.547C53.9507 191.55 53.9507 191.552 53.9507 191.554C53.9507 191.557 53.9507 191.559 53.9507 191.561C53.9507 191.564 53.9507 191.566 53.9507 191.568C53.9507 191.571 53.9507 191.573 53.9507 191.575C53.9507 191.578 53.9507 191.58 53.9507 191.582C53.9507 191.585 53.9507 191.587 53.9507 191.589C53.9507 191.591 53.9507 191.594 53.9507 191.596C53.9507 191.598 53.9507 191.6 53.9507 191.603C53.9507 191.605 53.9507 191.607 53.9507 191.609C53.9507 191.612 53.9507 191.614 53.9507 191.616C53.9507 191.618 53.9507 191.621 53.9507 191.623C53.9507 191.625 53.9507 191.627 53.9507 191.629C53.9507 191.632 53.9507 191.634 53.9507 191.636C53.9507 191.638 53.9507 191.64 53.9507 191.642C53.9507 191.645 53.9507 191.647 53.9507 191.649C53.9507 191.651 53.9507 191.653 53.9507 191.655C53.9507 191.658 53.9507 191.66 53.9507 191.662C53.9507 191.664 53.9507 191.666 53.9507 191.668C53.9507 191.67 53.9507 191.672 53.9507 191.675C53.9507 191.677 53.9507 191.679 53.9507 191.681C53.9507 191.683 53.9507 191.685 53.9507 191.687C53.9507 191.689 53.9507 191.691 53.9507 191.693C53.9507 191.695 53.9507 191.697 53.9507 191.7C53.9507 191.702 53.9507 191.704 53.9507 191.706C53.9507 191.708 53.9507 191.71 53.9507 191.712C53.9507 191.714 53.9507 191.716 53.9507 191.718H55.9507C55.9507 191.716 55.9507 191.714 55.9507 191.712C55.9507 191.71 55.9507 191.708 55.9507 191.706C55.9507 191.704 55.9507 191.702 55.9507 191.7C55.9507 191.697 55.9507 191.695 55.9507 191.693C55.9507 191.691 55.9507 191.689 55.9507 191.687C55.9507 191.685 55.9507 191.683 55.9507 191.681C55.9507 191.679 55.9507 191.677 55.9507 191.675C55.9507 191.672 55.9507 191.67 55.9507 191.668C55.9507 191.666 55.9507 191.664 55.9507 191.662C55.9507 191.66 55.9507 191.658 55.9507 191.655C55.9507 191.653 55.9507 191.651 55.9507 191.649C55.9507 191.647 55.9507 191.645 55.9507 191.642C55.9507 191.64 55.9507 191.638 55.9507 191.636C55.9507 191.634 55.9507 191.632 55.9507 191.629C55.9507 191.627 55.9507 191.625 55.9507 191.623C55.9507 191.621 55.9507 191.618 55.9507 191.616C55.9507 191.614 55.9507 191.612 55.9507 191.609C55.9507 191.607 55.9507 191.605 55.9507 191.603C55.9507 191.6 55.9507 191.598 55.9507 191.596C55.9507 191.594 55.9507 191.591 55.9507 191.589C55.9507 191.587 55.9507 191.585 55.9507 191.582C55.9507 191.58 55.9507 191.578 55.9507 191.575C55.9507 191.573 55.9507 191.571 55.9507 191.568C55.9507 191.566 55.9507 191.564 55.9507 191.561C55.9507 191.559 55.9507 191.557 55.9507 191.554C55.9507 191.552 55.9507 191.55 55.9507 191.547C55.9507 191.545 55.9507 191.543 55.9507 191.54C55.9507 191.538 55.9507 191.536 55.9507 191.533C55.9507 191.531 55.9507 191.528 55.9507 191.526C55.9507 191.524 55.9507 191.521 55.9507 191.519C55.9507 191.516 55.9507 191.514 55.9507 191.512C55.9507 191.509 55.9507 191.507 55.9507 191.504C55.9507 191.502 55.9507 191.499 55.9507 191.497C55.9507 191.495 55.9507 191.492 55.9507 191.49C55.9507 191.487 55.9507 191.485 55.9507 191.482C55.9507 191.48 55.9507 191.477 55.9507 191.475C55.9507 191.472 55.9507 191.47 55.9507 191.467C55.9507 191.465 55.9507 191.462 55.9507 191.46C55.9507 191.457 55.9507 191.455 55.9507 191.452C55.9507 191.45 55.9507 191.447 55.9507 191.445C55.9507 191.442 55.9507 191.44 55.9507 191.437C55.9507 191.435 55.9507 191.432 55.9507 191.43C55.9507 191.427 55.9507 191.425 55.9507 191.422C55.9507 191.419 55.9507 191.417 55.9507 191.414C55.9507 191.412 55.9507 191.409 55.9507 191.407C55.9507 191.404 55.9507 191.401 55.9507 191.399C55.9507 191.396 55.9507 191.394 55.9507 191.391C55.9507 191.388 55.9507 191.386 55.9507 191.383C55.9507 191.381 55.9507 191.378 55.9507 191.375C55.9507 191.373 55.9507 191.37 55.9507 191.367C55.9507 191.365 55.9507 191.362 55.9507 191.359C55.9507 191.357 55.9507 191.354 55.9507 191.351C55.9507 191.349 55.9507 191.346 55.9507 191.343C55.9507 191.341 55.9507 191.338 55.9507 191.335C55.9507 191.333 55.9507 191.33 55.9507 191.327C55.9507 191.325 55.9507 191.322 55.9507 191.319C55.9507 191.317 55.9507 191.314 55.9507 191.311C55.9507 191.308 55.9507 191.306 55.9507 191.303C55.9507 191.3 55.9507 191.297 55.9507 191.295C55.9507 191.292 55.9507 191.289 55.9507 191.286C55.9507 191.284 55.9507 191.281 55.9507 191.278C55.9507 191.275 55.9507 191.273 55.9507 191.27C55.9507 191.267 55.9507 191.264 55.9507 191.262C55.9507 191.259 55.9507 191.256 55.9507 191.253C55.9507 191.25 55.9507 191.248 55.9507 191.245C55.9507 191.242 55.9507 191.239 55.9507 191.236C55.9507 191.234 55.9507 191.231 55.9507 191.228C55.9507 191.225 55.9507 191.222 55.9507 191.219C55.9507 191.217 55.9507 191.214 55.9507 191.211C55.9507 191.208 55.9507 191.205 55.9507 191.202C55.9507 191.2 55.9507 191.197 55.9507 191.194C55.9507 191.191 55.9507 191.188 55.9507 191.185C55.9507 191.182 55.9507 191.179 55.9507 191.177C55.9507 191.174 55.9507 191.171 55.9507 191.168C55.9507 191.165 55.9507 191.162 55.9507 191.159C55.9507 191.156 55.9507 191.153 55.9507 191.15C55.9507 191.148 55.9507 191.145 55.9507 191.142C55.9507 191.139 55.9507 191.136 55.9507 191.133C55.9507 191.13 55.9507 191.127 55.9507 191.124C55.9507 191.121 55.9507 191.118 55.9507 191.115C55.9507 191.112 55.9507 191.109 55.9507 191.106C55.9507 191.103 55.9507 191.1 55.9507 191.097C55.9507 191.094 55.9507 191.091 55.9507 191.088C55.9507 191.086 55.9507 191.083 55.9507 191.08C55.9507 191.077 55.9507 191.074 55.9507 191.071C55.9507 191.068 55.9507 191.065 55.9507 191.062C55.9507 191.059 55.9507 191.055 55.9507 191.052C55.9507 191.049 55.9507 191.046 55.9507 191.043C55.9507 191.04 55.9507 191.037 55.9507 191.034C55.9507 191.031 55.9507 191.028 55.9507 191.025C55.9507 191.022 55.9507 191.019 55.9507 191.016C55.9507 191.013 55.9507 191.01 55.9507 191.007C55.9507 191.004 55.9507 191.001 55.9507 190.998C55.9507 190.995 55.9507 190.991 55.9507 190.988C55.9507 190.985 55.9507 190.982 55.9507 190.979C55.9507 190.976 55.9507 190.973 55.9507 190.97C55.9507 190.967 55.9507 190.964 55.9507 190.961C55.9507 190.957 55.9507 190.954 55.9507 190.951C55.9507 190.948 55.9507 190.945 55.9507 190.942C55.9507 190.939 55.9507 190.936 55.9507 190.932C55.9507 190.929 55.9507 190.926 55.9507 190.923C55.9507 190.92 55.9507 190.917 55.9507 190.914C55.9507 190.91 55.9507 190.907 55.9507 190.904C55.9507 190.901 55.9507 190.898 55.9507 190.895C55.9507 190.891 55.9507 190.888 55.9507 190.885C55.9507 190.882 55.9507 190.879 55.9507 190.876C55.9507 190.872 55.9507 190.869 55.9507 190.866C55.9507 190.863 55.9507 190.86 55.9507 190.856C55.9507 190.853 55.9507 190.85 55.9507 190.847C55.9507 190.844 55.9507 190.84 55.9507 190.837C55.9507 190.834 55.9507 190.831 55.9507 190.827C55.9507 190.824 55.9507 190.821 55.9507 190.818C55.9507 190.815 55.9507 190.811 55.9507 190.808C55.9507 190.805 55.9507 190.802 55.9507 190.798C55.9507 190.795 55.9507 190.792 55.9507 190.789C55.9507 190.785 55.9507 190.782 55.9507 190.779C55.9507 190.775 55.9507 190.772 55.9507 190.769C55.9507 190.766 55.9507 190.762 55.9507 190.759C55.9507 190.756 55.9507 190.753 55.9507 190.749C55.9507 190.746 55.9507 190.743 55.9507 190.739C55.9507 190.736 55.9507 190.733 55.9507 190.729C55.9507 190.726 55.9507 190.723 55.9507 190.72C55.9507 190.716 55.9507 190.713 55.9507 190.71C55.9507 190.706 55.9507 190.703 55.9507 190.7C55.9507 190.696 55.9507 190.693 55.9507 190.69C55.9507 190.686 55.9507 190.683 55.9507 190.68C55.9507 190.676 55.9507 190.673 55.9507 190.67C55.9507 190.666 55.9507 190.663 55.9507 190.66C55.9507 190.656 55.9507 190.653 55.9507 190.65C55.9507 190.646 55.9507 190.643 55.9507 190.639C55.9507 190.636 55.9507 190.633 55.9507 190.629C55.9507 190.626 55.9507 190.623 55.9507 190.619C55.9507 190.616 55.9507 190.612 55.9507 190.609C55.9507 190.606 55.9507 190.602 55.9507 190.599C55.9507 190.595 55.9507 190.592 55.9507 190.589C55.9507 190.585 55.9507 190.582 55.9507 190.578C55.9507 190.575 55.9507 190.572 55.9507 190.568C55.9507 190.565 55.9507 190.561 55.9507 190.558C55.9507 190.555 55.9507 190.551 55.9507 190.548C55.9507 190.544 55.9507 190.541 55.9507 190.537C55.9507 190.534 55.9507 190.531 55.9507 190.527C55.9507 190.524 55.9507 190.52 55.9507 190.517C55.9507 190.513 55.9507 190.51 55.9507 190.506C55.9507 190.503 55.9507 190.5 55.9507 190.496C55.9507 190.493 55.9507 190.489 55.9507 190.486C55.9507 190.482 55.9507 190.479 55.9507 190.475C55.9507 190.472 55.9507 190.468 55.9507 190.465C55.9507 190.461 55.9507 190.458 55.9507 190.454C55.9507 190.451 55.9507 190.447 55.9507 190.444C55.9507 190.44 55.9507 190.437 55.9507 190.433C55.9507 190.43 55.9507 190.427 55.9507 190.423C55.9507 190.42 55.9507 190.416 55.9507 190.412C55.9507 190.409 55.9507 190.405 55.9507 190.402C55.9507 190.398 55.9507 190.395 55.9507 190.391C55.9507 190.388 55.9507 190.384 55.9507 190.381C55.9507 190.377 55.9507 190.374 55.9507 190.37C55.9507 190.367 55.9507 190.363 55.9507 190.36C55.9507 190.356 55.9507 190.353 55.9507 190.349C55.9507 190.346 55.9507 190.342 55.9507 190.338C55.9507 190.335 55.9507 190.331 55.9507 190.328C55.9507 190.324 55.9507 190.321 55.9507 190.317C55.9507 190.314 55.9507 190.31 55.9507 190.307C55.9507 190.303 55.9507 190.299 55.9507 190.296C55.9507 190.292 55.9507 190.289 55.9507 190.285C55.9507 190.282 55.9507 190.278 55.9507 190.274C55.9507 190.271 55.9507 190.267 55.9507 190.264C55.9507 190.26 55.9507 190.257 55.9507 190.253C55.9507 190.249 55.9507 190.246 55.9507 190.242C55.9507 190.239 55.9507 190.235 55.9507 190.231C55.9507 190.228 55.9507 190.224 55.9507 190.221C55.9507 190.217 55.9507 190.213 55.9507 190.21C55.9507 190.206 55.9507 190.203 55.9507 190.199C55.9507 190.195 55.9507 190.192 55.9507 190.188C55.9507 190.185 55.9507 190.181 55.9507 190.177C55.9507 190.174 55.9507 190.17 55.9507 190.166C55.9507 190.163 55.9507 190.159 55.9507 190.156C55.9507 190.152 55.9507 190.148 55.9507 190.145C55.9507 190.141 55.9507 190.137 55.9507 190.134C55.9507 190.13 55.9507 190.127 55.9507 190.123C55.9507 190.119 55.9507 190.116 55.9507 190.112C55.9507 190.108 55.9507 190.105 55.9507 190.101C55.9507 190.097 55.9507 190.094 55.9507 190.09C55.9507 190.086 55.9507 190.083 55.9507 190.079C55.9507 190.075 55.9507 190.072 55.9507 190.068C55.9507 190.064 55.9507 190.061 55.9507 190.057C55.9507 190.054 55.9507 190.05 55.9507 190.046C55.9507 190.043 55.9507 190.039 55.9507 190.035C55.9507 190.031 55.9507 190.028 55.9507 190.024C55.9507 190.02 55.9507 190.017 55.9507 190.013C55.9507 190.009 55.9507 190.006 55.9507 190.002C55.9507 189.998 55.9507 189.995 55.9507 189.991C55.9507 189.987 55.9507 189.984 55.9507 189.98C55.9507 189.976 55.9507 189.973 55.9507 189.969C55.9507 189.965 55.9507 189.962 55.9507 189.958C55.9507 189.954 55.9507 189.95 55.9507 189.947C55.9507 189.943 55.9507 189.939 55.9507 189.936C55.9507 189.932 55.9507 189.928 55.9507 189.925C55.9507 189.921 55.9507 189.917 55.9507 189.913C55.9507 189.91 55.9507 189.906 55.9507 189.902C55.9507 189.899 55.9507 189.895 55.9507 189.891C55.9507 189.887 55.9507 189.884 55.9507 189.88C55.9507 189.876 55.9507 189.873 55.9507 189.869C55.9507 189.865 55.9507 189.861 55.9507 189.858C55.9507 189.854 55.9507 189.85 55.9507 189.846C55.9507 189.843 55.9507 189.839 55.9507 189.835C55.9507 189.832 55.9507 189.828 55.9507 189.824C55.9507 189.82 55.9507 189.817 55.9507 189.813C55.9507 189.809 55.9507 189.805 55.9507 189.802C55.9507 189.798 55.9507 189.794 55.9507 189.79C55.9507 189.787 55.9507 189.783 55.9507 189.779C55.9507 189.775 55.9507 189.772 55.9507 189.768C55.9507 189.764 55.9507 189.76 55.9507 189.757C55.9507 189.753 55.9507 189.749 55.9507 189.745C55.9507 189.742 55.9507 189.738 55.9507 189.734C55.9507 189.73 55.9507 189.727 55.9507 189.723C55.9507 189.719 55.9507 189.715 55.9507 189.712C55.9507 189.708 55.9507 189.704 55.9507 189.7C55.9507 189.697 55.9507 189.693 55.9507 189.689C55.9507 189.685 55.9507 189.682 55.9507 189.678C55.9507 189.674 55.9507 189.67 55.9507 189.667C55.9507 189.663 55.9507 189.659 55.9507 189.655C55.9507 189.652 55.9507 189.648 55.9507 189.644C55.9507 189.64 55.9507 189.636 55.9507 189.633C55.9507 189.629 55.9507 189.625 55.9507 189.621C55.9507 189.618 55.9507 189.614 55.9507 189.61C55.9507 189.606 55.9507 189.602 55.9507 189.599C55.9507 189.595 55.9507 189.591 55.9507 189.587C55.9507 189.584 55.9507 189.58 55.9507 189.576C55.9507 189.572 55.9507 189.568 55.9507 189.565C55.9507 189.561 55.9507 189.557 55.9507 189.553C55.9507 189.55 55.9507 189.546 55.9507 189.542C55.9507 189.538 55.9507 189.534 55.9507 189.531C55.9507 189.527 55.9507 189.523 55.9507 189.519C55.9507 189.515 55.9507 189.512 55.9507 189.508C55.9507 189.504 55.9507 189.5 55.9507 189.497C55.9507 189.493 55.9507 189.489 55.9507 189.485C55.9507 189.481 55.9507 189.478 55.9507 189.474C55.9507 189.47 55.9507 189.466 55.9507 189.462C55.9507 189.459 55.9507 189.455 55.9507 189.451C55.9507 189.447 55.9507 189.443 55.9507 189.44C55.9507 189.436 55.9507 189.432 55.9507 189.428C55.9507 189.424 55.9507 189.421 55.9507 189.417C55.9507 189.413 55.9507 189.409 55.9507 189.406C55.9507 189.402 55.9507 189.398 55.9507 189.394C55.9507 189.39 55.9507 189.387 55.9507 189.383C55.9507 189.379 55.9507 189.375 55.9507 189.371C55.9507 189.368 55.9507 189.364 55.9507 189.36C55.9507 189.356 55.9507 189.352 55.9507 189.349C55.9507 189.345 55.9507 189.341 55.9507 189.337C55.9507 189.333 55.9507 189.33 55.9507 189.326C55.9507 189.322 55.9507 189.318 55.9507 189.314C55.9507 189.311 55.9507 189.307 55.9507 189.303C55.9507 189.299 55.9507 189.295 55.9507 189.292C55.9507 189.288 55.9507 189.284 55.9507 189.28C55.9507 189.276 55.9507 189.273 55.9507 189.269C55.9507 189.265 55.9507 189.261 55.9507 189.257C55.9507 189.254 55.9507 189.25 55.9507 189.246C55.9507 189.242 55.9507 189.238 55.9507 189.235C55.9507 189.231 55.9507 189.227 55.9507 189.223C55.9507 189.219 55.9507 189.216 55.9507 189.212C55.9507 189.208 55.9507 189.204 55.9507 189.2C55.9507 189.197 55.9507 189.193 55.9507 189.189C55.9507 189.185 55.9507 189.181 55.9507 189.178C55.9507 189.174 55.9507 189.17 55.9507 189.166C55.9507 189.162 55.9507 189.159 55.9507 189.155C55.9507 189.151 55.9507 189.147 55.9507 189.143C55.9507 189.14 55.9507 189.136 55.9507 189.132C55.9507 189.128 55.9507 189.124 55.9507 189.121C55.9507 189.117 55.9507 189.113 55.9507 189.109C55.9507 189.105 55.9507 189.102 55.9507 189.098C55.9507 189.094 55.9507 189.09 55.9507 189.086C55.9507 189.083 55.9507 189.079 55.9507 189.075C55.9507 189.071 55.9507 189.067 55.9507 189.064C55.9507 189.06 55.9507 189.056 55.9507 189.052C55.9507 189.048 55.9507 189.045 55.9507 189.041C55.9507 189.037 55.9507 189.033 55.9507 189.029C55.9507 189.026 55.9507 189.022 55.9507 189.018C55.9507 189.014 55.9507 189.011 55.9507 189.007C55.9507 189.003 55.9507 188.999 55.9507 188.995C55.9507 188.992 55.9507 188.988 55.9507 188.984C55.9507 188.98 55.9507 188.976 55.9507 188.973C55.9507 188.969 55.9507 188.965 55.9507 188.961C55.9507 188.958 55.9507 188.954 55.9507 188.95C55.9507 188.946 55.9507 188.942 55.9507 188.939C55.9507 188.935 55.9507 188.931 55.9507 188.927C55.9507 188.924 55.9507 188.92 55.9507 188.916C55.9507 188.912 55.9507 188.908 55.9507 188.905C55.9507 188.901 55.9507 188.897 55.9507 188.893C55.9507 188.89 55.9507 188.886 55.9507 188.882C55.9507 188.878 55.9507 188.874 55.9507 188.871C55.9507 188.867 55.9507 188.863 55.9507 188.859C55.9507 188.856 55.9507 188.852 55.9507 188.848C55.9507 188.844 55.9507 188.841 55.9507 188.837C55.9507 188.833 55.9507 188.829 55.9507 188.826C55.9507 188.822 55.9507 188.818 55.9507 188.814C55.9507 188.81 55.9507 188.807 55.9507 188.803C55.9507 188.799 55.9507 188.795 55.9507 188.792C55.9507 188.788 55.9507 188.784 55.9507 188.78C55.9507 188.777 55.9507 188.773 55.9507 188.769C55.9507 188.765 55.9507 188.762 55.9507 188.758C55.9507 188.754 55.9507 188.75 55.9507 188.747C55.9507 188.743 55.9507 188.739 55.9507 188.735C55.9507 188.732 55.9507 188.728 55.9507 188.724C55.9507 188.72 55.9507 188.717 55.9507 188.713C55.9507 188.709 55.9507 188.706 55.9507 188.702C55.9507 188.698 55.9507 188.694 55.9507 188.691C55.9507 188.687 55.9507 188.683 55.9507 188.679C55.9507 188.676 55.9507 188.672 55.9507 188.668C55.9507 188.664 55.9507 188.661 55.9507 188.657C55.9507 188.653 55.9507 188.65 55.9507 188.646C55.9507 188.642 55.9507 188.638 55.9507 188.635C55.9507 188.631 55.9507 188.627 55.9507 188.624C55.9507 188.62 55.9507 188.616 55.9507 188.612C55.9507 188.609 55.9507 188.605 55.9507 188.601C55.9507 188.598 55.9507 188.594 55.9507 188.59C55.9507 188.586 55.9507 188.583 55.9507 188.579C55.9507 188.575 55.9507 188.572 55.9507 188.568C55.9507 188.564 55.9507 188.561 55.9507 188.557C55.9507 188.553 55.9507 188.549 55.9507 188.546C55.9507 188.542 55.9507 188.538 55.9507 188.535C55.9507 188.531 55.9507 188.527 55.9507 188.524C55.9507 188.52 55.9507 188.516 55.9507 188.513C55.9507 188.509 55.9507 188.505 55.9507 188.502C55.9507 188.498 55.9507 188.494 55.9507 188.491C55.9507 188.487 55.9507 188.483 55.9507 188.48C55.9507 188.476 55.9507 188.472 55.9507 188.469C55.9507 188.465 55.9507 188.461 55.9507 188.458C55.9507 188.454 55.9507 188.45 55.9507 188.447C55.9507 188.443 55.9507 188.439 55.9507 188.436C55.9507 188.432 55.9507 188.428 55.9507 188.425C55.9507 188.421 55.9507 188.417 55.9507 188.414C55.9507 188.41 55.9507 188.406 55.9507 188.403C55.9507 188.399 55.9507 188.395 55.9507 188.392C55.9507 188.388 55.9507 188.385 55.9507 188.381C55.9507 188.377 55.9507 188.374 55.9507 188.37C55.9507 188.366 55.9507 188.363 55.9507 188.359C55.9507 188.355 55.9507 188.352 55.9507 188.348C55.9507 188.345 55.9507 188.341 55.9507 188.337C55.9507 188.334 55.9507 188.33 55.9507 188.327C55.9507 188.323 55.9507 188.319 55.9507 188.316C55.9507 188.312 55.9507 188.308 55.9507 188.305C55.9507 188.301 55.9507 188.298 55.9507 188.294C55.9507 188.29 55.9507 188.287 55.9507 188.283C55.9507 188.28 55.9507 188.276 55.9507 188.273C55.9507 188.269 55.9507 188.265 55.9507 188.262C55.9507 188.258 55.9507 188.255 55.9507 188.251C55.9507 188.247 55.9507 188.244 55.9507 188.24C55.9507 188.237 55.9507 188.233 55.9507 188.23C55.9507 188.226 55.9507 188.222 55.9507 188.219C55.9507 188.215 55.9507 188.212 55.9507 188.208C55.9507 188.205 55.9507 188.201 55.9507 188.197C55.9507 188.194 55.9507 188.19 55.9507 188.187C55.9507 188.183 55.9507 188.18 55.9507 188.176C55.9507 188.173 55.9507 188.169 55.9507 188.166C55.9507 188.162 55.9507 188.158 55.9507 188.155C55.9507 188.151 55.9507 188.148 55.9507 188.144C55.9507 188.141 55.9507 188.137 55.9507 188.134C55.9507 188.13 55.9507 188.127 55.9507 188.123C55.9507 188.12 55.9507 188.116 55.9507 188.113C55.9507 188.109 55.9507 188.106 55.9507 188.102C55.9507 188.099 55.9507 188.095 55.9507 188.092C55.9507 188.088 55.9507 188.085 55.9507 188.081C55.9507 188.078 55.9507 188.074 55.9507 188.071C55.9507 188.067 55.9507 188.064 55.9507 188.06C55.9507 188.057 55.9507 188.053 55.9507 188.05C55.9507 188.046 55.9507 188.043 55.9507 188.039C55.9507 188.036 55.9507 188.032 55.9507 188.029C55.9507 188.026 55.9507 188.022 55.9507 188.019C55.9507 188.015 55.9507 188.012 55.9507 188.008C55.9507 188.005 55.9507 188.001 55.9507 187.998C55.9507 187.994 55.9507 187.991 55.9507 187.988C55.9507 187.984 55.9507 187.981 55.9507 187.977C55.9507 187.974 55.9507 187.97 55.9507 187.967C55.9507 187.964 55.9507 187.96 55.9507 187.957C55.9507 187.953 55.9507 187.95 55.9507 187.946C55.9507 187.943 55.9507 187.94 55.9507 187.936C55.9507 187.933 55.9507 187.929 55.9507 187.926C55.9507 187.923 55.9507 187.919 55.9507 187.916C55.9507 187.912 55.9507 187.909 55.9507 187.906C55.9507 187.902 55.9507 187.899 55.9507 187.895C55.9507 187.892 55.9507 187.889 55.9507 187.885C55.9507 187.882 55.9507 187.879 55.9507 187.875C55.9507 187.872 55.9507 187.869 55.9507 187.865C55.9507 187.862 55.9507 187.858 55.9507 187.855C55.9507 187.852 55.9507 187.848 55.9507 187.845C55.9507 187.842 55.9507 187.838 55.9507 187.835C55.9507 187.832 55.9507 187.828 55.9507 187.825C55.9507 187.822 55.9507 187.818 55.9507 187.815C55.9507 187.812 55.9507 187.808 55.9507 187.805C55.9507 187.802 55.9507 187.798 55.9507 187.795C55.9507 187.792 55.9507 187.788 55.9507 187.785C55.9507 187.782 55.9507 187.779 55.9507 187.775C55.9507 187.772 55.9507 187.769 55.9507 187.765C55.9507 187.762 55.9507 187.759 55.9507 187.756C55.9507 187.752 55.9507 187.749 55.9507 187.746C55.9507 187.742 55.9507 187.739 55.9507 187.736C55.9507 187.733 55.9507 187.729 55.9507 187.726C55.9507 187.723 55.9507 187.72 55.9507 187.716C55.9507 187.713 55.9507 187.71 55.9507 187.707C55.9507 187.703 55.9507 187.7 55.9507 187.697C55.9507 187.694 55.9507 187.69 55.9507 187.687C55.9507 187.684 55.9507 187.681 55.9507 187.678C55.9507 187.674 55.9507 187.671 55.9507 187.668C55.9507 187.665 55.9507 187.662 55.9507 187.658C55.9507 187.655 55.9507 187.652 55.9507 187.649C55.9507 187.646 55.9507 187.642 55.9507 187.639C55.9507 187.636 55.9507 187.633 55.9507 187.63C55.9507 187.626 55.9507 187.623 55.9507 187.62C55.9507 187.617 55.9507 187.614 55.9507 187.611C55.9507 187.607 55.9507 187.604 55.9507 187.601C55.9507 187.598 55.9507 187.595 55.9507 187.592C55.9507 187.589 55.9507 187.585 55.9507 187.582C55.9507 187.579 55.9507 187.576 55.9507 187.573C55.9507 187.57 55.9507 187.567 55.9507 187.563C55.9507 187.56 55.9507 187.557 55.9507 187.554C55.9507 187.551 55.9507 187.548 55.9507 187.545C55.9507 187.542 55.9507 187.539 55.9507 187.536C55.9507 187.532 55.9507 187.529 55.9507 187.526C55.9507 187.523 55.9507 187.52 55.9507 187.517C55.9507 187.514 55.9507 187.511 55.9507 187.508C55.9507 187.505 55.9507 187.502 55.9507 187.499C55.9507 187.496 55.9507 187.493 55.9507 187.489C55.9507 187.486 55.9507 187.483 55.9507 187.48C55.9507 187.477 55.9507 187.474 55.9507 187.471C55.9507 187.468 55.9507 187.465 55.9507 187.462C55.9507 187.459 55.9507 187.456 55.9507 187.453C55.9507 187.45 55.9507 187.447 55.9507 187.444C55.9507 187.441 55.9507 187.438 55.9507 187.435C55.9507 187.432 55.9507 187.429 55.9507 187.426C55.9507 187.423 55.9507 187.42 55.9507 187.417C55.9507 187.414 55.9507 187.411 55.9507 187.408C55.9507 187.405 55.9507 187.402 55.9507 187.399C55.9507 187.397 55.9507 187.394 55.9507 187.391C55.9507 187.388 55.9507 187.385 55.9507 187.382C55.9507 187.379 55.9507 187.376 55.9507 187.373C55.9507 187.37 55.9507 187.367 55.9507 187.364C55.9507 187.361 55.9507 187.358 55.9507 187.356C55.9507 187.353 55.9507 187.35 55.9507 187.347C55.9507 187.344 55.9507 187.341 55.9507 187.338C55.9507 187.335 55.9507 187.332 55.9507 187.33C55.9507 187.327 55.9507 187.324 55.9507 187.321C55.9507 187.318 55.9507 187.315 55.9507 187.312C55.9507 187.309 55.9507 187.307 55.9507 187.304C55.9507 187.301 55.9507 187.298 55.9507 187.295C55.9507 187.292 55.9507 187.29 55.9507 187.287C55.9507 187.284 55.9507 187.281 55.9507 187.278C55.9507 187.275 55.9507 187.273 55.9507 187.27C55.9507 187.267 55.9507 187.264 55.9507 187.261C55.9507 187.259 55.9507 187.256 55.9507 187.253C55.9507 187.25 55.9507 187.248 55.9507 187.245C55.9507 187.242 55.9507 187.239 55.9507 187.236C55.9507 187.234 55.9507 187.231 55.9507 187.228C55.9507 187.225 55.9507 187.223 55.9507 187.22C55.9507 187.217 55.9507 187.214 55.9507 187.212C55.9507 187.209 55.9507 187.206 55.9507 187.204C55.9507 187.201 55.9507 187.198 55.9507 187.195C55.9507 187.193 55.9507 187.19 55.9507 187.187C55.9507 187.185 55.9507 187.182 55.9507 187.179C55.9507 187.177 55.9507 187.174 55.9507 187.171C55.9507 187.169 55.9507 187.166 55.9507 187.163C55.9507 187.161 55.9507 187.158 55.9507 187.155C55.9507 187.153 55.9507 187.15 55.9507 187.147C55.9507 187.145 55.9507 187.142 55.9507 187.139C55.9507 187.137 55.9507 187.134 55.9507 187.132C55.9507 187.129 55.9507 187.126 55.9507 187.124C55.9507 187.121 55.9507 187.119 55.9507 187.116C55.9507 187.113 55.9507 187.111 55.9507 187.108C55.9507 187.106 55.9507 187.103 55.9507 187.1C55.9507 187.098 55.9507 187.095 55.9507 187.093C55.9507 187.09 55.9507 187.088 55.9507 187.085C55.9507 187.082 55.9507 187.08 55.9507 187.077C55.9507 187.075 55.9507 187.072 55.9507 187.07C55.9507 187.067 55.9507 187.065 55.9507 187.062C55.9507 187.06 55.9507 187.057 55.9507 187.055C55.9507 187.052 55.9507 187.05 55.9507 187.047C55.9507 187.045 55.9507 187.042 55.9507 187.04C55.9507 187.037 55.9507 187.035 55.9507 187.032C55.9507 187.03 55.9507 187.027 55.9507 187.025C55.9507 187.023 55.9507 187.02 55.9507 187.018C55.9507 187.015 55.9507 187.013 55.9507 187.01C55.9507 187.008 55.9507 187.006 55.9507 187.003C55.9507 187.001 55.9507 186.998 55.9507 186.996C55.9507 186.993 55.9507 186.991 55.9507 186.989C55.9507 186.986 55.9507 186.984 55.9507 186.982C55.9507 186.979 55.9507 186.977 55.9507 186.974C55.9507 186.972 55.9507 186.97 55.9507 186.967C55.9507 186.965 55.9507 186.963 55.9507 186.96C55.9507 186.958 55.9507 186.956 55.9507 186.953C55.9507 186.951 55.9507 186.949 55.9507 186.946C55.9507 186.944 55.9507 186.942 55.9507 186.939C55.9507 186.937 55.9507 186.935 55.9507 186.932C55.9507 186.93 55.9507 186.928 55.9507 186.926C55.9507 186.923 55.9507 186.921 55.9507 186.919C55.9507 186.917 55.9507 186.914 55.9507 186.912C55.9507 186.91 55.9507 186.908 55.9507 186.905C55.9507 186.903 55.9507 186.901 55.9507 186.899C55.9507 186.896 55.9507 186.894 55.9507 186.892C55.9507 186.89 55.9507 186.887 55.9507 186.885C55.9507 186.883 55.9507 186.881 55.9507 186.879C55.9507 186.877 55.9507 186.874 55.9507 186.872C55.9507 186.87 55.9507 186.868 55.9507 186.866C55.9507 186.864 55.9507 186.861 55.9507 186.859C55.9507 186.857 55.9507 186.855 55.9507 186.853C55.9507 186.851 55.9507 186.849 55.9507 186.846C55.9507 186.844 55.9507 186.842 55.9507 186.84C55.9507 186.838 55.9507 186.836 55.9507 186.834C55.9507 186.832 55.9507 186.83 55.9507 186.828C55.9507 186.825 55.9507 186.823 55.9507 186.821C55.9507 186.819 55.9507 186.817 55.9507 186.815C55.9507 186.813 55.9507 186.811 55.9507 186.809C55.9507 186.807 55.9507 186.805 55.9507 186.803C55.9507 186.801 55.9507 186.799 55.9507 186.797H53.9507ZM95.6743 196.291C95.7332 196.271 95.8417 196.24 96.0485 196.178C96.231 196.123 96.4594 196.053 96.6825 195.971C96.8947 195.893 97.1554 195.786 97.3792 195.645C97.4904 195.575 97.6375 195.469 97.7665 195.318C97.8957 195.167 98.0661 194.899 98.0661 194.532H96.0661C96.0661 194.257 96.1938 194.08 96.2468 194.018C96.2996 193.956 96.3371 193.937 96.3144 193.952C96.2706 193.979 96.1671 194.029 95.9926 194.094C95.8292 194.154 95.6487 194.21 95.4744 194.262C95.3245 194.307 95.1282 194.363 95.0089 194.405L95.6743 196.291ZM98.0661 194.532C98.0661 193.628 98.1104 192.572 98.156 191.5C98.2011 190.44 98.2477 189.36 98.2477 188.45H96.2477C96.2477 189.309 96.2035 190.341 96.1578 191.415C96.1126 192.477 96.0661 193.577 96.0661 194.532H98.0661ZM53.9507 191.718C53.9507 193.011 54.8172 193.963 55.8628 194.632C56.9226 195.31 58.3756 195.842 60.0385 196.266C63.38 197.119 67.8568 197.609 72.4978 197.822C77.1502 198.035 82.0192 197.972 86.1678 197.701C90.2762 197.433 93.7947 196.955 95.6743 196.291L95.0089 194.405C93.4185 194.967 90.1531 195.437 86.0375 195.705C81.9623 195.972 77.1673 196.034 72.5894 195.824C68.0003 195.613 63.6805 195.132 60.5331 194.328C58.9516 193.925 57.7371 193.457 56.9404 192.947C56.1295 192.429 55.9507 192.005 55.9507 191.718H53.9507Z" fill="#292922"/>
<path d="M58.3351 214.045L57.6103 213.356L58.3351 214.045ZM96.8441 214.045L96.0626 214.669L96.8441 214.045ZM57.6103 213.356C57.0571 213.938 56.6558 214.6 56.5897 215.337C56.5202 216.114 56.8385 216.775 57.3232 217.288C57.7893 217.781 58.4351 218.17 59.1527 218.487C59.8807 218.809 60.7438 219.084 61.7002 219.319C65.5039 220.253 71.1615 220.643 76.8168 220.573C82.4785 220.504 88.2501 219.971 92.2944 219.008C94.285 218.534 95.999 217.925 97.0499 217.121C97.5826 216.714 98.0624 216.167 98.2059 215.452C98.3571 214.699 98.0892 214.002 97.6257 213.421L96.0626 214.669C96.2791 214.94 96.2465 215.051 96.245 215.059C96.2358 215.105 96.1747 215.273 95.835 215.533C95.1411 216.063 93.7844 216.597 91.8312 217.062C87.9878 217.977 82.3794 218.505 76.7921 218.574C71.1981 218.643 65.7375 218.251 62.1771 217.377C61.2924 217.159 60.5491 216.918 59.9619 216.658C59.3644 216.394 58.9863 216.135 58.7763 215.913C58.5849 215.711 58.5751 215.59 58.5818 215.516C58.592 215.402 58.6714 215.143 59.06 214.734L57.6103 213.356ZM97.6257 213.421C96.8874 212.497 95.7591 211.766 94.4454 211.182C93.1188 210.592 91.5265 210.117 89.7763 209.747C86.2749 209.005 82.0409 208.658 77.8121 208.679C73.5821 208.699 69.3151 209.087 65.7454 209.837C63.9608 210.212 62.3297 210.681 60.956 211.251C59.5948 211.815 58.4194 212.505 57.6103 213.356L59.06 214.734C59.5963 214.17 60.4841 213.611 61.7221 213.098C62.9476 212.59 64.4517 212.152 66.1565 211.794C69.5656 211.078 73.694 210.698 77.8217 210.679C81.9504 210.659 86.0361 210.999 89.362 211.703C91.0254 212.056 92.4736 212.494 93.6327 213.009C94.8045 213.53 95.6069 214.098 96.0626 214.669L97.6257 213.421Z" fill="#292922"/>
<path d="M64.165 218.427L63.3679 217.824L62.5418 218.914L63.8316 219.37L64.165 218.427ZM91.0836 217.979L91.3581 218.94L92.8365 218.518L91.8513 217.338L91.0836 217.979ZM64.9621 219.031C67.5106 215.667 72.4448 213.89 77.5886 213.847C82.7341 213.805 87.7131 215.501 90.3159 218.62L91.8513 217.338C88.721 213.588 83.0485 211.802 77.572 211.848C72.0937 211.893 66.4351 213.775 63.3679 217.824L64.9621 219.031ZM63.8316 219.37C64.3389 219.55 65.1903 219.717 66.1801 219.869C67.1973 220.026 68.4406 220.178 69.781 220.311C72.4587 220.578 75.5626 220.773 78.073 220.773V218.773C75.6482 218.773 72.6137 218.583 69.979 218.321C68.6632 218.19 67.4568 218.042 66.4844 217.893C65.4847 217.739 64.8067 217.594 64.4985 217.485L63.8316 219.37ZM78.073 220.773C82.7614 220.773 88.1377 219.86 91.3581 218.94L90.8091 217.017C87.7486 217.891 82.5573 218.773 78.073 218.773V220.773Z" fill="#292922"/>
<path d="M58.8414 215.246C58.8937 214.696 58.4905 214.208 57.9407 214.156C57.3909 214.104 56.9027 214.507 56.8504 215.057L58.8414 215.246ZM56.4129 232.471L57.4101 232.545L56.4129 232.471ZM99.2854 215.544C99.1108 215.02 98.5445 214.737 98.0205 214.912C97.4966 215.086 97.2134 215.653 97.3881 216.177L99.2854 215.544ZM56.8504 215.057C56.3605 220.2 55.871 226.319 55.4157 232.396L57.4101 232.545C57.8651 226.473 58.3534 220.369 58.8414 215.246L56.8504 215.057ZM55.4157 232.396C55.2902 234.072 56.1179 235.426 57.4088 236.451C58.6751 237.455 60.4562 238.208 62.4954 238.769C66.5883 239.895 72.0497 240.334 77.4764 240.227C82.9091 240.12 88.3953 239.464 92.5521 238.351C94.6229 237.796 96.4253 237.112 97.7331 236.287C99.0004 235.487 100.063 234.383 100.063 232.924H98.0629C98.0629 233.317 97.7691 233.9 96.6659 234.596C95.6032 235.266 94.0209 235.887 92.0347 236.419C88.0775 237.478 82.7606 238.123 77.437 238.227C72.1075 238.332 66.8596 237.895 63.0259 236.841C61.1019 236.311 59.6154 235.648 58.6518 234.884C57.7127 234.139 57.3482 233.372 57.4101 232.545L55.4157 232.396ZM100.063 232.924C100.063 231.616 100.063 227.885 99.9727 224.206C99.9273 222.367 99.8588 220.531 99.7552 219.012C99.7034 218.253 99.6422 217.564 99.5691 216.988C99.4985 216.43 99.4096 215.917 99.2854 215.544L97.3881 216.177C97.446 216.35 97.5164 216.698 97.585 217.239C97.6513 217.762 97.7094 218.41 97.7598 219.149C97.8606 220.625 97.9282 222.428 97.9733 224.255C98.0634 227.907 98.0629 231.616 98.0629 232.924H100.063Z" fill="#292922"/>
<path d="M95.7977 196.075C95.7977 199.356 95.7977 202.637 95.7977 205.918C95.7977 206.954 95.629 208.036 96.1205 208.964C96.3584 209.413 96.7985 209.783 97.1592 210.144C98.6557 211.64 98.5886 215.873 97.9761 214.955" stroke="#292922" stroke-width="2" stroke-linecap="round"/>
<path d="M56.0375 229.297C53.5004 229.297 52.1058 230.177 50.047 231.435C42.3101 236.163 39.9613 253.08 37.7431 260.843C37.238 262.611 37.0137 266.303 37.844 267.963C38.5791 269.433 39.9796 270.586 41.5553 271.231C43.176 271.894 44.8909 272.652 46.5575 273.187C53.5601 275.438 63.256 277.745 70.5601 277.947C74.3559 278.053 78.5165 279.285 82.1782 277.947C103.03 270.329 123.761 263.606 144.222 255.155C153.383 251.371 164.422 254.999 174.933 254.999" stroke="#292922" stroke-width="2" stroke-linecap="round"/>
<path d="M22.7412 2.3727C22.4077 1.93248 21.7805 1.84597 21.3402 2.17947C20.9 2.51297 20.8135 3.1402 21.147 3.58042L22.7412 2.3727ZM70.3141 60.4183L69.6275 61.1453L70.3141 60.4183ZM113.23 82.849L113.078 83.8374L113.23 82.849ZM150.636 100.96L149.799 101.507L150.636 100.96ZM202.19 242.228L201.191 242.266L202.19 242.228ZM201.2 249.894L200.703 249.026L201.2 249.894ZM174.937 253.997C174.384 253.997 173.937 254.444 173.937 254.997C173.937 255.549 174.384 255.997 174.937 255.997V253.997ZM110.098 80.1141C110.098 80.6636 110.11 81.1556 110.171 81.5712C110.233 81.9921 110.358 82.4319 110.655 82.811C110.961 83.2009 111.362 83.4158 111.762 83.552C112.144 83.6821 112.597 83.7633 113.078 83.8374L113.382 81.8606C112.9 81.7865 112.605 81.7262 112.407 81.6587C112.315 81.6275 112.267 81.602 112.245 81.5879C112.234 81.5812 112.23 81.5771 112.228 81.5762C112.228 81.5757 112.228 81.5755 112.228 81.5757C112.228 81.5758 112.228 81.5759 112.228 81.576C112.228 81.576 112.228 81.5761 112.228 81.5761C112.228 81.5761 112.228 81.5762 112.228 81.5762C112.228 81.5762 112.228 81.5761 112.228 81.5761C112.228 81.576 112.228 81.576 112.228 81.5758C112.228 81.5756 112.228 81.5752 112.227 81.5746C112.226 81.5734 112.225 81.5711 112.223 81.5676C112.219 81.5604 112.213 81.5471 112.205 81.5251C112.188 81.4792 112.168 81.4032 112.15 81.2804C112.112 81.0238 112.098 80.6621 112.098 80.1141H110.098ZM201.191 242.266C201.227 243.202 201.382 244.772 201.331 246.316C201.306 247.078 201.231 247.757 201.088 248.275C200.934 248.83 200.759 248.994 200.703 249.026L201.696 250.762C202.455 250.329 202.82 249.513 203.015 248.809C203.22 248.068 203.303 247.207 203.33 246.381C203.384 244.75 203.219 242.953 203.189 242.189L201.191 242.266ZM113.078 83.8374C118.958 84.742 126.519 86.6391 133.441 89.5945C140.391 92.5623 146.548 96.5348 149.799 101.507L151.473 100.413C147.896 94.9426 141.298 90.7747 134.226 87.7552C127.125 84.7233 119.398 82.7862 113.382 81.8606L113.078 83.8374ZM200.703 249.026C192.711 253.593 184.108 253.997 174.937 253.997V255.997C184.112 255.997 193.2 255.617 201.696 250.762L200.703 249.026ZM149.799 101.507C161.743 119.775 174.177 144.021 183.834 169.192C193.495 194.372 200.35 220.407 201.191 242.266L203.189 242.189C202.337 220.022 195.401 193.756 185.702 168.475C175.998 143.185 163.502 118.81 151.473 100.413L149.799 101.507ZM21.147 3.58042C36.9551 24.4471 50.3117 42.9026 69.6275 61.1453L71.0008 59.6913C51.8319 41.5874 38.5833 23.2843 22.7412 2.3727L21.147 3.58042ZM69.6275 61.1453C72.1519 63.5294 76.1248 64.5796 80.3825 65.2237C82.5377 65.5497 84.8293 65.7788 87.1262 66.0048C89.4324 66.2316 91.7454 66.4553 93.9847 66.7709C98.4898 67.4059 102.533 68.3952 105.441 70.3934C108.267 72.3356 110.098 75.284 110.098 80.1141H112.098C112.098 74.6592 109.97 71.0792 106.574 68.7451C103.259 66.467 98.8153 65.4321 94.2638 64.7905C91.9748 64.4678 89.6171 64.2401 87.322 64.0144C85.0175 63.7877 82.7771 63.5631 80.6816 63.2462C76.4378 62.6042 73.0339 61.6115 71.0008 59.6913L69.6275 61.1453Z" fill="#292922"/>
<path d="M107.276 106.398C106.749 106.233 106.188 106.527 106.024 107.054C105.859 107.581 106.153 108.142 106.68 108.307L107.276 106.398ZM118.676 109.94L118.913 108.969L118.676 109.94ZM127.935 116.939L128.867 116.577L127.935 116.939ZM124.662 151.136L124.449 150.159L124.662 151.136ZM95.0111 156.271C94.469 156.377 94.1154 156.902 94.2212 157.444C94.327 157.986 94.8521 158.34 95.3942 158.234L95.0111 156.271ZM106.68 108.307C108.692 108.936 110.732 109.364 112.71 109.746C114.704 110.131 116.61 110.465 118.438 110.912L118.913 108.969C117.022 108.507 115.036 108.158 113.089 107.782C111.125 107.403 109.176 106.992 107.276 106.398L106.68 108.307ZM118.438 110.912C121.164 111.578 122.834 112.098 124.064 112.961C125.242 113.788 126.109 115.002 127.003 117.302L128.867 116.577C127.902 114.093 126.845 112.469 125.212 111.324C123.631 110.214 121.6 109.626 118.913 108.969L118.438 110.912ZM131.802 145.042C131.802 146.008 131.562 146.714 131.196 147.259C130.823 147.814 130.278 148.262 129.58 148.636C128.14 149.409 126.277 149.761 124.449 150.159L124.875 152.113C126.569 151.744 128.777 151.337 130.526 150.399C131.423 149.918 132.252 149.272 132.856 148.375C133.465 147.468 133.802 146.365 133.802 145.042H131.802ZM127.003 117.302C130.104 125.273 131.802 136.356 131.802 145.042H133.802C133.802 136.164 132.076 124.827 128.867 116.577L127.003 117.302ZM124.449 150.159C113.368 152.575 110.198 153.307 95.0111 156.271L95.3942 158.234C110.603 155.265 113.789 154.53 124.875 152.113L124.449 150.159Z" fill="#292922"/>
</svg>
