<svg width="160" height="237" viewBox="0 0 160 237" fill="none" xmlns="http://www.w3.org/2000/svg">
<circle cx="70.6399" cy="78.6233" r="51.8928" stroke="#292922" stroke-width="2"/>
<circle cx="118.358" cy="40.1035" r="23.7217" stroke="#292922" stroke-width="2"/>
<circle cx="43.6181" cy="120.593" r="23.7217" fill="#292922" stroke="#292922" stroke-width="2"/>
<path d="M46.6533 188.863C46.6533 185.303 48.3533 182.963 51.2933 182.963C53.6933 182.963 54.7333 184.303 55.0533 185.903H56.7333C56.2733 183.303 54.4133 181.503 51.2933 181.503C47.6133 181.503 44.8933 184.383 44.8933 188.863C44.8933 193.363 47.6133 196.263 51.2933 196.263C54.4133 196.263 56.2733 194.463 56.7333 191.863H55.0533C54.7333 193.463 53.6933 194.803 51.2933 194.803C48.3533 194.803 46.6533 192.423 46.6533 188.863ZM59.2642 183.863H61.1442V181.843H59.2642V183.863ZM59.3842 196.023H61.0442V185.963H59.3842V196.023ZM66.2591 196.023V181.303H64.5991V196.023H66.2591ZM69.6939 183.863H71.5739V181.843H69.6939V183.863ZM69.8139 196.023H71.4739V185.963H69.8139V196.023ZM76.6288 185.963H75.0288V196.023H76.6888V190.483C76.6888 188.063 77.9088 187.083 79.4488 187.083C81.0288 187.083 81.8488 188.043 81.8488 189.903V196.023H83.5088V189.543C83.5088 187.143 82.1688 185.723 79.9088 185.723C78.3688 185.723 77.1088 186.563 76.6288 187.803V185.963ZM86.8424 183.863H88.7224V181.843H86.8424V183.863ZM86.9624 196.023H88.6224V185.963H86.9624V196.023ZM91.4372 191.003C91.4372 194.223 93.3772 196.263 96.1772 196.263C98.4172 196.263 99.8972 195.003 100.217 192.843H98.6372C98.3572 194.183 97.5372 194.923 96.1772 194.923C94.1972 194.923 93.0772 193.363 93.0772 191.003C93.0772 188.643 94.1972 187.063 96.1772 187.063C97.5372 187.063 98.3572 187.803 98.6372 189.143H100.217C99.8972 187.003 98.4172 185.723 96.1772 185.723C93.3772 185.723 91.4372 187.783 91.4372 191.003ZM102.098 193.043C102.278 195.203 104.078 196.263 106.478 196.263C108.738 196.263 110.398 194.963 110.398 193.203C110.398 191.583 109.438 190.783 107.798 190.463L105.798 190.083C104.638 189.863 104.038 189.503 104.038 188.643C104.038 187.663 104.898 187.003 106.238 187.003C107.618 187.003 108.518 187.603 108.638 188.623H110.178C109.978 186.723 108.558 185.723 106.238 185.723C104.018 185.723 102.498 187.043 102.498 188.743C102.498 190.503 103.678 191.163 105.298 191.463L107.078 191.823C108.358 192.063 108.838 192.543 108.838 193.283C108.838 194.363 107.838 195.003 106.458 195.003C105.098 195.003 103.818 194.423 103.698 193.043H102.098ZM45.9304 220.883C45.9304 216.603 43.3904 213.503 39.4304 213.503C35.4704 213.503 32.9304 216.603 32.9304 220.883C32.9304 225.183 35.4704 228.263 39.4304 228.263C43.3904 228.263 45.9304 225.183 45.9304 220.883ZM44.1504 220.883C44.1504 224.343 42.5504 226.803 39.4304 226.803C36.2904 226.803 34.6904 224.343 34.6904 220.883C34.6904 217.443 36.2904 214.963 39.4304 214.963C42.5504 214.963 44.1504 217.443 44.1504 220.883ZM55.9328 219.183V217.963H48.1128V219.243H53.9128L47.8728 226.943V228.023H56.1528V226.743H49.9328L55.9328 219.183ZM67.6085 223.003C67.6085 219.763 65.6085 217.723 62.8285 217.723C60.0485 217.723 58.0485 219.763 58.0485 223.003C58.0485 226.243 60.0485 228.263 62.8285 228.263C65.6085 228.263 67.6085 226.243 67.6085 223.003ZM59.6885 223.003C59.6885 220.583 60.8685 219.063 62.8285 219.063C64.7885 219.063 65.9685 220.583 65.9685 223.003C65.9685 225.423 64.7885 226.923 62.8285 226.923C60.8685 226.923 59.6885 225.423 59.6885 223.003ZM72.0292 217.963H70.4292V228.023H72.0892V222.483C72.0892 220.063 73.3092 219.083 74.8492 219.083C76.4292 219.083 77.2492 220.043 77.2492 221.903V228.023H78.9092V221.543C78.9092 219.143 77.5692 217.723 75.3092 217.723C73.7692 217.723 72.5092 218.563 72.0292 219.803V217.963ZM88.5228 228.023H90.1828C89.9828 227.363 89.9428 226.663 89.9428 225.923V221.303C89.9428 218.883 88.4228 217.723 85.9828 217.723C83.8428 217.723 82.2428 218.883 82.0428 220.923H83.6428C83.7628 219.763 84.6028 219.063 85.9428 219.063C87.3228 219.063 88.3028 219.743 88.3028 221.343V221.923L85.0628 222.343C83.0228 222.583 81.5828 223.423 81.5828 225.363C81.5828 227.223 83.0828 228.243 84.8428 228.243C86.5228 228.243 87.9028 227.503 88.3428 226.323C88.3428 226.803 88.4028 227.463 88.5228 228.023ZM85.1828 226.983C83.9228 226.983 83.2628 226.263 83.2628 225.323C83.2628 223.963 84.3028 223.643 85.5628 223.463L88.3028 223.163V224.063C88.3028 226.003 86.7428 226.983 85.1828 226.983ZM98.0779 226.543C97.4379 226.743 96.9979 226.783 96.6179 226.783C95.6979 226.783 95.1579 226.423 95.1579 225.363V219.223H97.8179V217.963H95.1779V215.403H93.5379V217.963H92.0579V219.223H93.5379V225.443C93.5379 227.303 94.4779 228.183 96.3179 228.183C96.7579 228.183 97.3379 228.123 98.0779 227.903V226.543ZM100.661 215.863H102.541V213.843H100.661V215.863ZM100.781 228.023H102.441V217.963H100.781V228.023ZM114.816 223.003C114.816 219.763 112.816 217.723 110.036 217.723C107.256 217.723 105.256 219.763 105.256 223.003C105.256 226.243 107.256 228.263 110.036 228.263C112.816 228.263 114.816 226.243 114.816 223.003ZM106.896 223.003C106.896 220.583 108.076 219.063 110.036 219.063C111.996 219.063 113.176 220.583 113.176 223.003C113.176 225.423 111.996 226.923 110.036 226.923C108.076 226.923 106.896 225.423 106.896 223.003ZM119.236 217.963H117.636V228.023H119.296V222.483C119.296 220.063 120.516 219.083 122.056 219.083C123.636 219.083 124.456 220.043 124.456 221.903V228.023H126.116V221.543C126.116 219.143 124.776 217.723 122.516 217.723C120.976 217.723 119.716 218.563 119.236 219.803V217.963Z" fill="#44372E"/>
</svg>
