<svg width="165" height="168" viewBox="0 0 165 168" fill="none" xmlns="http://www.w3.org/2000/svg">
<path d="M65.4643 141.603C65.4211 128.623 62.2818 111.423 63.2422 98.9704L160.264 39.1571L82.9309 112.194C79.8357 119.638 74.3622 130.056 71.933 135.091C70.4369 138.192 65.4945 150.653 65.4643 141.603Z" fill="#F9FCFF" stroke="#292922" stroke-width="2" stroke-linecap="round"/>
<path d="M153.874 39.4658C157.004 38.7749 166.673 36.2311 160.405 40.2332C128.662 60.5036 79.1168 95.9748 65.2855 98.6918C54.6019 100.79 31.813 75.5986 20.8111 67.7597C20.0418 67.2116 20.2921 65.893 21.2206 65.7192C65.5097 57.4302 109.873 49.177 153.874 39.4658Z" fill="#292922" stroke="#292922" stroke-width="2" stroke-linecap="round"/>
<path d="M119.717 140.199C129.401 145.669 131.741 139.98 133.932 132.054C142.217 102.082 154.584 70.0994 163.245 39.7484C163.527 38.7615 162.316 38.0477 161.584 38.7671C139.902 60.081 111.891 84.3865 91.2836 103.09C80.6235 112.765 78.9725 114.65 90.9072 123.217C99.133 129.122 110.033 134.729 119.717 140.199Z" stroke="#292922" stroke-width="2" stroke-linecap="round"/>
<path d="M88.0847 123.331C82.1464 128.616 74.3222 137.164 67.5153 144.078C66.7021 144.904 65.4883 143.947 66.0801 142.95L81.7796 116.516C82.2045 115.801 83.2664 115.887 83.5703 116.662L83.6682 116.911C83.7134 117.027 83.7796 117.132 83.8633 117.223L88.1604 121.893C88.5426 122.308 88.5063 122.956 88.0847 123.331Z" fill="#292922" stroke="#292922" stroke-width="2" stroke-linecap="round"/>
</svg>
