<svg width="127" height="22" viewBox="0 0 127 22" fill="none" xmlns="http://www.w3.org/2000/svg">
<path d="M45.9994 21.5H42.6842L38.8953 14.4847C38.7374 14.5044 38.5006 14.5143 38.1849 14.5143H33.5968V21.5H30.6663V0.77961H38.1849C40.5727 0.77961 42.4276 1.38149 43.7498 2.58524C45.0917 3.76927 45.7626 5.4565 45.7626 7.64694C45.7626 9.22564 45.4074 10.5577 44.697 11.643C44.0063 12.7086 42.9999 13.4782 41.6777 13.9519L45.9994 21.5ZM33.5968 3.20686V12.087H38.1849C39.6846 12.087 40.8292 11.6825 41.6185 10.8734C42.4276 10.0643 42.8322 8.98883 42.8322 7.64694C42.8322 6.30505 42.4276 5.22956 41.6185 4.42048C40.8292 3.6114 39.6846 3.20686 38.1849 3.20686H33.5968ZM60.6563 14.0999C60.6563 14.4945 60.6267 14.8892 60.5675 15.2839H49.1417C49.3193 16.5863 49.7929 17.573 50.5625 18.2439C51.3519 18.8952 52.2892 19.2208 53.3746 19.2208C54.3415 19.2208 55.2197 18.984 56.009 18.5103C56.7984 18.0367 57.3805 17.3263 57.7555 16.3791L60.3011 17.3855C59.7288 18.7866 58.8211 19.8522 57.5779 20.5824C56.3346 21.3125 54.9434 21.6776 53.4042 21.6776C52.082 21.6776 50.8783 21.3915 49.7929 20.8192C48.7273 20.2469 47.8689 19.3984 47.2177 18.2735C46.5862 17.129 46.2705 15.7378 46.2705 14.0999C46.2705 12.462 46.5862 11.0806 47.2177 9.95578C47.8689 8.81123 48.7273 7.95281 49.7929 7.38053C50.8783 6.80826 52.082 6.52212 53.4042 6.52212C54.7461 6.52212 55.9597 6.80826 57.0451 7.38053C58.1501 7.93308 59.0283 8.78163 59.6795 9.92618C60.3307 11.051 60.6563 12.4422 60.6563 14.0999ZM53.3746 8.97896C52.309 8.97896 51.3914 9.30457 50.6217 9.95578C49.8521 10.5873 49.3588 11.5443 49.1417 12.827H57.7851C57.568 11.5246 57.0549 10.5577 56.2458 9.92618C55.4565 9.2947 54.4994 8.97896 53.3746 8.97896ZM61.7927 17.5039C61.99 19.1418 62.7399 20.2469 64.0424 20.8192C65.3645 21.3915 66.6867 21.6776 68.0088 21.6776C69.4691 21.6776 70.8801 21.352 72.2417 20.7008C73.6033 20.0298 74.2841 18.7175 74.2841 16.7639C74.2841 15.6391 74.0079 14.8004 73.4553 14.2479C72.9225 13.6756 72.2812 13.3006 71.5313 13.123C70.7814 12.9454 69.7947 12.8073 68.5712 12.7086C67.7227 12.6494 67.0616 12.5804 66.588 12.5014C66.1341 12.4028 65.7493 12.2449 65.4336 12.0278C65.1178 11.791 64.96 11.4457 64.96 10.9918C64.96 10.1827 65.2362 9.60058 65.7888 9.24537C66.3413 8.87043 67.0813 8.68296 68.0088 8.68296C69.8638 8.68296 70.9491 9.37364 71.2649 10.755L73.9289 9.98538C73.6527 8.56456 72.9127 7.62721 71.7089 7.17333C70.5249 6.71946 69.2915 6.49252 68.0088 6.49252C66.588 6.49252 65.2362 6.78852 63.9535 7.38053C62.6906 7.95281 62.0591 9.15657 62.0591 10.9918C62.0591 12.0969 62.3354 12.9356 62.8879 13.5078C63.4405 14.0801 64.0917 14.4551 64.8416 14.6327C65.6112 14.8103 66.5979 14.9583 67.8016 15.0767C69.0251 15.1753 69.923 15.3234 70.4953 15.5207C71.0873 15.718 71.3833 16.1324 71.3833 16.7639C71.3833 17.5927 71.0577 18.2242 70.4065 18.6583C69.7553 19.0925 68.956 19.3096 68.0088 19.3096C67.1405 19.3096 66.3808 19.1024 65.7296 18.6879C65.0981 18.2735 64.7232 17.6815 64.6048 16.9119L61.7927 17.5039ZM89.8233 14.0999C89.8233 14.4945 89.7937 14.8892 89.7345 15.2839H78.3087C78.4863 16.5863 78.9599 17.573 79.7295 18.2439C80.5188 18.8952 81.4562 19.2208 82.5415 19.2208C83.5085 19.2208 84.3866 18.984 85.176 18.5103C85.9653 18.0367 86.5475 17.3263 86.9224 16.3791L89.4681 17.3855C88.8958 18.7866 87.988 19.8522 86.7448 20.5824C85.5016 21.3125 84.1104 21.6776 82.5711 21.6776C81.249 21.6776 80.0452 21.3915 78.9599 20.8192C77.8943 20.2469 77.0358 19.3984 76.3846 18.2735C75.7531 17.129 75.4374 15.7378 75.4374 14.0999C75.4374 12.462 75.7531 11.0806 76.3846 9.95578C77.0358 8.81123 77.8943 7.95281 78.9599 7.38053C80.0452 6.80826 81.249 6.52212 82.5711 6.52212C83.913 6.52212 85.1267 6.80826 86.212 7.38053C87.3171 7.93308 88.1952 8.78163 88.8465 9.92618C89.4977 11.051 89.8233 12.4422 89.8233 14.0999ZM82.5415 8.97896C81.4759 8.97896 80.5583 9.30457 79.7887 9.95578C79.0191 10.5873 78.5257 11.5443 78.3087 12.827H86.952C86.735 11.5246 86.2219 10.5577 85.4128 9.92618C84.6234 9.2947 83.6664 8.97896 82.5415 8.97896ZM99.3924 6.46292V9.06777C98.2083 9.06777 97.2512 9.27497 96.5211 9.68938C95.7909 10.0841 95.2384 10.7846 94.8635 11.791C94.5083 12.7974 94.3307 14.1887 94.3307 15.9647V21.5H91.3706V6.69972H94.3307V9.42297C94.8043 8.39682 95.4456 7.64694 96.2547 7.17333C97.0835 6.69972 98.1097 6.46292 99.3331 6.46292H99.3924ZM109.968 6.69972H113.52L107.482 13.0342L113.964 21.4704H110.62L105.617 14.9879L103.841 16.8527V21.5H100.881V0.77961H103.841V13.271L109.968 6.69972ZM113.964 21.4704H113.994V21.5L113.964 21.4704ZM120.458 6.61092C122.293 6.61092 123.822 7.0648 125.046 7.97255C126.269 8.86056 126.881 10.3406 126.881 12.4126V21.5H123.891V18.9544C123.398 19.8424 122.697 20.5232 121.79 20.9968C120.882 21.4704 119.905 21.7072 118.859 21.7072C117.971 21.7072 117.132 21.5395 116.343 21.204C115.573 20.8488 114.952 20.3357 114.478 19.6648C114.005 18.9938 113.768 18.2045 113.768 17.2967C113.768 16.014 114.093 15.0569 114.745 14.4255C115.396 13.7743 116.175 13.3598 117.083 13.1822C117.991 13.0046 119.126 12.8862 120.487 12.827C121.691 12.7678 122.559 12.6692 123.092 12.531C123.625 12.3929 123.891 12.0772 123.891 11.5838C123.891 10.7353 123.556 10.1038 122.885 9.68938C122.234 9.25524 121.464 9.03817 120.576 9.03817C119.648 9.03817 118.869 9.22564 118.237 9.60058C117.606 9.95578 117.201 10.6563 117.024 11.7022L114.36 11.199C114.597 9.60058 115.277 8.43629 116.402 7.70614C117.527 6.97599 118.879 6.61092 120.458 6.61092ZM116.905 17.2967C116.905 18.0861 117.182 18.7077 117.734 19.1616C118.287 19.5957 118.958 19.8128 119.747 19.8128C120.418 19.8128 121.069 19.645 121.701 19.3096C122.352 18.9544 122.875 18.4215 123.27 17.7111C123.684 17.0007 123.891 16.1324 123.891 15.1063V13.7743C123.595 13.9716 123.23 14.1196 122.796 14.2183C122.382 14.2972 121.819 14.3761 121.109 14.4551C120.181 14.5537 119.441 14.682 118.889 14.8399C118.356 14.978 117.892 15.2444 117.497 15.6391C117.103 16.014 116.905 16.5666 116.905 17.2967Z" fill="#292922"/>
<mask id="path-2-inside-1_1752_1565" fill="white">
<path d="M20.189 13.1984C20.527 11.937 20.6132 10.6214 20.4428 9.32674C20.2723 8.03205 19.8485 6.78362 19.1956 5.65272C18.5427 4.52181 17.6734 3.53058 16.6374 2.73563C15.6014 1.94067 14.4189 1.35756 13.1576 1.01958L12.3662 3.9732C13.2396 4.20725 14.0585 4.61106 14.7759 5.16156C15.4933 5.71206 16.0953 6.39848 16.5474 7.18162C16.9996 7.96477 17.2931 8.8293 17.4111 9.72586C17.5291 10.6224 17.4694 11.5335 17.2354 12.4069L20.189 13.1984Z"/>
</mask>
<path d="M20.189 13.1984C20.527 11.937 20.6132 10.6214 20.4428 9.32674C20.2723 8.03205 19.8485 6.78362 19.1956 5.65272C18.5427 4.52181 17.6734 3.53058 16.6374 2.73563C15.6014 1.94067 14.4189 1.35756 13.1576 1.01958L12.3662 3.9732C13.2396 4.20725 14.0585 4.61106 14.7759 5.16156C15.4933 5.71206 16.0953 6.39848 16.5474 7.18162C16.9996 7.96477 17.2931 8.8293 17.4111 9.72586C17.5291 10.6224 17.4694 11.5335 17.2354 12.4069L20.189 13.1984Z" fill="#292922" stroke="#292922" stroke-width="1.01435" mask="url(#path-2-inside-1_1752_1565)"/>
<mask id="path-3-inside-2_1752_1565" fill="white">
<path d="M0.978793 8.051C0.572639 9.56678 0.530993 11.1572 0.857258 12.6921C1.18353 14.2271 1.86844 15.6631 2.85601 16.8826C3.84357 18.1021 5.10574 19.0706 6.53933 19.7089C7.97292 20.3472 9.53721 20.6371 11.1043 20.555L10.9426 17.4699C9.86239 17.5265 8.78408 17.3266 7.79588 16.8867C6.80767 16.4467 5.93762 15.7791 5.25687 14.9384C4.57612 14.0978 4.10399 13.1079 3.87909 12.0498C3.65418 10.9917 3.68289 9.89545 3.96286 8.85058L0.978793 8.051Z"/>
</mask>
<path d="M0.978793 8.051C0.572639 9.56678 0.530993 11.1572 0.857258 12.6921C1.18353 14.2271 1.86844 15.6631 2.85601 16.8826C3.84357 18.1021 5.10574 19.0706 6.53933 19.7089C7.97292 20.3472 9.53721 20.6371 11.1043 20.555L10.9426 17.4699C9.86239 17.5265 8.78408 17.3266 7.79588 16.8867C6.80767 16.4467 5.93762 15.7791 5.25687 14.9384C4.57612 14.0978 4.10399 13.1079 3.87909 12.0498C3.65418 10.9917 3.68289 9.89545 3.96286 8.85058L0.978793 8.051Z" fill="#292922" stroke="#292922" stroke-width="1.01435" mask="url(#path-3-inside-2_1752_1565)"/>
<circle cx="6.53719" cy="3.60572" r="1.84162" transform="rotate(-30 6.53719 3.60572)" fill="#292922"/>
</svg>
