<svg width="176" height="262" viewBox="0 0 176 262" fill="none" xmlns="http://www.w3.org/2000/svg">
<path d="M77.6822 183.189L76.7805 182.757L77.6822 183.189ZM130.871 69.9201L131.777 70.344L130.871 69.9201ZM132.736 65.3196L131.806 64.954L132.736 65.3196ZM148.221 46.5309L147.319 46.099L148.221 46.5309ZM138.98 13.5138L139.659 14.248L138.98 13.5138ZM122.79 64.2702L123.708 64.6672L122.79 64.2702ZM73.8161 181.489L72.8929 181.105L73.8161 181.489ZM124.331 60.3243L125.302 60.5632L124.331 60.3243ZM131.777 70.344C132.446 68.9133 133.102 67.1223 133.667 65.6853L131.806 64.954C131.213 66.4623 130.599 68.1419 129.965 69.4961L131.777 70.344ZM133.667 65.6853C134.173 64.3978 135.504 63.3245 137.229 62.3016C138.073 61.8007 138.942 61.3505 139.789 60.8936C140.612 60.4491 141.429 59.9912 142.074 59.5077L140.874 57.9076C140.363 58.2905 139.67 58.6849 138.839 59.1335C138.031 59.5696 137.099 60.0531 136.209 60.5812C134.463 61.6164 132.58 62.9827 131.806 64.954L133.667 65.6853ZM142.074 59.5077C142.792 58.9694 143.452 58.1406 144.055 57.2171C144.668 56.2789 145.268 55.1695 145.848 54.0053C146.981 51.73 148.151 48.9929 149.123 46.9627L147.319 46.099C146.261 48.309 145.213 50.7939 144.058 53.1138C143.493 54.2472 142.932 55.2786 142.38 56.1235C141.819 56.983 141.312 57.5795 140.874 57.9076L142.074 59.5077ZM157.756 21.9217C158.026 20.0329 157.091 18.2251 155.739 16.7381C154.369 15.2315 152.443 13.9038 150.372 12.9237C148.301 11.943 146.02 11.2794 143.913 11.1556C141.825 11.0329 139.754 11.4357 138.301 12.7797L139.659 14.248C140.55 13.4245 141.979 13.0455 143.796 13.1522C145.593 13.2578 147.623 13.8348 149.517 14.7313C151.411 15.6284 153.105 16.8145 154.259 18.0836C155.431 19.3724 155.924 20.6023 155.776 21.6387L157.756 21.9217ZM126.617 33.4319C126.206 34.4411 125.044 37.2498 123.896 40.4221C122.758 43.5705 121.6 47.1682 121.233 49.7353L123.213 50.0184C123.547 47.6773 124.637 44.2542 125.777 41.1023C126.908 37.9743 128.055 35.2034 128.47 34.1867L126.617 33.4319ZM72.8929 181.105C72.3955 182.299 72.2363 183.399 72.408 184.322C72.5818 185.257 73.1119 186.043 73.96 186.399C74.7994 186.751 75.7307 186.589 76.5292 186.095C77.3259 185.603 78.0366 184.763 78.5839 183.622L76.7805 182.757C76.3521 183.65 75.8681 184.153 75.4775 184.394C75.0888 184.634 74.8401 184.599 74.7333 184.554C74.6352 184.513 74.4529 184.379 74.3743 183.957C74.2937 183.523 74.3423 182.827 74.7393 181.873L72.8929 181.105ZM121.872 63.8731C105.593 101.504 89.1549 142.037 72.8929 181.105L74.7393 181.873C91.0114 142.781 107.435 102.281 123.708 64.6672L121.872 63.8731ZM78.5839 183.622C96.4188 146.429 114.148 108.003 131.777 70.344L129.965 69.4961C112.33 107.169 94.6101 145.575 76.7805 182.757L78.5839 183.622ZM138.301 12.7797C132.695 17.9643 130.446 24.0382 126.617 33.4319L128.47 34.1867C132.353 24.658 134.448 19.0673 139.659 14.248L138.301 12.7797ZM149.123 46.9627C154.033 36.7075 156.274 32.2902 157.756 21.9217L155.776 21.6387C154.341 31.678 152.224 35.855 147.319 46.099L149.123 46.9627ZM121.233 49.7353C121.102 50.6482 121.257 51.6589 121.491 52.62C121.728 53.5934 122.076 54.6231 122.399 55.5859C122.73 56.5699 123.034 57.4816 123.223 58.2945C123.417 59.1305 123.451 59.7148 123.36 60.0854L125.302 60.5632C125.511 59.714 125.38 58.7429 125.171 57.842C124.956 56.918 124.619 55.9113 124.295 54.9491C123.965 53.9656 123.647 53.0212 123.434 52.1464C123.218 51.2595 123.137 50.548 123.213 50.0184L121.233 49.7353ZM123.36 60.0854C123.054 61.329 122.593 62.2062 121.872 63.8731L123.708 64.6672C124.368 63.1411 124.944 62.0207 125.302 60.5632L123.36 60.0854Z" fill="#292922"/>
<path d="M77.6825 183.191C75.7312 187.26 72.0278 185.787 73.8164 181.49C80.5875 165.224 87.3869 148.708 94.1917 132.256C98.0285 126.9 101.94 128.695 100.59 135.052C92.8824 151.354 85.1893 167.536 77.6825 183.191Z" fill="#292922"/>
<path d="M73.8164 181.49L72.8932 181.106L73.8164 181.49ZM77.6825 183.191L78.5842 183.623L77.6825 183.191ZM100.59 135.052L101.494 135.479L101.544 135.374L101.568 135.26L100.59 135.052ZM94.1917 132.256L93.3788 131.673L93.3117 131.767L93.2677 131.874L94.1917 132.256ZM72.8932 181.106C72.3958 182.301 72.2367 183.4 72.4083 184.324C72.5821 185.259 73.1122 186.045 73.9603 186.4C74.7997 186.752 75.731 186.59 76.5295 186.097C77.3263 185.604 78.0369 184.765 78.5842 183.623L76.7808 182.759C76.3524 183.652 75.8684 184.154 75.4778 184.396C75.0891 184.636 74.8404 184.6 74.7336 184.556C74.6355 184.515 74.4532 184.381 74.3747 183.958C74.294 183.524 74.3426 182.828 74.7396 181.875L72.8932 181.106ZM78.5842 183.623C86.0919 167.967 93.7858 151.782 101.494 135.479L99.6859 134.625C91.9789 150.925 84.2866 167.106 76.7808 182.759L78.5842 183.623ZM93.2677 131.874C86.462 148.328 79.6637 164.841 72.8932 181.106L74.7396 181.875C81.5112 165.607 88.3118 149.088 95.1158 132.638L93.2677 131.874ZM101.568 135.26C101.925 133.577 101.954 132.114 101.671 130.945C101.388 129.776 100.761 128.801 99.7426 128.348C98.7225 127.894 97.5778 128.081 96.5189 128.662C95.4609 129.243 94.3926 130.258 93.3788 131.673L95.0047 132.838C95.9093 131.575 96.7686 130.807 97.4809 130.416C98.1922 130.026 98.6603 130.055 98.9289 130.175C99.1993 130.295 99.5364 130.626 99.7273 131.415C99.918 132.203 99.9295 133.348 99.6118 134.844L101.568 135.26Z" fill="#292922"/>
<path d="M2.25414 215.824L1.33799 216.224L2.25414 215.824ZM146.044 222.54L146.894 223.068L146.044 222.54ZM138.611 190.327L137.88 191.01L138.611 190.327ZM14.3954 185.961L13.7446 185.201L14.3954 185.961ZM13.7446 185.201C9.93563 188.466 5.70021 193.498 2.97258 199.033C0.255092 204.548 -1.05484 210.755 1.33799 216.224L3.1703 215.423C1.12082 210.738 2.16241 205.202 4.76658 199.917C7.36062 194.653 11.417 189.831 15.0462 186.72L13.7446 185.201ZM146.894 223.068C150.79 216.8 150.432 210.068 148.361 204.141C146.295 198.23 142.5 193.027 139.341 189.645L137.88 191.01C140.915 194.26 144.526 199.23 146.473 204.801C148.414 210.355 148.676 216.413 145.195 222.012L146.894 223.068ZM1.33799 216.224C5.81134 226.449 15.8992 234.1 28.6358 239.316C41.3924 244.541 56.9443 247.384 72.5894 247.903C88.2359 248.423 104.034 246.621 117.29 242.511C130.516 238.41 141.365 231.961 146.894 223.068L145.195 222.012C140.037 230.309 129.732 236.559 116.698 240.601C103.693 244.633 88.1227 246.418 72.6558 245.904C57.1875 245.391 41.8805 242.58 29.3938 237.466C16.8872 232.343 7.34752 224.971 3.1703 215.423L1.33799 216.224ZM139.341 189.645C123.751 172.953 99.2502 165.931 75.304 166.001C51.3652 166.07 27.7183 173.224 13.7446 185.201L15.0462 186.72C28.5478 175.147 51.676 168.069 75.3097 168C98.9361 167.932 122.805 174.87 137.88 191.01L139.341 189.645Z" fill="#292922"/>
<path d="M34.5651 223.959C32.1073 218.298 37.1671 210.863 41.2825 207.308C56.4835 194.176 93.0405 191.435 110.006 209.743C113.434 213.441 118.201 221.087 114.119 227.704C102.295 246.875 44.1372 246.01 34.5651 223.959Z" fill="#292922"/>
<path d="M41.2825 207.308L40.6287 206.551L41.2825 207.308ZM34.5651 223.959L35.4824 223.561L34.5651 223.959ZM114.119 227.704L114.97 228.229V228.229L114.119 227.704ZM110.006 209.743L110.74 209.063L110.006 209.743ZM40.6287 206.551C38.4813 208.406 36.0987 211.258 34.5605 214.404C33.0323 217.53 32.2497 221.137 33.6478 224.358L35.4824 223.561C34.4227 221.12 34.9412 218.179 36.3572 215.283C37.7633 212.407 39.9683 209.764 41.9362 208.064L40.6287 206.551ZM114.97 228.229C117.217 224.588 116.997 220.687 115.823 217.301C114.655 213.931 112.515 210.979 110.74 209.063L109.273 210.422C110.925 212.205 112.883 214.925 113.934 217.957C114.98 220.973 115.103 224.204 113.268 227.179L114.97 228.229ZM33.6478 224.358C36.1875 230.208 41.8896 234.537 48.9893 237.467C56.1081 240.406 64.768 241.998 73.4641 242.289C82.1616 242.58 90.9539 241.572 98.3448 239.262C105.707 236.961 111.83 233.321 114.97 228.229L113.268 227.179C110.496 231.673 104.916 235.113 97.7482 237.353C90.6099 239.584 82.0474 240.575 73.531 240.29C65.0131 240.005 56.5999 238.445 49.7524 235.619C42.8859 232.784 37.7288 228.736 35.4824 223.561L33.6478 224.358ZM110.74 209.063C102 199.632 88.3019 195.697 74.9797 195.736C61.6653 195.774 48.4654 199.781 40.6287 206.551L41.9362 208.064C49.3006 201.703 61.9797 197.773 74.9855 197.736C87.9836 197.698 101.047 201.546 109.273 210.422L110.74 209.063Z" fill="#292922"/>
<path d="M138.611 203.123L137.88 203.806L138.611 203.123ZM14.3954 198.756L13.7446 197.997L14.3954 198.756ZM1.30543 215.855C1.13084 216.379 1.41407 216.945 1.93803 217.12C2.462 217.294 3.02828 217.011 3.20287 216.487L1.30543 215.855ZM147.011 219.306C147.159 219.838 147.711 220.149 148.243 220C148.775 219.851 149.086 219.3 148.937 218.768L147.011 219.306ZM139.341 202.441C123.751 185.749 99.2502 178.727 75.304 178.796C51.3652 178.865 27.7183 186.02 13.7446 197.997L15.0462 199.516C28.5478 187.943 51.676 180.865 75.3097 180.796C98.9361 180.728 122.805 187.666 137.88 203.806L139.341 202.441ZM13.7446 197.997C9.04588 202.025 3.66527 208.772 1.30543 215.855L3.20287 216.487C5.41951 209.834 10.5449 203.374 15.0462 199.516L13.7446 197.997ZM148.937 218.768C147.075 212.101 142.817 206.163 139.341 202.441L137.88 203.806C141.228 207.391 145.265 213.056 147.011 219.306L148.937 218.768Z" fill="#292922"/>
<path d="M2.25414 229.239L1.33799 229.64L2.25414 229.239ZM146.044 235.955L145.195 235.427L146.044 235.955ZM1.13591 222.134L2.13314 222.209L2.13592 222.171L2.13591 222.134L1.13591 222.134ZM2.13591 210.984C2.13602 210.431 1.6884 209.984 1.13611 209.983C0.583828 209.983 0.136024 210.431 0.135914 210.983L2.13591 210.984ZM148.869 226.78L147.87 226.74L148.869 226.78ZM149.869 212.532C149.869 211.98 149.421 211.532 148.869 211.532C148.317 211.532 147.869 211.98 147.869 212.532H149.869ZM1.33799 229.64C5.81134 239.864 15.8992 247.515 28.6358 252.732C41.3924 257.956 56.9443 260.799 72.5894 261.319C88.2359 261.838 104.034 260.036 117.29 255.926C130.516 251.825 141.365 245.376 146.894 236.483L145.195 235.427C140.037 243.724 129.732 249.974 116.698 254.016C103.693 258.048 88.1227 259.833 72.6558 259.32C57.1875 258.806 41.8805 255.995 29.3938 250.881C16.8872 245.759 7.34752 238.386 3.1703 228.838L1.33799 229.64ZM0.138692 222.06C-0.0544699 224.646 0.278564 227.218 1.33799 229.64L3.1703 228.838C2.26188 226.762 1.96021 224.524 2.13314 222.209L0.138692 222.06ZM0.135914 210.983C0.134871 216.249 0.135748 218.108 0.135914 222.134L2.13591 222.134C2.13575 218.107 2.13487 216.249 2.13591 210.984L0.135914 210.983ZM146.894 236.483C148.848 233.338 149.738 230.062 149.868 226.82L147.87 226.74C147.753 229.659 146.956 232.594 145.195 235.427L146.894 236.483ZM149.868 226.82C150.039 222.551 149.869 216.817 149.869 212.532H147.869C147.869 216.92 148.039 222.519 147.87 226.74L149.868 226.82Z" fill="#292922"/>
</svg>
