<svg width="187" height="219" viewBox="0 0 187 219" fill="none" xmlns="http://www.w3.org/2000/svg">
<path d="M131 106V105.688C131 95.3668 139.367 87 149.688 87H169.262C178.506 87 186 94.4939 186 103.738V103.738" stroke="#292922" stroke-width="2"/>
<path d="M58.9132 176L19.1648 176C3 176 3 171.035 3 159.252C3 127.361 4.31368 89.2903 4.31368 57.7916C4.31368 50.207 10.2513 48 16.0039 48L66.4746 48C81.2851 48 82 55.6807 82 65.8394L82 162.009C82 172.904 74.2364 176 58.9132 176Z" fill="#292922" stroke="#292922" stroke-width="2" stroke-linecap="round"/>
<path d="M90.9543 104L87.4323 104C86 104 86 102.642 86 99.4206C86 90.7002 86.1164 80.2903 86.1164 71.6774C86.1164 69.6035 86.6425 69 87.1522 69L91.6243 69C92.9367 69 93 71.1002 93 73.878L93 100.174C93 103.153 92.3121 104 90.9543 104Z" stroke="#292922" stroke-width="2" stroke-linecap="round"/>
<path d="M160.078 101L155.046 101C153 101 153 99.9526 153 97.4673C153 90.7402 153.166 82.7097 153.166 76.0654C153.166 74.4655 153.918 74 154.646 74L161.035 74C162.91 74 163 75.6201 163 77.763L163 98.0487C163 100.347 162.017 101 160.078 101Z" fill="#292922" stroke="#292922" stroke-width="2" stroke-linecap="round"/>
<path d="M88.0457 118L91.5677 118C93 118 93 119.358 93 122.579C93 131.3 92.8836 141.71 92.8836 150.323C92.8836 152.397 92.3575 153 91.8478 153L87.3757 153C86.0633 153 86 150.9 86 148.122L86 121.826C86 118.847 86.6879 118 88.0457 118Z" stroke="#292922" stroke-width="2" stroke-linecap="round"/>
<path d="M162 120.539L162 118.023C162 117 161.612 117 160.692 117C158.2 117 155.226 117.083 152.765 117.083C152.172 117.083 152 117.459 152 117.823L152 121.017C152 121.955 152.6 122 153.394 122L160.907 122C161.758 122 162 121.509 162 120.539Z" stroke="#292922" stroke-width="2" stroke-linecap="round"/>
<path d="M160 136.539L160 134.023C160 133 159.612 133 158.692 133C156.2 133 153.226 133.083 150.765 133.083C150.172 133.083 150 133.459 150 133.823L150 137.017C150 137.955 150.6 138 151.394 138L158.907 138C159.758 138 160 137.509 160 136.539Z" stroke="#292922" stroke-width="2" stroke-linecap="round"/>
<path d="M157 152.539L157 150.023C157 149 156.612 149 155.692 149C153.2 149 150.226 149.083 147.765 149.083C147.172 149.083 147 149.459 147 149.823L147 153.017C147 153.955 147.6 154 148.394 154L155.907 154C156.758 154 157 153.509 157 152.539Z" stroke="#292922" stroke-width="2" stroke-linecap="round"/>
<path d="M153 167.539L153 165.023C153 164 152.612 164 151.692 164C149.2 164 146.226 164.083 143.765 164.083C143.172 164.083 143 164.459 143 164.823L143 168.017C143 168.955 143.6 169 144.394 169L151.907 169C152.758 169 153 168.509 153 167.539Z" stroke="#292922" stroke-width="2" stroke-linecap="round"/>
<path d="M68.9451 181L20.6433 181C1 181 1 175.608 1 162.813C1 128.181 2.59638 86.8387 2.59638 52.633C2.59638 44.3966 9.81175 42 16.8022 42L78.1337 42C96.1312 42 97 50.3407 97 61.3725L97 165.806C97 177.638 87.5657 181 68.9451 181Z" stroke="#292922" stroke-width="2" stroke-linecap="round"/>
<path d="M78.0104 42C85.8299 23.4709 97.1921 9.06404 112.146 2.7141C127.505 -3.80818 147.675 9.61921 157.319 20.5401C192.943 60.8797 200.378 157.892 150.713 202.915C140.68 212.01 119.937 224.66 101.986 213.829C91.2763 207.367 82.8714 195.691 76.7989 181" stroke="#292922" stroke-width="2" stroke-linecap="round"/>
<path d="M97.4995 13C102.499 17 99.4817 14.2301 104.908 21.0803C137.315 61.9953 144.081 160.393 98.8984 206.057C95.9858 209 95.4995 208.5 95.4995 208.5" stroke="#292922" stroke-width="2" stroke-linecap="round"/>
<path d="M119 1.07253C109.184 1.07099 93.0867 1.072 85.5806 1.07225C81.0121 0.803611 69.2913 1.26963 65.0989 2.71367C46.7366 9.03848 32.7688 23.3599 23.136 41.7864M111.774 217.889C103.691 217.889 77.5956 218.138 69.682 217.889C63.94 217.708 58.1504 216.47 52.579 213.744C39.4026 207.295 29.0575 195.651 21.577 181" stroke="#292922" stroke-width="2" stroke-linecap="round"/>
</svg>
