<svg width="160" height="236" viewBox="0 0 160 236" fill="none" xmlns="http://www.w3.org/2000/svg">
<path d="M95.9671 91.1263C86.982 90.6637 70.147 90.7325 58.8723 91.0062" stroke="#292922" stroke-width="2" stroke-linecap="round" stroke-linejoin="round"/>
<path d="M92.2527 86.0077L97.153 90.6757L92.4849 95.576" stroke="#292922" stroke-width="2" stroke-linecap="round" stroke-linejoin="round"/>
<path d="M62.6862 86.0067L57.786 90.6748L62.454 95.575" stroke="#292922" stroke-width="2" stroke-linecap="round" stroke-linejoin="round"/>
<path d="M151.986 93.7662L139.695 91.4274C137.788 96.5028 135.531 106.991 141.751 108.339C147.972 109.688 151.167 99.1858 151.986 93.7662Z" fill="#292922" stroke="#292922" stroke-width="2" stroke-linecap="round" stroke-linejoin="round"/>
<path d="M141.248 86.7179L152.998 89.0648C153.262 86.3654 156.725 76.675 156.13 69.5517C155.534 62.4362 152.513 56.7443 147.11 57.0702C141.708 57.3962 139.568 63.5695 138.65 69.8141C137.684 76.3954 140.934 83.9228 141.248 86.7179Z" fill="#292922" stroke="#292922" stroke-width="2" stroke-linecap="round" stroke-linejoin="round"/>
<path d="M8.61637 99.1832L20.9079 96.8444C22.8144 101.92 25.0722 112.408 18.8516 113.756C12.631 115.105 9.43621 104.603 8.61637 99.1832Z" stroke="#292922" stroke-width="2" stroke-linecap="round" stroke-linejoin="round"/>
<path d="M19.3557 92.1339L7.60493 94.4809C7.34084 91.7815 3.87784 82.091 4.47365 74.9678C5.06881 67.8522 8.0902 62.1603 13.4929 62.4862C18.8957 62.8122 21.0354 68.9855 21.9528 75.2302C22.9198 81.8115 19.6692 89.3389 19.3557 92.1339Z" stroke="#292922" stroke-width="2" stroke-linecap="round" stroke-linejoin="round"/>
<path d="M117.108 100.916L129.476 99.0236C131.198 104.165 133.075 114.727 126.809 115.85C120.544 116.973 117.731 106.362 117.108 100.916Z" stroke="#292922" stroke-width="2" stroke-linecap="round" stroke-linejoin="round"/>
<path d="M128.095 94.2614L116.267 96.1817C116.101 93.4745 112.99 83.6651 113.844 76.5681C114.696 69.4787 117.921 63.8998 123.309 64.4211C128.696 64.9423 130.611 71.189 131.302 77.4627C132.03 84.0747 128.509 91.4796 128.095 94.2614Z" stroke="#292922" stroke-width="2" stroke-linecap="round" stroke-linejoin="round"/>
<path d="M43.494 106.332L31.1258 104.44C29.4043 109.581 27.5275 120.143 33.7927 121.266C40.058 122.389 42.8708 111.778 43.494 106.332Z" stroke="#292922" stroke-width="2" stroke-linecap="round" stroke-linejoin="round"/>
<path d="M32.5067 99.6774L44.3348 101.598C44.501 98.8905 47.6111 89.0811 46.758 81.9841C45.9058 74.8948 42.6804 69.3159 37.293 69.8371C31.9056 70.3583 29.9906 76.605 29.2997 82.8787C28.5716 89.4907 32.0924 96.8956 32.5067 99.6774Z" stroke="#292922" stroke-width="2" stroke-linecap="round" stroke-linejoin="round"/>
<path d="M49.9927 191.292C50.1927 194.412 52.7927 195.752 55.8927 195.752C58.9127 195.752 61.0727 194.032 61.0727 191.592C61.0727 189.332 59.6727 188.312 57.4727 187.872L54.6727 187.292C52.9327 186.952 52.1327 186.452 52.1327 185.032C52.1327 183.532 53.3727 182.372 55.4527 182.372C57.4927 182.372 58.8927 183.292 59.1327 184.892H60.7927C60.5127 182.312 58.4927 180.992 55.4327 180.992C52.4727 180.992 50.4527 182.752 50.4527 185.092C50.4527 187.552 52.1727 188.432 54.0927 188.792L56.8127 189.332C58.7527 189.692 59.4127 190.472 59.4127 191.672C59.4127 193.392 57.9127 194.372 55.8727 194.372C53.7527 194.372 51.8727 193.592 51.6527 191.292H49.9927ZM72.8168 190.492C72.8168 187.252 70.8168 185.212 68.0368 185.212C65.2568 185.212 63.2568 187.252 63.2568 190.492C63.2568 193.732 65.2568 195.752 68.0368 195.752C70.8168 195.752 72.8168 193.732 72.8168 190.492ZM64.8968 190.492C64.8968 188.072 66.0768 186.552 68.0368 186.552C69.9968 186.552 71.1768 188.072 71.1768 190.492C71.1768 192.912 69.9968 194.412 68.0368 194.412C66.0768 194.412 64.8968 192.912 64.8968 190.492ZM74.917 190.492C74.917 193.712 76.857 195.752 79.657 195.752C81.897 195.752 83.377 194.492 83.697 192.332H82.117C81.837 193.672 81.017 194.412 79.657 194.412C77.677 194.412 76.557 192.852 76.557 190.492C76.557 188.132 77.677 186.552 79.657 186.552C81.017 186.552 81.837 187.292 82.117 188.632H83.697C83.377 186.492 81.897 185.212 79.657 185.212C76.857 185.212 74.917 187.272 74.917 190.492ZM86.3182 183.352H88.1982V181.332H86.3182V183.352ZM86.4382 195.512H88.0982V185.452H86.4382V195.512ZM97.813 195.512H99.473C99.273 194.852 99.233 194.152 99.233 193.412V188.792C99.233 186.372 97.713 185.212 95.273 185.212C93.133 185.212 91.533 186.372 91.333 188.412H92.933C93.053 187.252 93.893 186.552 95.233 186.552C96.613 186.552 97.593 187.232 97.593 188.832V189.412L94.353 189.832C92.313 190.072 90.873 190.912 90.873 192.852C90.873 194.712 92.373 195.732 94.133 195.732C95.813 195.732 97.193 194.992 97.633 193.812C97.633 194.292 97.693 194.952 97.813 195.512ZM94.473 194.472C93.213 194.472 92.553 193.752 92.553 192.812C92.553 191.452 93.593 191.132 94.853 190.952L97.593 190.652V191.552C97.593 193.492 96.033 194.472 94.473 194.472ZM104.348 195.512V180.792H102.688V195.512H104.348ZM36.1876 213.232H31.1276V227.512H36.1876C40.3276 227.512 43.1476 224.672 43.1476 220.372C43.1476 216.092 40.3276 213.232 36.1876 213.232ZM36.1876 214.672C39.5076 214.672 41.3676 216.932 41.3676 220.372C41.3676 223.832 39.5076 226.072 36.1876 226.072H32.8276V214.672H36.1876ZM45.8104 215.352H47.6904V213.332H45.8104V215.352ZM45.9304 227.512H47.5904V217.452H45.9304V227.512ZM50.2852 224.532C50.4652 226.692 52.2652 227.752 54.6652 227.752C56.9252 227.752 58.5852 226.452 58.5852 224.692C58.5852 223.072 57.6252 222.272 55.9852 221.952L53.9852 221.572C52.8252 221.352 52.2252 220.992 52.2252 220.132C52.2252 219.152 53.0852 218.492 54.4252 218.492C55.8052 218.492 56.7052 219.092 56.8252 220.112H58.3652C58.1652 218.212 56.7452 217.212 54.4252 217.212C52.2052 217.212 50.6852 218.532 50.6852 220.232C50.6852 221.992 51.8652 222.652 53.4852 222.952L55.2652 223.312C56.5452 223.552 57.0252 224.032 57.0252 224.772C57.0252 225.852 56.0252 226.492 54.6452 226.492C53.2852 226.492 52.0052 225.912 51.8852 224.532H50.2852ZM66.1377 226.032C65.4977 226.232 65.0577 226.272 64.6777 226.272C63.7577 226.272 63.2177 225.912 63.2177 224.852V218.712H65.8777V217.452H63.2377V214.892H61.5977V217.452H60.1177V218.712H61.5977V224.932C61.5977 226.792 62.5377 227.672 64.3777 227.672C64.8177 227.672 65.3977 227.612 66.1377 227.392V226.032ZM75.0005 227.512H76.6605C76.4605 226.852 76.4205 226.152 76.4205 225.412V220.792C76.4205 218.372 74.9005 217.212 72.4605 217.212C70.3205 217.212 68.7205 218.372 68.5205 220.412H70.1205C70.2405 219.252 71.0805 218.552 72.4205 218.552C73.8005 218.552 74.7805 219.232 74.7805 220.832V221.412L71.5405 221.832C69.5005 222.072 68.0605 222.912 68.0605 224.852C68.0605 226.712 69.5605 227.732 71.3205 227.732C73.0005 227.732 74.3805 226.992 74.8205 225.812C74.8205 226.292 74.8805 226.952 75.0005 227.512ZM71.6605 226.472C70.4005 226.472 69.7405 225.752 69.7405 224.812C69.7405 223.452 70.7805 223.132 72.0405 222.952L74.7805 222.652V223.552C74.7805 225.492 73.2205 226.472 71.6605 226.472ZM81.4757 217.452H79.8757V227.512H81.5357V221.972C81.5357 219.552 82.7557 218.572 84.2957 218.572C85.8757 218.572 86.6957 219.532 86.6957 221.392V227.512H88.3557V221.032C88.3557 218.632 87.0157 217.212 84.7557 217.212C83.2157 217.212 81.9557 218.052 81.4757 219.292V217.452ZM91.0693 222.492C91.0693 225.712 93.0093 227.752 95.8093 227.752C98.0493 227.752 99.5293 226.492 99.8493 224.332H98.2693C97.9893 225.672 97.1693 226.412 95.8093 226.412C93.8293 226.412 92.7093 224.852 92.7093 222.492C92.7093 220.132 93.8293 218.552 95.8093 218.552C97.1693 218.552 97.9893 219.292 98.2693 220.632H99.8493C99.5293 218.492 98.0493 217.212 95.8093 217.212C93.0093 217.212 91.0693 219.272 91.0693 222.492ZM102.471 215.352H104.351V213.332H102.471V215.352ZM102.591 227.512H104.251V217.452H102.591V227.512ZM109.405 217.452H107.805V227.512H109.465V221.972C109.465 219.552 110.685 218.572 112.225 218.572C113.805 218.572 114.625 219.532 114.625 221.392V227.512H116.285V221.032C116.285 218.632 114.945 217.212 112.685 217.212C111.145 217.212 109.885 218.052 109.405 219.292V217.452ZM126.779 226.872C126.779 228.972 125.659 230.032 123.679 230.032C122.319 230.032 121.259 229.632 120.919 228.372H119.239C119.639 230.332 121.279 231.312 123.699 231.312C126.379 231.312 128.459 229.952 128.459 226.752V217.452H126.839V219.212C126.359 218.252 125.199 217.212 123.439 217.212C120.859 217.212 118.979 219.232 118.979 222.252C118.979 225.392 120.859 227.332 123.439 227.332C125.199 227.332 126.319 226.372 126.779 225.392V226.872ZM126.899 222.492C126.899 224.572 125.599 226.012 123.739 226.012C121.779 226.012 120.619 224.472 120.619 222.252C120.619 220.012 121.779 218.512 123.739 218.512C125.599 218.512 126.899 219.932 126.899 222.012V222.492Z" fill="#44372E"/>
</svg>
