<svg width="220" height="185" viewBox="0 0 220 185" fill="none" xmlns="http://www.w3.org/2000/svg">
<path d="M189.083 9.89299C189.083 12.0911 187.564 14.4795 185.191 14.4795C182.709 14.4795 179.803 10.8979 178.242 9.33705C178.242 8.48889 179.402 6.64886 179.98 6.07089C181.452 4.59825 186.13 5.27225 187.485 6.62683C188.076 7.21797 189.083 9.04572 189.083 9.89299Z" fill="black" stroke="black" stroke-width="2" stroke-linecap="round"/>
<path d="M197.158 17.1495C196.245 18.5699 195.605 21.0428 195.894 21.2895C197.331 22.5151 202.049 24.4828 204.095 23.6214C205.341 23.0966 206.111 21.4466 206.04 20.1776C205.961 18.741 203.241 16.4195 201.871 15.483C199.834 14.2295 197.736 16.2493 197.158 17.1495Z" fill="black" stroke="black" stroke-width="2" stroke-linecap="round"/>
<path d="M177.549 9.19847C173.128 8.70728 170.814 4.195 165.843 4.195C160.151 4.195 154.02 7.37163 149.196 10.2795C142.315 14.4271 137.893 20.0603 133.63 26.8496C130.372 32.037 126.383 36.3079 122.511 40.9952C119.522 44.6131 116.383 48.0971 112.722 50.9734C111.822 51.6806 109.027 48.6082 109.091 48.5004C112.722 44.89 113.209 44.6467 116.129 41.7267C123.102 36.1481 127.997 28.2882 133.56 21.2825C137.749 16.0076 141.9 11.9157 147.275 7.90359C152.255 4.1861 159.928 0.360364 166.498 1.09026C167.927 1.35706 179.882 3.97457 179.882 6.14852" stroke="black" stroke-width="2" stroke-linecap="round"/>
<path d="M203.972 23.72C207.293 23.72 211.973 27.9878 213.686 30.7718C214.696 32.4138 214.294 35.0849 213.477 36.7172C211.652 40.3675 204.052 46.1828 200.482 48.948C196.338 52.1583 192.062 55.6839 187.495 58.26C176.367 64.5375 164.342 69.1287 153.359 75.3063C153.846 76.2796 155.403 79.0486 155.549 79.4429C159.443 75.3063 183.963 64.4515 188.977 60.8698C193.44 57.6823 198.187 55.1914 202.512 51.7031C207.697 47.5217 217.216 42.6367 218.329 35.3999C218.744 32.6995 218.572 30.7718 215.917 27.8994C206.162 20.5566 215.917 27.8994 206.162 20.5566" stroke="black" stroke-width="2" stroke-linecap="round"/>
<path d="M153.822 76.1184C153.352 75.4502 153.44 74.9694 152.457 75.2153C146.975 76.5859 149.707 77.2533 137.125 82.2512C127.077 85.7166 119.953 88.6768 109.738 81.222C102.744 76.1184 101.746 69.793 103.23 64.8434C104.442 60.804 109.468 54.8668 112.964 51.9469L108.584 48.2969C104.96 52.3735 101.116 57.4319 99.0682 62.6978C97.3264 67.1767 97.2456 74.2723 99.9083 78.3447C101.149 80.2417 104.593 84.7124 106.713 85.7166C113.021 88.7044 121.883 93.1169 128.934 90.5787C136.685 87.7883 143.87 83.2689 151.89 81.264C152.372 81.1433 156.233 80.0824 155.547 79.2C154.669 78.0717 154.66 77.311 153.822 76.1184Z" fill="black"/>
<path d="M152.457 75.2153L152.699 76.1855L152.457 75.2153ZM153.822 76.1184L154.64 75.5435V75.5435L153.822 76.1184ZM155.547 79.2L156.336 78.5861L155.547 79.2ZM151.89 81.264L152.132 82.2342H152.132L151.89 81.264ZM128.934 90.5787L128.595 89.6378L128.934 90.5787ZM106.713 85.7166L107.141 84.8129L107.141 84.8128L106.713 85.7166ZM99.9083 78.3447L99.0713 78.8919H99.0713L99.9083 78.3447ZM99.0682 62.6978L100 63.0602L99.0682 62.6978ZM108.584 48.2969L109.224 47.5287L108.48 46.9086L107.836 47.6325L108.584 48.2969ZM112.964 51.9469L113.605 52.7143C113.832 52.5242 113.964 52.2428 113.964 51.9463C113.964 51.6497 113.832 51.3685 113.604 51.1786L112.964 51.9469ZM103.23 64.8434L102.273 64.5561L103.23 64.8434ZM109.738 81.222L109.148 82.0298L109.738 81.222ZM137.125 82.2512L137.451 83.1965L137.473 83.189L137.494 83.1805L137.125 82.2512ZM152.699 76.1855C152.892 76.1372 152.922 76.1554 152.868 76.1473C152.832 76.1418 152.778 76.1272 152.718 76.0945C152.659 76.0622 152.619 76.0256 152.597 76.0023C152.579 75.9825 152.577 75.9757 152.593 76.0016C152.611 76.0293 152.632 76.0669 152.669 76.1367C152.738 76.2644 152.847 76.471 153.004 76.6934L154.64 75.5435C154.562 75.4317 154.505 75.3276 154.428 75.1849C154.368 75.0733 154.247 74.841 154.067 74.6458C153.844 74.4046 153.547 74.2276 153.17 74.1701C152.841 74.1201 152.513 74.1704 152.214 74.2452L152.699 76.1855ZM153.004 76.6934C153.361 77.2024 153.539 77.6093 153.758 78.0947C153.983 78.5936 154.244 79.1537 154.757 79.8139L156.336 78.5861C155.972 78.118 155.789 77.7335 155.581 77.2719C155.366 76.7968 155.12 76.2269 154.64 75.5435L153.004 76.6934ZM154.757 79.8139C154.638 79.6608 154.587 79.416 154.665 79.1991C154.714 79.0641 154.778 79.0387 154.696 79.1068C154.544 79.2324 154.227 79.4054 153.773 79.5943C152.899 79.9576 151.867 80.239 151.647 80.2939L152.132 82.2342C152.395 82.1684 153.535 81.8589 154.54 81.4411C155.026 81.2393 155.576 80.9741 155.97 80.6488C156.16 80.4914 156.418 80.2374 156.548 79.875C156.707 79.4308 156.627 78.9598 156.336 78.5861L154.757 79.8139ZM151.647 80.2939C147.541 81.3203 143.669 82.9854 139.894 84.718C136.095 86.4617 132.418 88.2614 128.595 89.6378L129.273 91.5196C133.2 90.1056 136.992 88.2504 140.728 86.5357C144.489 84.8097 148.218 83.2126 152.132 82.2342L151.647 80.2939ZM128.595 89.6378C125.365 90.8006 121.635 90.3967 117.831 89.2617C114.034 88.1288 110.317 86.3171 107.141 84.8129L106.285 86.6203C109.417 88.1038 113.285 89.9924 117.259 91.1782C121.226 92.3618 125.452 92.895 129.273 91.5196L128.595 89.6378ZM107.141 84.8128C106.749 84.6269 106.224 84.2407 105.607 83.6724C105.004 83.1162 104.363 82.4338 103.737 81.711C102.484 80.2634 101.34 78.7072 100.745 77.7974L99.0713 78.8919C99.7169 79.8792 100.915 81.5068 102.225 83.0198C102.88 83.7774 103.575 84.5195 104.252 85.1433C104.916 85.7549 105.618 86.3041 106.285 86.6203L107.141 84.8128ZM100.745 77.7974C99.5499 75.9692 98.9275 73.3791 98.836 70.6403C98.7449 67.9119 99.1853 65.1556 100 63.0602L98.1362 62.3353C97.2093 64.7189 96.7384 67.7499 96.8371 70.7071C96.9355 73.654 97.604 76.6478 99.0713 78.8919L100.745 77.7974ZM100 63.0602C101.983 57.9621 105.732 53.0104 109.331 48.9612L107.836 47.6325C104.188 51.7367 100.249 56.9017 98.1362 62.3353L100 63.0602ZM112.323 51.1794C110.513 52.6914 108.334 54.9585 106.454 57.3585C104.588 59.7387 102.934 62.3526 102.273 64.5561L104.188 65.1308C104.739 63.2949 106.203 60.9204 108.028 58.5922C109.837 56.2837 111.919 54.1223 113.605 52.7143L112.323 51.1794ZM102.273 64.5561C101.479 67.2023 101.345 70.2325 102.355 73.2889C103.367 76.3503 105.505 79.3716 109.148 82.0298L110.327 80.4143C106.976 77.9688 105.118 75.2757 104.254 72.6611C103.388 70.0414 103.497 67.4342 104.188 65.1308L102.273 64.5561ZM109.148 82.0298C114.419 85.8766 118.978 87.0859 123.55 86.8301C128.036 86.5791 132.486 84.9087 137.451 83.1965L136.799 81.3058C131.715 83.059 127.579 84.6015 123.438 84.8332C119.382 85.0602 115.271 84.0223 110.327 80.4143L109.148 82.0298ZM137.494 83.1805C143.83 80.6637 146.345 79.2229 147.975 78.2262C148.792 77.7268 149.295 77.3989 149.942 77.0955C150.575 76.7988 151.366 76.5188 152.699 76.1855L152.214 74.2452C150.807 74.5971 149.883 74.9145 149.093 75.2846C148.318 75.648 147.69 76.0563 146.932 76.5198C145.412 77.4489 143.002 78.8408 136.756 81.3218L137.494 83.1805ZM113.604 51.1786L109.224 47.5287L107.944 49.0651L112.324 52.7151L113.604 51.1786Z" fill="black"/>
<path d="M37.5312 97.4497C37.5312 98.9273 37.881 101.449 38.9912 102.56C39.7368 103.305 41.3575 102.18 42.0676 101.825C49.7274 97.9955 50.4278 96.9108 61.6211 93.5564C72.8143 90.8798 80.1143 92.0964 87.3386 92.9308C94.1996 93.2655 100.994 96.3392 106.671 100.124C115.006 105.681 119.533 110.878 123.671 119.35C133.055 141.801 121.724 149.036 112.477 160.959C104.929 170.693 93.5918 176.118 83.8417 178.002C59.9985 185 30.9985 159 40.2194 135.955C46.6535 126.884 53.8832 119.387 62.3351 112.411C69.2514 106.702 86.9276 98.1797 95.2009 94.5297" stroke="black" stroke-width="2" stroke-linecap="round" stroke-linejoin="round"/>
<path d="M37.5323 97.2888C43.4221 96.6998 48.7283 92.4436 54.5444 91.051C61.6838 89.3416 69.2458 87.8627 76.555 87.1235C80.5639 86.7181 87.0563 87.1235 95.202 88.6897C105.665 92.0963 104.923 92.1487 111.629 96.8057C116.159 99.9512 120.217 103.633 123.429 108.063C130.574 117.92 132.724 125.504 132.386 137.33C132.204 143.711 128.357 150.939 124.159 156.092C120.652 160.396 116.859 165.339 112.479 169.962C105.195 175.02 96.4061 180.783 87.8124 182.916C61.8874 186.378 42.5084 177.175 34.8558 151.712C33.8949 145.093 32.7403 140.554 35.5858 134.436C38.1845 128.849 43.6676 123.071 47.5091 118.376C50.2436 115.034 57.0014 108.425 60.8923 106.696C70.8689 100.856 76.826 98.0564 87.0563 92.9412" stroke="black" stroke-width="2" stroke-linecap="round"/>
<path d="M94.7148 88.447C96.6222 88.2351 99.1218 85.397 100.76 84.2575C102.001 83.3943 103.118 81.8867 104.446 81.2227" stroke="black" stroke-width="2" stroke-linecap="round"/>
<path d="M101.285 90.6366C103.514 90.389 106.065 87.6935 107.855 86.5" stroke="black" stroke-width="2" stroke-linecap="round"/>
<path d="M29.3269 105.307C29.3269 104.896 30.3749 104.608 30.6851 104.482C33.5101 103.334 35.8958 102.59 38.9313 102.59C38.4651 101.768 37.5327 99.7359 37.5327 98.1786C36.688 98.1786 35.8728 98.5037 35.234 99.0006C34.2555 99.7616 32.4852 101.376 31.1271 101.13C29.7221 100.874 29.3956 99.9119 28.4484 99.0437C26.5394 97.2938 24.7232 95.6776 22.0724 95.3356C18.4414 94.8671 12.4221 95.4979 10.2151 98.6341C8.08956 102.072 9.79288 105.479 11.2529 107.668C13.6862 110.588 15.8762 111.709 19.0973 111.709C21.9684 111.709 24.9746 111.017 27.074 108.918C28.0787 107.913 29.3269 106.863 29.3269 105.307Z" fill="black" stroke="black" stroke-width="2" stroke-linecap="round"/>
<path d="M8.857 101.426C6.62585 101.426 4.75489 102.373 3.44577 104.218C1.538 106.906 1.32934 110.387 1.59172 113.601C2.1051 119.89 9.698 122.814 14.9204 123.394C19.5734 123.911 26.5939 122.883 30.9762 121.217C34.3973 119.916 36.9911 115.242 36.9911 111.688C36.9911 108.666 34.2471 105.297 31.3643 104.336" stroke="black" stroke-width="2" stroke-linecap="round"/>
</svg>
