<svg width="202" height="260" viewBox="0 0 202 260" fill="none" xmlns="http://www.w3.org/2000/svg">
<path d="M24.5764 10.2945L23.581 10.1981L24.5764 10.2945ZM12.4458 215.898L12.2885 216.885L12.4458 215.898ZM146.512 18.7996L146.39 19.792L146.512 18.7996ZM23.581 10.1981C20.4717 42.561 16.6904 72.8077 12.9072 103.07C9.12433 133.329 5.3395 163.603 2.22704 195.998L4.21773 196.191C7.32705 163.828 11.1083 133.581 14.8916 103.319C18.6744 73.0606 22.4593 42.7864 25.5717 10.3909L23.581 10.1981ZM2.22704 195.998C1.80442 200.397 1.40276 205.124 2.54359 208.97C3.12365 210.926 4.11104 212.694 5.71671 214.086C7.32025 215.477 9.473 216.434 12.2885 216.885L12.6032 214.91C10.0697 214.505 8.28835 213.67 7.02615 212.575C5.76609 211.483 4.95613 210.073 4.46084 208.403C3.45094 204.998 3.78648 200.68 4.21773 196.191L2.22704 195.998ZM139.079 215.994C140.821 197.863 145.993 164.831 151.178 131.703C156.358 98.6087 161.551 65.4186 163.316 47.0497L161.326 46.8569C159.568 65.1507 154.388 98.2644 149.203 131.392C144.023 164.486 138.837 197.595 137.088 215.801L139.079 215.994ZM28.3217 0.610691C27.3599 0.517564 26.5033 0.7245 25.8139 1.30617C25.1609 1.85718 24.7733 2.64967 24.5134 3.4925C24.0042 5.14314 23.8367 7.53662 23.581 10.1981L25.5717 10.3909C25.842 7.57775 25.9932 5.48121 26.4244 4.08339C26.6346 3.402 26.8726 3.03066 27.1041 2.83534C27.2992 2.67069 27.5861 2.54882 28.1304 2.60152L28.3217 0.610691ZM12.2885 216.885C37.8206 220.973 93.2539 229.64 119.011 232.134L119.202 230.144C93.5213 227.657 38.1588 219.002 12.6032 214.91L12.2885 216.885ZM146.635 17.8072C125.097 15.1304 106.547 11.901 87.8549 8.80349C69.1671 5.70661 50.3499 2.74365 28.3217 0.610691L28.1304 2.60152C50.0892 4.72775 68.8523 7.68161 87.5294 10.7767C106.203 13.8712 124.802 17.109 146.39 19.792L146.635 17.8072ZM163.316 47.0497C163.829 41.7176 164.183 37.3733 164.148 33.8405C164.112 30.3146 163.689 27.4832 162.565 25.2302C160.257 20.6074 155.251 18.8781 146.635 17.8072L146.39 19.792C155.065 20.8703 158.989 22.5432 160.776 26.1226C161.698 27.9707 162.114 30.4404 162.148 33.8591C162.182 37.2708 161.839 41.5144 161.326 46.8569L163.316 47.0497ZM119.011 232.134C122.847 232.506 125.938 232.656 128.425 232.424C130.921 232.191 132.904 231.565 134.444 230.303C135.985 229.04 136.96 227.24 137.641 224.905C138.318 222.582 138.729 219.638 139.079 215.994L137.088 215.801C136.739 219.431 136.342 222.214 135.721 224.344C135.103 226.463 134.291 227.842 133.175 228.756C132.059 229.671 130.516 230.22 128.237 230.433C125.95 230.646 123.017 230.513 119.202 230.144L119.011 232.134Z" fill="#292922"/>
<path d="M49.3555 29.0254L122.229 38.6663" stroke="#292922" stroke-width="2" stroke-linecap="round"/>
<path d="M41.3866 90.0254L114.26 99.6663" stroke="#292922" stroke-width="2" stroke-linecap="round"/>
<path d="M37.4022 130.025L110.276 139.666" stroke="#292922" stroke-width="2" stroke-linecap="round"/>
<path d="M35.8185 140L108.692 149.641" stroke="#292922" stroke-width="2" stroke-linecap="round"/>
<path d="M34.2349 149.975L107.108 159.616" stroke="#292922" stroke-width="2" stroke-linecap="round"/>
<path d="M32.6512 159.95L105.525 169.591" stroke="#292922" stroke-width="2" stroke-linecap="round"/>
<path d="M31.0675 169.926L103.941 179.567" stroke="#292922" stroke-width="2" stroke-linecap="round"/>
<path d="M39.803 102L60.7213 105" stroke="#292922" stroke-width="2" stroke-linecap="round"/>
<path d="M71.6785 106L92.5968 109" stroke="#292922" stroke-width="2" stroke-linecap="round"/>
<path d="M101.562 110L122.48 113" stroke="#292922" stroke-width="2" stroke-linecap="round"/>
<path d="M47.7719 37L120.645 46.641" stroke="#292922" stroke-width="2" stroke-linecap="round"/>
<path d="M46.6277 48.4421L46.706 47.4452L45.7837 47.373L45.6399 48.287L46.6277 48.4421ZM44.56 60.523L43.579 60.3294L44.56 60.523ZM48.6829 64.3792L48.8132 63.3877L48.6829 64.3792ZM66.1385 64.7606L67.0996 65.0365L66.1385 64.7606ZM68.6501 51.1631L69.6362 51.3291L69.807 50.316L68.7897 50.1728L68.6501 51.1631ZM45.6399 48.287C44.8186 53.5067 44.3991 56.1778 43.579 60.3294L45.541 60.7165C46.3696 56.5219 46.7945 53.8153 47.6156 48.5973L45.6399 48.287ZM43.579 60.3294C43.4095 61.1876 43.3592 61.9557 43.504 62.6255C43.6582 63.3385 44.0244 63.8957 44.5796 64.299C45.096 64.6742 45.7268 64.8801 46.3616 65.0224C47.002 65.1659 47.7523 65.2658 48.5527 65.3708L48.8132 63.3877C47.9906 63.2799 47.3351 63.1908 46.7995 63.0708C46.2584 62.9495 45.9429 62.8171 45.7554 62.6808C45.6067 62.5728 45.5114 62.4454 45.4589 62.2024C45.397 61.916 45.3949 61.4563 45.541 60.7165L43.579 60.3294ZM48.5527 65.3708C51.4916 65.7561 57.5892 66.7282 60.6248 66.9515L60.7721 64.9569C57.8081 64.7388 51.881 63.7899 48.8132 63.3877L48.5527 65.3708ZM60.6248 66.9515C61.3343 67.0037 61.9692 67.0994 62.5787 67.185C63.162 67.267 63.7695 67.348 64.3198 67.3301C64.8884 67.3117 65.5025 67.1865 66.0383 66.7677C66.5698 66.3522 66.895 65.749 67.0996 65.0365L65.1774 64.4848C65.041 64.9595 64.8906 65.1267 64.8069 65.1921C64.7275 65.2542 64.5868 65.3204 64.2555 65.3311C63.9061 65.3425 63.469 65.2904 62.8576 65.2045C62.2724 65.1222 61.5626 65.0151 60.7721 64.9569L60.6248 66.9515ZM67.0996 65.0365C67.3834 64.0484 68.0225 60.5768 68.5779 57.4435C68.8591 55.8569 69.1236 54.3285 69.3178 53.1969C69.4149 52.631 69.4945 52.1643 69.5498 51.8389C69.5774 51.6762 69.599 51.5488 69.6137 51.4621C69.621 51.4187 69.6266 51.3855 69.6304 51.3631C69.6323 51.352 69.6337 51.3435 69.6347 51.3378C69.6352 51.3349 69.6355 51.3328 69.6358 51.3313C69.6359 51.3306 69.636 51.33 69.6361 51.3297C69.6361 51.3295 69.6361 51.3293 69.6361 51.3292C69.6362 51.3291 69.6362 51.3291 68.6501 51.1631C67.664 50.9971 67.664 50.9971 67.664 50.9972C67.664 50.9973 67.664 50.9974 67.6639 50.9976C67.6639 50.998 67.6638 50.9985 67.6637 50.9992C67.6634 51.0006 67.6631 51.0027 67.6626 51.0055C67.6617 51.0111 67.6602 51.0195 67.6584 51.0306C67.6546 51.0528 67.649 51.0858 67.6417 51.1289C67.6271 51.2152 67.6056 51.3421 67.5781 51.5044C67.5229 51.8288 67.4436 52.2945 67.3467 52.8591C67.1528 53.9885 66.889 55.5131 66.6086 57.095C66.0407 60.2988 65.4241 63.626 65.1774 64.4848L67.0996 65.0365ZM68.6501 51.1631C68.7897 50.1728 68.7896 50.1728 68.7895 50.1728C68.7893 50.1728 68.7891 50.1728 68.7889 50.1727C68.7884 50.1727 68.7876 50.1726 68.7867 50.1724C68.7847 50.1721 68.7818 50.1717 68.7779 50.1712C68.7701 50.1701 68.7585 50.1685 68.7433 50.1663C68.7127 50.162 68.6674 50.1557 68.608 50.1474C68.4892 50.1308 68.3143 50.1063 68.0896 50.0751C67.6403 50.0126 66.9917 49.9228 66.1947 49.8137C64.6007 49.5953 62.4122 49.2992 60.0345 48.9883C55.2894 48.3678 49.7574 47.6839 46.706 47.4452L46.5495 49.4391C49.5398 49.673 55.019 50.3496 59.7746 50.9714C62.1473 51.2817 64.3315 51.5772 65.9227 51.7952C66.7183 51.9042 67.3654 51.9937 67.8136 52.0561C68.0377 52.0872 68.2121 52.1116 68.3303 52.1281C68.3894 52.1364 68.4346 52.1427 68.4648 52.1469C68.48 52.1491 68.4914 52.1507 68.4991 52.1518C68.5029 52.1523 68.5058 52.1527 68.5077 52.153C68.5086 52.1531 68.5093 52.1532 68.5098 52.1533C68.5101 52.1533 68.5102 52.1533 68.5103 52.1533C68.5105 52.1534 68.5105 52.1534 68.6501 51.1631Z" fill="#292922"/>
<path d="M120.574 73.3411L120.495 74.338L121.418 74.4102L121.562 73.4962L120.574 73.3411ZM122.641 61.2602L123.622 61.4538L122.641 61.2602ZM118.519 57.404L118.388 58.3955L118.519 57.404ZM101.063 57.0226L100.102 56.7467L101.063 57.0226ZM98.5513 70.6201L97.5653 70.4541L97.3945 71.4672L98.4117 71.6104L98.5513 70.6201ZM121.562 73.4962C122.383 68.2765 122.802 65.6054 123.622 61.4538L121.66 61.0667C120.832 65.2613 120.407 67.9679 119.586 73.1859L121.562 73.4962ZM123.622 61.4538C123.792 60.5956 123.842 59.8275 123.697 59.1578C123.543 58.4447 123.177 57.8875 122.622 57.4842C122.105 57.109 121.475 56.9031 120.84 56.7608C120.199 56.6173 119.449 56.5174 118.649 56.4125L118.388 58.3955C119.211 58.5033 119.866 58.5924 120.402 58.7124C120.943 58.8337 121.259 58.9661 121.446 59.1024C121.595 59.2104 121.69 59.3378 121.743 59.5808C121.804 59.8672 121.806 60.3269 121.66 61.0667L123.622 61.4538ZM118.649 56.4125C115.71 56.0271 109.612 55.055 106.577 54.8317L106.429 56.8263C109.393 57.0444 115.32 57.9933 118.388 58.3955L118.649 56.4125ZM106.577 54.8317C105.867 54.7795 105.232 54.6838 104.623 54.5982C104.039 54.5162 103.432 54.4352 102.882 54.4531C102.313 54.4715 101.699 54.5967 101.163 55.0155C100.632 55.431 100.306 56.0343 100.102 56.7467L102.024 57.2984C102.16 56.8237 102.311 56.6565 102.394 56.5911C102.474 56.529 102.615 56.4628 102.946 56.4521C103.295 56.4407 103.732 56.4928 104.344 56.5787C104.929 56.661 105.639 56.7681 106.429 56.8263L106.577 54.8317ZM100.102 56.7467C99.818 57.7348 99.1789 61.2064 98.6235 64.3397C98.3423 65.9263 98.0778 67.4547 97.8836 68.5863C97.7865 69.1522 97.7069 69.6189 97.6516 69.9443C97.624 70.107 97.6024 70.2344 97.5877 70.3211C97.5804 70.3645 97.5748 70.3977 97.571 70.4201C97.5691 70.4312 97.5677 70.4397 97.5667 70.4454C97.5662 70.4483 97.5659 70.4504 97.5656 70.4519C97.5655 70.4526 97.5654 70.4532 97.5654 70.4535C97.5653 70.4537 97.5653 70.4539 97.5653 70.454C97.5653 70.4541 97.5653 70.4541 98.5513 70.6201C99.5374 70.7861 99.5374 70.7861 99.5374 70.786C99.5374 70.7859 99.5375 70.7858 99.5375 70.7856C99.5375 70.7852 99.5376 70.7847 99.5378 70.784C99.538 70.7826 99.5383 70.7805 99.5388 70.7777C99.5398 70.7721 99.5412 70.7637 99.5431 70.7526C99.5468 70.7304 99.5524 70.6974 99.5597 70.6543C99.5743 70.568 99.5958 70.4411 99.6234 70.2788C99.6785 69.9544 99.7578 69.4887 99.8547 68.9241C100.049 67.7947 100.312 66.2701 100.593 64.6882C101.161 61.4844 101.777 58.1572 102.024 57.2984L100.102 56.7467ZM98.5513 70.6201C98.4117 71.6104 98.4118 71.6104 98.412 71.6104C98.4121 71.6104 98.4123 71.6104 98.4125 71.6105C98.413 71.6105 98.4138 71.6106 98.4148 71.6108C98.4167 71.6111 98.4197 71.6115 98.4235 71.612C98.4313 71.6131 98.4429 71.6147 98.4581 71.6169C98.4887 71.6212 98.5341 71.6275 98.5934 71.6358C98.7122 71.6524 98.8871 71.6769 99.1118 71.7081C99.5612 71.7706 100.21 71.8604 101.007 71.9695C102.601 72.1879 104.789 72.484 107.167 72.7949C111.912 73.4154 117.444 74.0993 120.495 74.338L120.652 72.3441C117.662 72.1102 112.182 71.4336 107.427 70.8118C105.054 70.5015 102.87 70.206 101.279 69.988C100.483 69.879 99.836 69.7895 99.3878 69.7271C99.1637 69.696 98.9894 69.6716 98.8711 69.6551C98.812 69.6468 98.7669 69.6405 98.7366 69.6363C98.7214 69.6341 98.71 69.6325 98.7023 69.6314C98.6985 69.6309 98.6956 69.6305 98.6937 69.6302C98.6928 69.6301 98.6921 69.63 98.6916 69.6299C98.6914 69.6299 98.6912 69.6299 98.6911 69.6299C98.691 69.6298 98.6909 69.6298 98.5513 70.6201Z" fill="#292922"/>
<path d="M72.9375 65.0201C73.33 62.0044 74.5946 55.4554 75.4655 51.9224C80.9774 52.7275 85.9724 53.0506 91.4813 53.8558C94.0259 54.2277 94.3012 56.6494 94.1298 58.2646C93.7566 61.78 91.5474 69.8634 91.5474 69.8634C91.5474 69.8634 78.5357 68.3237 75.5313 67.93C73.8086 67.7042 72.7674 66.3269 72.9375 65.0201Z" fill="#292922"/>
<path d="M75.4655 51.9224L75.6103 50.9328L74.7119 50.8016L74.4946 51.6833L75.4655 51.9224ZM72.9375 65.0201L73.9291 65.149L72.9375 65.0201ZM75.5313 67.93L75.6615 66.9385L75.6615 66.9385L75.5313 67.93ZM91.5474 69.8634L91.4297 70.8565L92.285 70.9577L92.512 70.1268L91.5474 69.8634ZM94.1298 58.2646L93.1354 58.1593L93.1354 58.1593L94.1298 58.2646ZM91.4813 53.8558L91.6262 52.8663L91.4813 53.8558ZM74.4946 51.6833C73.6165 55.2457 72.3441 61.8319 71.9459 64.8913L73.9291 65.149C74.316 62.1768 75.5728 55.6651 76.4364 52.1614L74.4946 51.6833ZM71.9459 64.8913C71.6932 66.8324 73.2226 68.636 75.4011 68.9215L75.6615 66.9385C74.3946 66.7725 73.8416 65.8214 73.9291 65.149L71.9459 64.8913ZM91.5474 69.8634C92.512 70.1268 92.5121 70.1267 92.5121 70.1266C92.5121 70.1266 92.5121 70.1264 92.5122 70.1263C92.5123 70.126 92.5124 70.1256 92.5125 70.1251C92.5128 70.124 92.5132 70.1224 92.5138 70.1204C92.5149 70.1163 92.5165 70.1103 92.5187 70.1025C92.523 70.0867 92.5293 70.0634 92.5375 70.033C92.554 69.9722 92.5781 69.8829 92.6089 69.7681C92.6705 69.5385 92.7588 69.2071 92.8658 68.7987C93.0798 67.982 93.3691 66.8559 93.6703 65.6186C94.2671 63.167 94.9295 60.2041 95.1242 58.3699L93.1354 58.1593C92.9569 59.8405 92.3281 62.6771 91.7271 65.146C91.4293 66.369 91.143 67.4834 90.9311 68.2922C90.8252 68.6965 90.7379 69.0241 90.6773 69.2503C90.6469 69.3635 90.6232 69.4512 90.6071 69.5105C90.5991 69.5402 90.593 69.5627 90.5889 69.5778C90.5868 69.5853 90.5853 69.5909 90.5843 69.5947C90.5838 69.5965 90.5834 69.5979 90.5832 69.5988C90.583 69.5992 90.5829 69.5996 90.5829 69.5998C90.5829 69.5999 90.5828 69.5999 90.5828 69.6C90.5828 69.6 90.5828 69.6 91.5474 69.8634ZM91.6262 52.8663C88.85 52.4605 86.2055 52.1765 83.5816 51.8947C80.9528 51.6124 78.3445 51.3322 75.6103 50.9328L75.3207 52.9119C78.0983 53.3176 80.7435 53.6015 83.3675 53.8833C85.9962 54.1656 88.6037 54.4458 91.3364 54.8453L91.6262 52.8663ZM95.1242 58.3699C95.2183 57.483 95.2047 56.2779 94.7434 55.2002C94.2524 54.0533 93.2705 53.1066 91.6262 52.8663L91.3364 54.8453C92.2367 54.9769 92.6647 55.427 92.9047 55.9877C93.1744 56.6177 93.2127 57.4311 93.1354 58.1593L95.1242 58.3699ZM75.4011 68.9215C76.9103 69.1193 80.9212 69.6035 84.547 70.0373C86.3616 70.2544 88.0822 70.4592 89.3492 70.6097C89.9827 70.685 90.5028 70.7467 90.8645 70.7895C91.0454 70.811 91.1866 70.8277 91.2827 70.8391C91.3307 70.8448 91.3675 70.8491 91.3922 70.8521C91.4046 70.8535 91.4139 70.8546 91.4202 70.8554C91.4233 70.8557 91.4257 70.856 91.4273 70.8562C91.4281 70.8563 91.4287 70.8564 91.4291 70.8564C91.4293 70.8564 91.4294 70.8565 91.4295 70.8565C91.4296 70.8565 91.4297 70.8565 91.5474 69.8634C91.6652 68.8703 91.6652 68.8703 91.6651 68.8703C91.665 68.8703 91.6648 68.8703 91.6646 68.8703C91.6642 68.8702 91.6636 68.8701 91.6628 68.87C91.6613 68.8699 91.6589 68.8696 91.6558 68.8692C91.6495 68.8685 91.6402 68.8674 91.6278 68.8659C91.6031 68.863 91.5664 68.8586 91.5184 68.8529C91.4224 68.8416 91.2812 68.8249 91.1004 68.8034C90.7389 68.7606 90.2189 68.6989 89.5856 68.6237C88.319 68.4732 86.599 68.2685 84.7851 68.0514C81.1538 67.617 77.1567 67.1344 75.6615 66.9385L75.4011 68.9215Z" fill="#292922"/>
<path d="M129.538 59.0102L129.682 58.0207L128.784 57.8895L128.567 58.7712L129.538 59.0102ZM127.01 72.108L126.018 71.9792L127.01 72.108ZM129.603 75.0179L129.734 74.0264L129.603 75.0179ZM145.62 76.9513L145.502 77.9444L146.357 78.0456L146.584 77.2147L145.62 76.9513ZM148.202 65.3525L147.208 65.2472L148.202 65.3525ZM145.553 60.9437L145.698 59.9542L145.553 60.9437ZM128.567 58.7712C127.689 62.3336 126.416 68.9198 126.018 71.9792L128.001 72.2368C128.388 69.2647 129.645 62.753 130.509 59.2493L128.567 58.7712ZM126.018 71.9792C125.765 73.9203 127.295 75.7239 129.473 76.0094L129.734 74.0264C128.467 73.8603 127.914 72.9093 128.001 72.2368L126.018 71.9792ZM145.62 76.9513C146.584 77.2147 146.584 77.2146 146.584 77.2145C146.584 77.2145 146.584 77.2143 146.584 77.2142C146.584 77.2139 146.585 77.2135 146.585 77.213C146.585 77.2119 146.585 77.2103 146.586 77.2083C146.587 77.2042 146.589 77.1982 146.591 77.1904C146.595 77.1746 146.601 77.1513 146.61 77.1209C146.626 77.0601 146.65 76.9708 146.681 76.856C146.743 76.6264 146.831 76.295 146.938 75.8866C147.152 75.0699 147.441 73.9437 147.742 72.7065C148.339 70.2549 149.002 67.292 149.196 65.4578L147.208 65.2472C147.029 66.9284 146.4 69.765 145.799 72.2339C145.501 73.4569 145.215 74.5713 145.003 75.3801C144.897 75.7844 144.81 76.112 144.749 76.3382C144.719 76.4513 144.695 76.5391 144.679 76.5984C144.671 76.6281 144.665 76.6506 144.661 76.6657C144.659 76.6732 144.657 76.6788 144.656 76.6825C144.656 76.6844 144.656 76.6858 144.655 76.6867C144.655 76.6871 144.655 76.6875 144.655 76.6877C144.655 76.6878 144.655 76.6878 144.655 76.6879C144.655 76.6879 144.655 76.6879 145.62 76.9513ZM145.698 59.9542C142.922 59.5484 140.278 59.2644 137.654 58.9826C135.025 58.7003 132.417 58.4201 129.682 58.0207L129.393 59.9998C132.17 60.4055 134.816 60.6894 137.44 60.9712C140.068 61.2535 142.676 61.5337 145.409 61.9332L145.698 59.9542ZM149.196 65.4578C149.29 64.5709 149.277 63.3658 148.816 62.2881C148.325 61.1412 147.343 60.1945 145.698 59.9542L145.409 61.9332C146.309 62.0647 146.737 62.5149 146.977 63.0756C147.247 63.7056 147.285 64.519 147.208 65.2472L149.196 65.4578ZM129.473 76.0094C130.982 76.2072 134.993 76.6914 138.619 77.1252C140.434 77.3423 142.154 77.5471 143.421 77.6976C144.055 77.7729 144.575 77.8346 144.937 77.8774C145.118 77.8989 145.259 77.9156 145.355 77.927C145.403 77.9327 145.44 77.937 145.464 77.9399C145.477 77.9414 145.486 77.9425 145.492 77.9433C145.495 77.9436 145.498 77.9439 145.499 77.9441C145.5 77.9442 145.501 77.9443 145.501 77.9443C145.501 77.9443 145.502 77.9444 145.502 77.9444C145.502 77.9444 145.502 77.9444 145.62 76.9513C145.737 75.9582 145.737 75.9582 145.737 75.9582C145.737 75.9582 145.737 75.9582 145.737 75.9581C145.736 75.9581 145.736 75.958 145.735 75.9579C145.733 75.9577 145.731 75.9575 145.728 75.9571C145.722 75.9564 145.712 75.9553 145.7 75.9538C145.675 75.9509 145.639 75.9465 145.591 75.9408C145.495 75.9295 145.353 75.9127 145.173 75.8913C144.811 75.8485 144.291 75.7868 143.658 75.7115C142.391 75.5611 140.671 75.3563 138.857 75.1393C135.226 74.7049 131.229 74.2223 129.734 74.0264L129.473 76.0094Z" fill="#292922"/>
<path d="M39.7427 30.8396L39.2036 31.6818L39.7427 30.8396ZM39.8682 26.4287L40.3637 27.2973L39.8682 26.4287ZM39.2036 31.6818C39.8926 32.1228 40.6161 32.309 41.3251 32.2353C42.0252 32.1626 42.6242 31.8458 43.094 31.4299C44.006 30.6225 44.5468 29.3458 44.5468 28.1813H42.5468C42.5468 28.7966 42.2342 29.5199 41.7683 29.9323C41.5492 30.1263 41.3282 30.2242 41.1184 30.246C40.9176 30.2669 40.6413 30.2274 40.2817 29.9973L39.2036 31.6818ZM44.5468 28.1813C44.5468 27.2088 43.9966 26.1549 43.0877 25.5397C42.0998 24.871 40.7684 24.7638 39.3727 25.5601L40.3637 27.2973C41.1538 26.8465 41.6618 26.9896 41.9667 27.196C42.3507 27.4559 42.5468 27.9019 42.5468 28.1813H44.5468ZM39.3727 25.5601C38.2242 26.2153 37.8185 27.5527 37.8071 28.6287C37.796 29.6918 38.1647 31.017 39.2036 31.6818L40.2817 29.9973C40.0771 29.8663 39.7993 29.3907 39.807 28.6497C39.8147 27.9216 40.0935 27.4515 40.3637 27.2973L39.3727 25.5601Z" fill="#292922"/>
<path d="M31.7738 91.8396L31.2347 92.6818L31.7738 91.8396ZM31.8993 87.4287L32.3949 88.2973L31.8993 87.4287ZM31.2347 92.6818C31.9237 93.1228 32.6472 93.309 33.3562 93.2353C34.0563 93.1626 34.6553 92.8458 35.1251 92.4299C36.0371 91.6225 36.578 90.3458 36.578 89.1813H34.578C34.578 89.7966 34.2653 90.5199 33.7994 90.9323C33.5803 91.1263 33.3593 91.2242 33.1495 91.246C32.9487 91.2669 32.6724 91.2274 32.3128 90.9973L31.2347 92.6818ZM36.578 89.1813C36.578 88.2088 36.0277 87.1549 35.1189 86.5397C34.1309 85.871 32.7995 85.7638 31.4038 86.5601L32.3949 88.2973C33.1849 87.8465 33.6929 87.9896 33.9978 88.196C34.3818 88.4559 34.578 88.9019 34.578 89.1813H36.578ZM31.4038 86.5601C30.2554 87.2153 29.8496 88.5527 29.8383 89.6287C29.8271 90.6918 30.1959 92.017 31.2347 92.6818L32.3128 90.9973C32.1082 90.8663 31.8304 90.3907 31.8382 89.6497C31.8458 88.9216 32.1246 88.4515 32.3949 88.2973L31.4038 86.5601Z" fill="#292922"/>
<path d="M27.7893 131.84L27.2502 132.682L27.7893 131.84ZM27.9148 127.429L28.4104 128.297L27.9148 127.429ZM27.2502 132.682C27.9392 133.123 28.6627 133.309 29.3717 133.235C30.0718 133.163 30.6708 132.846 31.1406 132.43C32.0526 131.623 32.5935 130.346 32.5935 129.181H30.5935C30.5935 129.797 30.2808 130.52 29.8149 130.932C29.5958 131.126 29.3748 131.224 29.165 131.246C28.9642 131.267 28.6879 131.227 28.3284 130.997L27.2502 132.682ZM32.5935 129.181C32.5935 128.209 32.0432 127.155 31.1344 126.54C30.1464 125.871 28.815 125.764 27.4193 126.56L28.4104 128.297C29.2004 127.847 29.7084 127.99 30.0133 128.196C30.3973 128.456 30.5935 128.902 30.5935 129.181H32.5935ZM27.4193 126.56C26.2709 127.215 25.8651 128.553 25.8538 129.629C25.8426 130.692 26.2114 132.017 27.2502 132.682L28.3284 130.997C28.1237 130.866 27.8459 130.391 27.8537 129.65C27.8613 128.922 28.1401 128.451 28.4104 128.297L27.4193 126.56Z" fill="#292922"/>
<path d="M134.019 252C130.533 239.5 122.954 223.759 120.572 211.5L197.85 128L142.984 219C141.988 227 139.498 238.5 138.502 244C137.888 247.387 136.45 260.715 134.019 252Z" fill="#F9FCFF"/>
<path d="M120.572 211.5L119.838 210.821L119.493 211.193L119.59 211.691L120.572 211.5ZM134.019 252L134.982 251.731L134.019 252ZM138.502 244L139.486 244.178L138.502 244ZM142.984 219L142.128 218.484L142.018 218.666L141.992 218.876L142.984 219ZM197.85 128L198.706 128.516L197.116 127.321L197.85 128ZM119.59 211.691C120.799 217.913 123.319 224.987 125.945 232.01C128.584 239.068 131.328 246.072 133.056 252.269L134.982 251.731C133.224 245.428 130.436 238.311 127.818 231.309C125.187 224.272 122.727 217.345 121.553 211.309L119.59 211.691ZM133.056 252.269C133.366 253.382 133.683 254.228 134.023 254.805C134.193 255.093 134.404 255.376 134.677 255.584C134.969 255.806 135.363 255.962 135.815 255.891C136.235 255.824 136.541 255.586 136.74 255.374C136.942 255.16 137.103 254.902 137.233 254.65C137.493 254.144 137.714 253.495 137.905 252.806C138.661 250.085 139.199 245.761 139.486 244.178L137.518 243.822C137.191 245.626 136.703 249.66 135.978 252.271C135.8 252.915 135.622 253.409 135.455 253.734C135.371 253.896 135.311 253.975 135.285 254.003C135.255 254.034 135.326 253.943 135.503 253.915C135.711 253.882 135.855 253.967 135.889 253.993C135.904 254.004 135.849 253.965 135.746 253.789C135.54 253.441 135.279 252.797 134.982 251.731L133.056 252.269ZM139.486 244.178C140.47 238.742 142.976 227.158 143.976 219.124L141.992 218.876C141 226.842 138.525 238.258 137.518 243.822L139.486 244.178ZM121.306 212.179L198.584 128.679L197.116 127.321L119.838 210.821L121.306 212.179ZM196.994 127.484L142.128 218.484L143.841 219.516L198.706 128.516L196.994 127.484Z" fill="#292922"/>
<path d="M191.794 130C194.616 128.5 203.223 123.472 198.268 129C173.171 156.994 135.015 204.383 122.457 210.687C112.756 215.556 84.19 197.346 71.547 192.722C70.661 192.398 70.5507 191.062 71.3977 190.647C111.721 170.858 152.125 151.083 191.794 130Z" fill="#292922"/>
<path d="M198.268 129L197.524 128.332V128.332L198.268 129ZM191.794 130L191.324 129.117V129.117L191.794 130ZM122.457 210.687L122.905 211.581L122.457 210.687ZM71.547 192.722L71.2035 193.661H71.2035L71.547 192.722ZM71.3977 190.647L71.8382 191.545H71.8382L71.3977 190.647ZM199.013 129.667C199.646 128.961 200.103 128.379 200.386 127.909C200.526 127.676 200.651 127.425 200.719 127.168C200.784 126.924 200.836 126.527 200.622 126.134C200.39 125.709 199.993 125.549 199.715 125.497C199.449 125.448 199.186 125.471 198.98 125.505C198.557 125.574 198.065 125.741 197.576 125.936C195.624 126.716 192.676 128.399 191.324 129.117L192.263 130.883C193.733 130.102 196.5 128.52 198.318 127.793C198.772 127.612 199.101 127.512 199.303 127.479C199.408 127.461 199.409 127.475 199.347 127.463C199.273 127.449 199.021 127.376 198.866 127.093C198.798 126.967 198.779 126.851 198.776 126.774C198.774 126.7 198.785 126.657 198.786 126.654C198.787 126.649 198.783 126.666 198.764 126.708C198.745 126.75 198.715 126.806 198.671 126.879C198.487 127.186 198.13 127.656 197.524 128.332L199.013 129.667ZM122.905 211.581C126.213 209.92 131.062 205.655 136.78 199.906C142.537 194.118 149.284 186.711 156.41 178.639C170.699 162.457 186.45 143.68 199.013 129.667L197.524 128.332C184.989 142.313 169.114 161.229 154.911 177.316C147.792 185.379 141.076 192.75 135.362 198.496C129.61 204.279 124.979 208.302 122.008 209.793L122.905 211.581ZM71.2035 193.661C74.3036 194.795 78.4095 196.774 83.0275 199.06C87.6242 201.336 92.7045 203.905 97.691 206.175C102.673 208.442 107.612 210.436 111.938 211.553C116.202 212.654 120.128 212.975 122.905 211.581L122.008 209.793C119.935 210.834 116.653 210.705 112.438 209.616C108.284 208.544 103.472 206.608 98.5196 204.354C93.5716 202.102 88.5335 199.555 83.915 197.268C79.3179 194.992 75.1119 192.961 71.8905 191.783L71.2035 193.661ZM191.324 129.117C151.672 150.191 111.284 169.958 70.9571 189.749L71.8382 191.545C112.158 171.757 152.577 151.975 192.263 130.883L191.324 129.117ZM71.8905 191.783C71.8779 191.778 71.8678 191.772 71.8551 191.753C71.8392 191.73 71.8233 191.691 71.8196 191.643C71.8159 191.594 71.8264 191.562 71.8324 191.55C71.8351 191.545 71.8334 191.547 71.8382 191.545L70.9571 189.749C70.0926 190.173 69.7686 191.049 69.8254 191.794C69.8818 192.536 70.3257 193.34 71.2035 193.661L71.8905 191.783Z" fill="#292922"/>
<path d="M153.566 227.5L153.913 226.562L153.566 227.5ZM148.586 208L147.74 207.467L148.586 208ZM200.867 127.788L201.867 127.797L200.867 127.788ZM199.004 127.286L199.871 127.785L199.004 127.286ZM196.22 224.555C196.22 226.606 196.173 228.469 195.946 230.082C195.719 231.7 195.321 232.974 194.684 233.9C194.072 234.789 193.199 235.414 191.863 235.687C190.487 235.967 188.59 235.877 185.976 235.223L185.49 237.163C188.251 237.854 190.477 238.01 192.263 237.646C194.088 237.274 195.416 236.363 196.331 235.034C197.222 233.742 197.68 232.115 197.927 230.36C198.174 228.599 198.22 226.615 198.22 224.555H196.22ZM185.976 235.223C175.164 232.514 163.31 230.037 153.913 226.562L153.219 228.438C162.752 231.963 174.804 234.486 185.49 237.163L185.976 235.223ZM199.867 127.78C199.737 143.532 198.826 159.926 197.947 176.292C197.068 192.649 196.22 208.978 196.22 224.555H198.22C198.22 209.04 199.065 192.764 199.944 176.4C200.823 160.046 201.736 143.603 201.867 127.797L199.867 127.78ZM153.913 226.562C150.485 225.294 148.071 224.233 146.463 223.184C144.868 222.143 144.211 221.209 144.036 220.232C143.85 219.196 144.155 217.858 145.099 215.9C146.035 213.959 147.507 211.588 149.432 208.533L147.74 207.467C145.832 210.494 144.293 212.968 143.298 215.031C142.312 217.076 141.766 218.9 142.067 220.584C142.379 222.327 143.546 223.668 145.37 224.859C147.181 226.041 149.781 227.166 153.219 228.438L153.913 226.562ZM149.432 208.533C164.232 185.05 184.697 154.125 199.871 127.785L198.138 126.787C182.99 153.082 162.578 183.923 147.74 207.467L149.432 208.533ZM201.867 127.797C201.884 125.728 199.157 125.018 198.138 126.787L199.871 127.785C199.875 127.778 199.878 127.774 199.88 127.772C199.881 127.771 199.881 127.771 199.879 127.773C199.878 127.774 199.875 127.776 199.872 127.777C199.87 127.779 199.867 127.78 199.865 127.781C199.86 127.783 199.858 127.783 199.86 127.782C199.862 127.782 199.866 127.783 199.871 127.784C199.877 127.785 199.88 127.787 199.881 127.788C199.883 127.789 199.88 127.788 199.876 127.783C199.875 127.781 199.873 127.778 199.871 127.775C199.869 127.771 199.868 127.768 199.867 127.766C199.866 127.764 199.866 127.763 199.866 127.765C199.867 127.766 199.867 127.771 199.867 127.78L201.867 127.797Z" fill="#292922"/>
<path d="M150.89 228.359C146.594 235.029 141.356 245.342 136.658 253.816C136.096 254.83 134.67 254.233 134.974 253.114L143.024 223.48C143.242 222.676 144.291 222.476 144.79 223.144L144.944 223.35C145.018 223.449 145.11 223.534 145.215 223.599L150.58 226.955C151.057 227.254 151.194 227.886 150.89 228.359Z" fill="#292922" stroke="#292922" stroke-width="2" stroke-linecap="round"/>
</svg>
