<svg width="160" height="237" viewBox="0 0 160 237" fill="none" xmlns="http://www.w3.org/2000/svg">
<path d="M100.476 14.1944C96.4933 13.5306 70.6043 16.1306 58.1577 17.5135C49.8601 18.4018 49.0298 22.4926 48.2003 25.8117C47.4749 28.7142 44.8812 47.3859 45.711 54.0241C46.3748 59.3346 49.3067 62.875 50.6896 63.9814C53.7322 66.4707 58.3236 74.7685 52.3492 88.0449C44.8813 104.64 53.179 141.98 54.8386 143.64C56.1662 144.967 60.3704 145.299 62.3066 145.299C70.8809 144.746 87.0339 141.648 83.0509 133.683C78.0723 123.725 86.37 73.1089 89.6891 63.9814C93.0082 54.8538 100.476 49.8752 107.944 47.3859C113.919 45.3944 114.859 38.8115 114.582 35.769C113.753 31.6201 111.761 22.4926 110.434 19.1735C108.774 15.0246 105.455 15.0242 100.476 14.1944Z" stroke="#292922" stroke-width="2"/>
<path d="M93.2015 75.9728L90.7475 61.2487L86.3694 78.9168L93.2015 75.9728Z" fill="#292922"/>
<path d="M107.114 20.0028C106.45 16.6837 102.412 14.7475 100.476 14.1943L107.944 15.8539L110.433 20.0028L114.582 34.9387V38.2578L112.922 43.2365L109.603 46.5556L106.211 48.2514C105.627 48.6604 105.073 48.9166 104.624 49.0449L106.211 48.2514C108.148 46.8969 110.433 43.8665 110.433 38.2578C110.433 29.1303 107.944 24.1516 107.114 20.0028Z" fill="#292922"/>
<path d="M50.8701 25.0513C50.2566 27.5054 49.0295 34.8675 48.416 40.389C47.8025 45.9106 48.2003 55.6835 48.2003 55.6835C48.416 56.9537 50.3577 59.3345 55.6682 60.6622C60.9788 61.9898 63.4128 59.0026 63.966 57.3431C64.7958 54.024 64.7958 48.2155 64.7958 43.2369V25.8116C64.7958 24.152 60.6469 23.3223 57.3278 23.3223C54.6725 23.3223 50.8701 24.4378 50.8701 25.0513Z" fill="#292922"/>
<path d="M25.3436 196.023H27.0636V183.183H32.4036V181.743H20.0236V183.183H25.3436V196.023ZM41.3535 193.063H39.7935C39.3735 194.283 38.5535 194.943 37.1935 194.943C35.2735 194.943 34.0535 193.663 33.9735 191.343H41.4135V190.683C41.4135 188.103 40.0735 185.723 37.0935 185.723C34.4135 185.723 32.3535 187.763 32.3535 191.043C32.3535 194.283 34.3535 196.263 37.1935 196.263C39.1535 196.263 40.8935 195.203 41.3535 193.063ZM37.0935 187.063C38.8935 187.063 39.7535 188.403 39.7935 190.143H34.0335C34.3135 188.083 35.5135 187.063 37.0935 187.063ZM52.0663 187.883C51.6263 186.543 50.7063 185.723 49.0063 185.723C47.5463 185.723 46.3063 186.523 45.8263 187.803V185.963H44.2263V196.023H45.8863V190.483C45.8863 188.163 47.0263 187.083 48.5463 187.083C50.0663 187.083 50.7263 188.023 50.7263 189.903V196.023H52.4063V190.483C52.4063 188.163 53.5463 187.083 55.0463 187.083C56.5463 187.083 57.2263 188.023 57.2263 189.903V196.023H58.9063V189.543C58.9063 187.183 57.7663 185.723 55.4463 185.723C53.9663 185.723 52.6863 186.523 52.0663 187.883ZM64.0113 194.263C64.5113 195.283 65.6913 196.263 67.3513 196.263C69.9113 196.263 71.8313 194.183 71.8313 191.003C71.8313 187.803 69.9113 185.723 67.3513 185.723C65.6113 185.723 64.4113 186.783 63.9513 187.803V185.963H62.3513V199.583H64.0113V194.263ZM63.9313 190.843C63.9313 188.563 65.0513 187.023 67.0113 187.023C68.9913 187.023 70.1513 188.643 70.1513 191.003C70.1513 193.343 68.9913 194.963 67.0113 194.963C65.0513 194.963 63.9313 193.403 63.9313 191.123V190.843ZM82.9355 193.063H81.3755C80.9555 194.283 80.1355 194.943 78.7755 194.943C76.8555 194.943 75.6355 193.663 75.5555 191.343H82.9955V190.683C82.9955 188.103 81.6555 185.723 78.6755 185.723C75.9955 185.723 73.9355 187.763 73.9355 191.043C73.9355 194.283 75.9355 196.263 78.7755 196.263C80.7355 196.263 82.4755 195.203 82.9355 193.063ZM78.6755 187.063C80.4755 187.063 81.3355 188.403 81.3755 190.143H75.6155C75.8955 188.083 77.0955 187.063 78.6755 187.063ZM91.3883 185.823C91.1483 185.763 90.8683 185.743 90.6083 185.743C89.1283 185.743 87.8483 186.683 87.4083 188.343V185.963H85.8083V196.023H87.4683V191.063C87.4683 188.523 88.9283 187.263 90.5283 187.263C90.7883 187.263 91.1483 187.283 91.3883 187.343V185.823ZM99.6636 196.023H101.324C101.124 195.363 101.084 194.663 101.084 193.923V189.303C101.084 186.883 99.5636 185.723 97.1236 185.723C94.9836 185.723 93.3836 186.883 93.1836 188.923H94.7836C94.9036 187.763 95.7436 187.063 97.0836 187.063C98.4636 187.063 99.4436 187.743 99.4436 189.343V189.923L96.2036 190.343C94.1636 190.583 92.7236 191.423 92.7236 193.363C92.7236 195.223 94.2236 196.243 95.9836 196.243C97.6636 196.243 99.0436 195.503 99.4836 194.323C99.4836 194.803 99.5436 195.463 99.6636 196.023ZM96.3236 194.983C95.0636 194.983 94.4036 194.263 94.4036 193.323C94.4036 191.963 95.4436 191.643 96.7036 191.463L99.4436 191.163V192.063C99.4436 194.003 97.8836 194.983 96.3236 194.983ZM109.219 194.543C108.579 194.743 108.139 194.783 107.759 194.783C106.839 194.783 106.299 194.423 106.299 193.363V187.223H108.959V185.963H106.319V183.403H104.679V185.963H103.199V187.223H104.679V193.443C104.679 195.303 105.619 196.183 107.459 196.183C107.899 196.183 108.479 196.123 109.219 195.903V194.543ZM120.202 196.023V185.963H118.522V191.503C118.522 193.923 117.382 194.963 115.862 194.963C114.282 194.963 113.502 193.983 113.502 192.123V185.963H111.822V192.443C111.822 194.883 113.102 196.263 115.382 196.263C116.902 196.263 118.102 195.463 118.582 194.203V196.023H120.202ZM129.338 185.823C129.098 185.763 128.818 185.743 128.558 185.743C127.078 185.743 125.798 186.683 125.358 188.343V185.963H123.758V196.023H125.418V191.063C125.418 188.523 126.878 187.263 128.478 187.263C128.738 187.263 129.098 187.283 129.338 187.343V185.823ZM139.518 193.063H137.958C137.538 194.283 136.718 194.943 135.358 194.943C133.438 194.943 132.218 193.663 132.138 191.343H139.578V190.683C139.578 188.103 138.238 185.723 135.258 185.723C132.578 185.723 130.518 187.763 130.518 191.043C130.518 194.283 132.518 196.263 135.358 196.263C137.318 196.263 139.058 195.203 139.518 193.063ZM135.258 187.063C137.058 187.063 137.918 188.403 137.958 190.143H132.198C132.478 188.083 133.678 187.063 135.258 187.063ZM48.2141 220.863C48.2141 217.303 49.9141 214.963 52.8541 214.963C55.2541 214.963 56.2941 216.303 56.6141 217.903H58.2941C57.8341 215.303 55.9741 213.503 52.8541 213.503C49.1741 213.503 46.4541 216.383 46.4541 220.863C46.4541 225.363 49.1741 228.263 52.8541 228.263C55.9741 228.263 57.8341 226.463 58.2941 223.863H56.6141C56.2941 225.463 55.2541 226.803 52.8541 226.803C49.9141 226.803 48.2141 224.423 48.2141 220.863ZM62.605 219.803V213.303H60.945V228.023H62.605V222.483C62.605 220.063 63.825 219.083 65.365 219.083C66.945 219.083 67.765 220.043 67.765 221.903V228.023H69.425V221.543C69.425 219.143 68.085 217.723 65.825 217.723C64.285 217.723 63.085 218.523 62.605 219.803ZM81.1386 225.063H79.5786C79.1586 226.283 78.3386 226.943 76.9786 226.943C75.0586 226.943 73.8386 225.663 73.7586 223.343H81.1986V222.683C81.1986 220.103 79.8586 217.723 76.8786 217.723C74.1986 217.723 72.1386 219.763 72.1386 223.043C72.1386 226.283 74.1386 228.263 76.9786 228.263C78.9386 228.263 80.6786 227.203 81.1386 225.063ZM76.8786 219.063C78.6786 219.063 79.5386 220.403 79.5786 222.143H73.8186C74.0986 220.083 75.2986 219.063 76.8786 219.063ZM83.291 223.003C83.291 226.223 85.231 228.263 88.031 228.263C90.271 228.263 91.751 227.003 92.071 224.843H90.491C90.211 226.183 89.391 226.923 88.031 226.923C86.051 226.923 84.931 225.363 84.931 223.003C84.931 220.643 86.051 219.063 88.031 219.063C89.391 219.063 90.211 219.803 90.491 221.143H92.071C91.751 219.003 90.271 217.723 88.031 217.723C85.231 217.723 83.291 219.783 83.291 223.003ZM101.592 228.023H103.592L98.9722 222.223L103.412 217.963H101.432L96.4722 222.783V213.303H94.8122V228.023H96.4722V224.543L97.7722 223.283L101.592 228.023ZM104.987 225.043C105.167 227.203 106.967 228.263 109.367 228.263C111.627 228.263 113.287 226.963 113.287 225.203C113.287 223.583 112.327 222.783 110.687 222.463L108.687 222.083C107.527 221.863 106.927 221.503 106.927 220.643C106.927 219.663 107.787 219.003 109.127 219.003C110.507 219.003 111.407 219.603 111.527 220.623H113.067C112.867 218.723 111.447 217.723 109.127 217.723C106.907 217.723 105.387 219.043 105.387 220.743C105.387 222.503 106.567 223.163 108.187 223.463L109.967 223.823C111.247 224.063 111.727 224.543 111.727 225.283C111.727 226.363 110.727 227.003 109.347 227.003C107.987 227.003 106.707 226.423 106.587 225.043H104.987Z" fill="#44372E"/>
</svg>
